<?xml version="1.0" encoding="UTF-8" standalone="no"?>
<svg width="68px" height="88px" viewBox="0 0 68 88" version="1.1" xmlns="http://www.w3.org/2000/svg" xmlns:xlink="http://www.w3.org/1999/xlink">
    <!-- Generator: Sketch 3.7.1 (28215) - http://www.bohemiancoding.com/sketch -->
    <title>numbers</title>
    <desc>Created with Sketch.</desc>
    <defs></defs>
    <g id="Super-Gluten-tablet" stroke="none" stroke-width="1" fill="none" fill-rule="evenodd">
        <g id="iPad-Landscape-Copy-4" transform="translate(-478.000000, -504.000000)">
            <g id="Group-7-Copy" transform="translate(347.000000, 504.000000)">
                <g id="numbers" transform="translate(131.000000, 0.000000)">
                    <path d="M43.960864,6.83625609 C43.960864,6.83625609 37.2870101,10.4801812 32.9164118,31.2499401 L48.754864,39.412824 L43.960864,6.83625609" id="Fill-188" fill="#365370"></path>
                    <path d="M40.317871,29.4335079 C40.2706884,22.5954642 41.064101,15.8348463 41.6538834,9.04104587 C43.0395618,7.34136679 43.960864,6.83625609 43.960864,6.83625609 L48.754864,39.412824 L40.4209277,35.1175395 C40.3749868,33.2236817 40.3327708,31.3273658 40.317871,29.4335079" id="Fill-189" fill="#2E4B63"></path>
                    <path d="M66.3254141,84.8764742 C63.4100264,87.2139938 6.11173116,89.3180073 3.30809169,86.1177438 C0.499485625,82.9150224 0.21390676,8.69324459 1.68401709,5.40818154 C3.15288578,2.12557646 62.693596,2.25584832 64.7038228,4.16936989 C66.7140497,6.08412044 69.2395602,82.5414126 66.3254141,84.8764742" id="Fill-240" fill="#D19F62"></path>
                    <path d="M22.5349992,14.3576125 C28.086404,15.4612364 33.9060047,14.6562546 39.5157669,14.8209379 C43.5039378,14.937691 50.07846,15.8962953 50.778749,10.5735837 C51.1139938,8.02959549 50.8470396,5.50281299 50.5713939,2.97357253 C40.553784,2.70442596 27.1489604,2.77201984 16.9016457,3.26606973 C16.7874141,7.9066975 17.6242844,13.3781156 22.5349992,14.3576125" id="Fill-242" fill="#BC8E5C"></path>
                    <path d="M61.4084911,77.6046007 C58.9363714,79.6397912 10.3407817,81.4439336 7.9605439,78.6578364 C5.58030614,75.8680522 5.30466045,11.2101952 6.54879099,8.34790126 C7.79416317,5.48683625 58.2919565,5.62571097 59.9967382,7.29589454 C61.7015198,8.96239116 63.8793691,75.5706391 61.4084911,77.6046007" id="Fill-243" fill="#BC8E5C"></path>
                    <path d="M60.0935866,77.0933451 C57.7456317,79.0941242 11.5315214,80.8405045 9.26551515,78.0937346 C6.99826729,75.3457358 6.69282207,11.6772076 7.87487024,8.86038584 C9.05319347,6.04602207 57.0813504,6.21685026 58.7017001,7.86122525 C60.324533,9.50314228 62.4440249,75.090108 60.0935866,77.0933451" id="Fill-244" fill="#FFFFFF"></path>
                    <path d="M22.5349992,14.3576125 C28.086404,15.4612364 33.9060047,14.6562546 39.5157669,14.8209379 C43.5039378,14.937691 50.07846,15.8962953 50.778749,10.5735837 C50.9376799,9.36426756 50.9525796,8.15986735 50.9029138,6.95669611 C41.789223,6.53638501 26.7652914,6.55727767 17.0928594,7.21355289 C17.5684103,10.5993923 18.9900963,13.6497202 22.5349992,14.3576125" id="Fill-246" fill="#E0E0E0"></path>
                    <polyline id="Fill-247" fill="#D3D3D3" points="18.3307817 24.0616371 12.9221663 24.1673294 12.8215929 19.2219146 18.2339332 19.1137644 18.3307817 24.0616371"></polyline>
                    <polyline id="Fill-248" fill="#D3D3D3" points="51.1164771 23.4164227 26.7764662 23.8932669 26.6783761 18.9490811 51.0171453 18.471008 51.1164771 23.4164227"></polyline>
                    <polyline id="Fill-249" fill="#D3D3D3" points="18.8175074 39.7446485 13.4051671 39.8515698 13.3070769 34.9036971 18.716934 34.7967758 18.8175074 39.7446485"></polyline>
                    <polyline id="Fill-250" fill="#D3D3D3" points="51.6019611 39.1006631 27.2631919 39.5787363 27.1626185 34.6296346 51.5013877 34.1527904 51.6019611 39.1006631"></polyline>
                    <polyline id="Fill-251" fill="#D3D3D3" points="19.1328858 55.4313469 13.7217871 55.5382681 13.6224553 50.5903954 19.0347956 50.4859321 19.1328858 55.4313469"></polyline>
                    <polyline id="Fill-252" fill="#D3D3D3" points="51.9173395 54.7873615 27.5773287 55.2642056 27.4767552 50.3200198 51.8180078 49.8394887 51.9173395 54.7873615"></polyline>
                    <polyline id="Fill-253" fill="#D3D3D3" points="19.4482642 71.1180452 14.0371655 71.2249665 13.9365921 66.2770937 19.3489324 66.1726304 19.4482642 71.1180452"></polyline>
                    <polyline id="Fill-254" fill="#D3D3D3" points="52.2314763 70.4740598 27.8914654 70.950904 27.7933753 66.0067182 52.1321445 65.5261871 52.2314763 70.4740598"></polyline>
                    <path d="M19.3067164,17.0429334 L15.1844476,21.9723715 L13.4151002,19.6778662 L12.8638089,21.2792269 L15.0553162,24.1243151 L19.6506527,18.896235 C19.5401461,18.2768292 19.4184646,17.6598813 19.3067164,17.0429334" id="Fill-255" fill="#3A773A"></path>
                    <path d="M19.7959254,32.9950914 L15.6736566,37.9245294 L13.9067925,35.6287952 L13.3542595,37.2313848 L15.5445253,40.0764731 L20.13862,34.847164 C20.03308,34.2289871 19.9076737,33.6120393 19.7959254,32.9950914" id="Fill-256" fill="#3A773A"></path>
                    <path d="M20.1075789,48.4126432 L15.9840684,53.3445392 L14.2159627,51.0488049 L13.662188,52.6477076 L15.8561787,55.4952538 L20.4502735,50.2659447 C20.3410085,49.6477679 20.2193271,49.03082 20.1075789,48.4126432" id="Fill-257" fill="#3A773A"></path>
                    <path d="M20.6303124,63.8707513 L16.5068019,68.8001893 L14.7374545,66.504455 L14.1849215,68.1070447 L16.3776706,70.950904 L20.973007,65.7240528 C20.863742,65.104647 20.7420606,64.4876991 20.6303124,63.8707513" id="Fill-258" fill="#3A773A"></path>
                    <path d="M46.2579114,11.3281773 C44.5394716,12.4465489 22.0048159,13.0979082 20.5558135,11.833288 C19.1068112,10.5698968 18.8994561,2.98217539 20.3521834,1.70772333 C21.8061523,0.43327126 44.7157855,0.0584324174 46.0542813,1.20261262 C47.3940186,2.34556385 47.9763512,10.2073477 46.2579114,11.3281773" id="Fill-265" fill="#353331"></path>
                </g>
            </g>
        </g>
    </g>
</svg>