<?xml version="1.0" encoding="UTF-8" standalone="no"?>
<svg width="192px" height="73px" viewBox="0 0 192 73" version="1.1" xmlns="http://www.w3.org/2000/svg" xmlns:xlink="http://www.w3.org/1999/xlink">
    <!-- Generator: Sketch 3.6.1 (26313) - http://www.bohemiancoding.com/sketch -->
    <title>pybossa-logo</title>
    <desc>Created with Sketch.</desc>
    <defs></defs>
    <g id="Page-1" stroke="none" stroke-width="1" fill="none" fill-rule="evenodd">
        <g id="Artboard-7" transform="translate(-221.000000, -841.000000)" fill="#FFFFFF">
            <g id="pybossa-logo" transform="translate(221.000000, 841.000000)">
                <path d="M133.410569,66.3850122 C133.410569,68.2230364 132.308496,69.1417517 130.104951,69.1417517 L130.068376,69.1417517 C127.756902,69.1417517 126.600865,68.1696227 126.600865,66.2247712 C126.612258,64.6478806 128.00274,63.859732 130.769313,63.859732 C131.49963,63.8716017 132.380449,63.9493483 133.410569,64.0911913 L133.410569,66.3850122 Z M129.727201,54.255952 C127.666961,54.255952 125.791999,54.5936451 124.103514,55.269625 L124.103514,58.8091716 C125.62471,58.1925403 127.415128,57.883928 129.475967,57.883928 C132.074651,57.883928 133.374592,59.0287612 133.374592,61.3166473 C132.224552,61.1510648 131.147063,61.0673834 130.140328,61.0673834 C128.739053,61.0673834 127.523656,61.224657 126.493536,61.5386108 C125.462817,61.8525645 124.683931,62.2300212 124.156879,62.6680134 C123.629827,63.1077861 123.213702,63.6169965 122.907904,64.1980187 C122.603305,64.7784474 122.41443,65.2615444 122.343077,65.6473099 C122.270525,66.0318884 122.233949,66.4093451 122.233949,66.7761191 C122.233949,68.5079093 122.872527,69.9779726 124.148485,71.1874957 C125.424442,72.3964254 127.409132,73 130.104951,73 C132.72762,73 134.671536,72.3993928 135.934902,71.1958045 C137.198267,69.9928097 137.83085,68.5547947 137.83085,66.8829464 L137.83085,61.974229 C137.83085,59.4732817 137.135909,57.5616654 135.746626,56.2387866 C134.356744,54.9176881 132.350469,54.255952 129.727201,54.255952 L129.727201,54.255952 Z M185.437013,58.044169 C187.030161,58.044169 188.551357,58.3349768 190,58.9154055 L190,55.269625 C188.262947,54.5936451 186.497113,54.255952 184.700699,54.255952 C181.908943,54.255952 179.765358,55.0624986 178.267547,56.6749983 C176.769737,58.2869045 176.021431,60.6109932 176.021431,63.6466708 C176.021431,66.657422 176.769737,68.9690475 178.267547,70.5821407 C179.765358,72.1952339 181.908943,73 184.700699,73 C186.497113,73 188.262947,72.6629003 190,71.9869205 L190,68.3417334 C188.478805,68.9459015 186.958209,69.2485791 185.437013,69.2485791 C183.747329,69.2485791 182.492358,68.8598462 181.672099,68.0829738 C180.851241,67.3078819 180.441112,65.8283229 180.441112,63.6466708 C180.441112,61.4406857 180.851241,59.9563788 181.672099,59.1919697 C182.492358,58.4269671 183.747329,58.044169 185.437013,58.044169 L185.437013,58.044169 Z M150.783496,67.8307425 C150.219869,68.7761647 149.237717,69.2485791 147.837042,69.2485791 C145.632898,69.2485791 144.530825,68.5945582 144.530825,67.285923 L144.530825,57.9741377 C145.35708,57.7717592 146.309851,57.6702732 147.387339,57.6702732 C148.76463,57.6702732 149.815735,58.0785912 150.540657,58.8928531 C151.264978,59.707115 151.627739,61.1374147 151.627739,63.1825652 C151.627739,65.3351366 151.346525,66.8853204 150.783496,67.8307425 L150.783496,67.8307425 Z M147.549232,54.255952 C146.590465,54.255952 145.584929,54.3515031 144.530825,54.5408249 L144.530825,47.5519414 L140.111144,47.5519414 L140.111144,66.8746376 C140.111144,68.5607295 140.742527,70.0028989 142.005893,71.2023329 C143.269258,72.4011733 145.213774,73 147.837042,73 C148.444441,73 149.050041,72.9537081 149.652044,72.858157 C150.254646,72.7626059 150.963977,72.513342 151.781238,72.1103655 C152.598498,71.7062019 153.298236,71.1833413 153.88285,70.5417837 C154.467464,69.901413 154.974129,68.9595517 155.404645,67.7179803 C155.833362,66.476409 156.04802,65.0419548 156.04802,63.4152115 C156.04802,60.4572805 155.314105,58.1907599 153.847473,56.6168367 C152.380242,55.0429136 150.281028,54.255952 147.549232,54.255952 L147.549232,54.255952 Z M169.26809,72.716314 L173.669784,72.716314 L173.669784,54.5408249 L169.26809,54.5408249 L169.26809,72.716314 Z M122.668062,54.5408249 L118.445651,54.5408249 C118.445651,52.9639344 118.697484,51.903376 119.200552,51.357963 C119.70362,50.8125499 120.530474,50.5395467 121.680514,50.5395467 C121.895772,50.5395467 122.225555,50.5632861 122.668062,50.6107649 L122.668062,47.1780456 C122.057066,47.0593485 121.458061,47 120.871649,47 C116.332046,47 114.049354,49.5134105 114.025969,54.5408249 L110.899634,54.5408249 L110.899634,58.2934329 L114.025969,58.2934329 L114.025969,72.716314 L118.445651,72.716314 L118.445651,58.2934329 L122.668062,58.2934329 L122.668062,54.5408249 Z M84.0889378,62.3926362 C83.2327032,62.0193339 82.3734706,61.7231847 81.5106404,61.5035952 C80.6484098,61.2840056 79.9174924,61.0294004 79.3190876,60.7385925 C78.7194835,60.4477847 78.4208807,60.0477756 78.4208807,59.5379716 C78.4208807,58.5183638 79.474385,58.0085599 81.5825929,58.0085599 C83.1637488,58.0085599 84.5770155,58.2993677 85.8235924,58.8797964 L85.8235924,55.5544979 C84.3017973,54.6891963 82.6313004,54.255952 80.8097032,54.255952 C78.8693845,54.255952 77.249854,54.7449839 75.9499124,55.7230478 C74.6499708,56.7017051 74,58.1035175 74,59.929672 C74,61.0911228 74.3028,62.0543496 74.9078005,62.8193522 C75.5122014,63.5843548 76.2425192,64.1321418 77.0993534,64.4644936 C77.9561876,64.7962519 78.8118225,65.0840923 79.6692563,65.3268278 C80.5254909,65.5707503 81.2564083,65.8544363 81.8608092,66.1802598 C82.4658096,66.5066767 82.7686097,66.9369536 82.7686097,67.4704969 C82.7686097,68.0509256 82.5767364,68.4865439 82.1929898,68.7767582 C81.8098428,69.0681595 80.9829888,69.2129699 79.713627,69.2129699 C77.869245,69.2129699 76.1381881,68.6788331 74.5210559,67.6123399 L74.5210559,71.5067908 C76.2940851,72.5032528 78.2344038,73 80.3426117,73 C82.4028512,73 84.0589576,72.4973179 85.3103313,71.4895798 C86.5623045,70.4812481 87.1882912,69.2129699 87.1882912,67.6835582 C87.1882912,66.3084526 86.8854911,65.1754891 86.2804906,64.286448 C85.6760898,63.3974069 84.9451724,62.7659385 84.0889378,62.3926362 L84.0889378,62.3926362 Z M104.450892,72.716314 L108.853185,72.716314 L108.853185,54.5408249 L104.450892,54.5408249 L104.450892,72.716314 Z M90.7793199,56.6749983 C89.2821085,58.2869045 88.5338027,60.6109932 88.5338027,63.6466708 C88.5338027,66.657422 89.2821085,68.9690475 90.7793199,70.5821407 C92.2771308,72.1952339 94.4213149,73 97.2124718,73 C99.0088855,73 100.775919,72.6629003 102.512972,71.9869205 L102.512972,68.3417334 C100.991776,68.9459015 99.4705806,69.2485791 97.9487855,69.2485791 C96.2603005,69.2485791 95.0047296,68.8598462 94.1850709,68.0829738 C93.3642129,67.3078819 92.9540838,65.8283229 92.9540838,63.6466708 C92.9540838,61.4406857 93.3642129,59.9563788 94.1850709,59.1919697 C95.0047296,58.4269671 96.2603005,58.044169 97.9487855,58.044169 C99.5419335,58.044169 101.063129,58.3349768 102.512972,58.9154055 L102.512972,55.269625 C100.775919,54.5936451 99.0088855,54.255952 97.2124718,54.255952 C94.4213149,54.255952 92.2771308,55.0624986 90.7793199,56.6749983 L90.7793199,56.6749983 Z M159.477755,55.6565774 C158.950104,55.8506471 158.536976,56.01801 158.238374,56.1592595 L158.238374,72.716314 L162.658055,72.716314 L162.658055,58.6145084 C163.975385,58.2346778 165.556541,58.0328928 167.400923,58.0085599 L167.400923,54.255952 C165.831759,54.2802849 164.251203,54.4707937 162.658055,54.8286653 C161.064907,55.1871305 160.004807,55.4631012 159.477755,55.6565774 L159.477755,55.6565774 Z" id="Fill-7" fill-opacity="0.5"></path>
                <path d="M106.968,34.835 C105.809,36.165 104.021,36.829 101.604,36.829 C99.187,36.829 97.395,36.165 96.226,34.835 C95.056,33.507 94.472,30.94 94.472,27.135 C94.472,23.329 95.056,20.757 96.226,19.418 C97.395,18.081 99.187,17.411 101.604,17.411 C104.021,17.411 105.809,18.081 106.968,19.418 C108.126,20.757 108.706,23.329 108.706,27.135 C108.706,30.94 108.126,33.507 106.968,34.835 L106.968,34.835 Z M101.589,11.357 C96.925,11.357 93.343,12.716 90.847,15.434 C88.349,18.15 87.101,22.046 87.101,27.12 C87.101,32.194 88.349,36.089 90.847,38.808 C93.343,41.524 96.925,42.882 101.589,42.882 C106.253,42.882 109.835,41.524 112.332,38.808 C114.829,36.089 116.077,32.194 116.077,27.12 C116.077,22.046 114.829,18.15 112.332,15.434 C109.835,12.716 106.253,11.357 101.589,11.357 L101.589,11.357 Z M184.15,31.733 C184.15,34.831 182.312,36.38 178.636,36.38 L178.575,36.38 C174.72,36.38 172.792,34.741 172.792,31.464 C172.812,28.809 175.13,27.48 179.745,27.48 C180.963,27.499 182.432,27.629 184.15,27.869 L184.15,31.733 Z M188.045,14.639 C185.728,12.412 182.382,11.298 178.007,11.298 C174.571,11.298 171.445,11.867 168.627,13.005 L168.627,18.969 C171.164,17.932 174.151,17.411 177.587,17.411 C181.922,17.411 184.09,19.339 184.09,23.193 C182.173,22.915 180.374,22.774 178.696,22.774 C176.359,22.774 174.331,23.04 172.613,23.568 C170.894,24.099 169.595,24.732 168.718,25.472 C167.838,26.211 167.144,27.069 166.634,28.049 C166.125,29.027 165.811,29.842 165.691,30.491 C165.572,31.14 165.511,31.774 165.511,32.394 C165.511,35.312 166.575,37.788 168.702,39.825 C170.829,41.864 174.141,42.882 178.636,42.882 C183.011,42.882 186.251,41.868 188.361,39.841 C190.468,37.815 191.522,35.39 191.522,32.573 L191.522,24.302 C191.522,20.088 190.363,16.867 188.045,14.639 L188.045,14.639 Z M134.668,25.007 C133.239,24.378 131.806,23.879 130.368,23.509 C128.929,23.14 127.71,22.71 126.712,22.221 C125.713,21.731 125.214,21.058 125.214,20.198 C125.214,18.48 126.972,17.621 130.488,17.621 C133.125,17.621 135.482,18.11 137.56,19.089 L137.56,13.485 C135.023,12.027 132.236,11.298 129.199,11.298 C125.963,11.298 123.261,12.122 121.093,13.77 C118.925,15.418 117.842,17.78 117.842,20.856 C117.842,22.814 118.347,24.437 119.355,25.727 C120.364,27.016 121.582,27.939 123.011,28.498 C124.439,29.059 125.867,29.541 127.296,29.951 C128.724,30.362 129.944,30.841 130.952,31.39 C131.96,31.94 132.466,32.663 132.466,33.563 C132.466,34.542 132.146,35.274 131.506,35.765 C130.867,36.255 129.489,36.499 127.371,36.499 C124.294,36.499 121.407,35.599 118.711,33.802 L118.711,40.364 C121.667,42.042 124.904,42.882 128.419,42.882 C131.856,42.882 134.618,42.034 136.705,40.335 C138.793,38.638 139.837,36.499 139.837,33.923 C139.837,31.606 139.332,29.696 138.322,28.198 C137.315,26.7 136.096,25.638 134.668,25.007 L134.668,25.007 Z M76.587,34.169 C75.647,35.763 74.009,36.56 71.672,36.56 C67.996,36.56 66.158,35.456 66.158,33.253 L66.158,17.562 C67.536,17.223 69.124,17.051 70.923,17.051 C73.22,17.051 74.974,17.737 76.182,19.11 C77.39,20.482 77.995,22.893 77.995,26.339 C77.995,29.966 77.526,32.577 76.587,34.169 L76.587,34.169 Z M71.193,11.298 C69.594,11.298 67.916,11.457 66.158,11.776 L66.158,0 L58.786,0 L58.786,32.56 C58.786,35.401 59.84,37.831 61.947,39.851 C64.056,41.872 67.297,42.882 71.672,42.882 C72.687,42.882 73.696,42.802 74.7,42.642 C75.704,42.481 76.888,42.062 78.25,41.382 C79.614,40.7 80.781,39.819 81.756,38.739 C82.732,37.659 83.575,36.073 84.292,33.981 C85.009,31.89 85.366,29.472 85.366,26.73 C85.366,21.746 84.143,17.927 81.697,15.275 C79.249,12.623 75.748,11.298 71.193,11.298 L71.193,11.298 Z M158.338,25.007 C156.909,24.378 155.476,23.879 154.037,23.509 C152.599,23.14 151.381,22.71 150.382,22.221 C149.382,21.731 148.883,21.058 148.883,20.198 C148.883,18.48 150.641,17.621 154.157,17.621 C156.794,17.621 159.151,18.11 161.23,19.089 L161.23,13.485 C158.693,12.027 155.906,11.298 152.868,11.298 C149.632,11.298 146.93,12.122 144.763,13.77 C142.595,15.418 141.512,17.78 141.512,20.856 C141.512,22.814 142.016,24.437 143.025,25.727 C144.034,27.016 145.252,27.939 146.681,28.498 C148.109,29.059 149.536,29.541 150.966,29.951 C152.394,30.362 153.613,30.841 154.621,31.39 C155.63,31.94 156.134,32.663 156.134,33.563 C156.134,34.542 155.815,35.274 155.176,35.765 C154.536,36.255 153.157,36.499 151.041,36.499 C147.964,36.499 145.077,35.599 142.381,33.802 L142.381,40.364 C145.337,42.042 148.572,42.882 152.089,42.882 C155.525,42.882 158.288,42.034 160.375,40.335 C162.462,38.638 163.507,36.499 163.507,33.923 C163.507,31.606 163.002,29.696 161.993,28.198 C160.984,26.7 159.766,25.638 158.338,25.007 L158.338,25.007 Z M17.335,35.226 C16.087,36.614 14.275,37.308 11.898,37.308 C10.578,37.308 9.07,37.19 7.372,36.948 L7.372,20.978 C7.372,18.779 9.21,17.681 12.886,17.681 C15.224,17.681 16.861,18.48 17.8,20.078 C18.739,21.676 19.208,24.273 19.208,27.869 C19.208,31.386 18.583,33.837 17.335,35.226 L17.335,35.226 Z M23.015,15.493 C22.034,14.415 20.861,13.536 19.493,12.856 C18.124,12.177 16.936,11.757 15.927,11.598 C14.918,11.438 13.905,11.357 12.886,11.357 C8.511,11.357 5.27,12.372 3.161,14.398 C1.054,16.427 0,18.85 0,21.665 L0,53.759 L7.372,53.759 L7.372,42.462 C9.01,42.821 10.688,43.001 12.406,43.001 C16.981,43.001 20.497,41.663 22.954,38.985 C25.411,36.31 26.64,32.474 26.64,27.48 C26.64,24.743 26.28,22.331 25.562,20.243 C24.843,18.154 23.992,16.571 23.015,15.493 L23.015,15.493 Z M41.889,33.144 L35.027,11.776 L27.206,11.776 L38.204,40.815 C36.386,45.769 34.417,48.247 32.301,48.247 C31.161,48.247 30.003,47.995 28.823,47.497 L28.823,53.64 C30.403,54.198 31.95,54.48 33.468,54.48 C35.527,54.48 37.514,53.704 39.433,52.157 C41.351,50.606 43.128,47.606 44.767,43.151 L56.423,11.776 L48.632,11.776 L41.889,33.144 Z" id="Fill-9"></path>
            </g>
        </g>
    </g>
</svg>