<?xml version="1.0" encoding="UTF-8" standalone="no"?>
<svg width="167px" height="38px" viewBox="0 0 167 38" version="1.1" xmlns="http://www.w3.org/2000/svg" xmlns:xlink="http://www.w3.org/1999/xlink">
    <!-- Generator: Sketch 3.7.1 (28215) - http://www.bohemiancoding.com/sketch -->
    <title>scifabric-logo</title>
    <desc>Created with Sketch.</desc>
    <defs></defs>
    <g id="Super-Gluten-tablet" stroke="none" stroke-width="1" fill="none" fill-rule="evenodd">
        <g id="iPad-Landscape-Copy-4" transform="translate(-603.000000, -1016.000000)" fill="#1879A0">
            <g id="Group-6" transform="translate(176.000000, 956.000000)">
                <g id="Group" transform="translate(345.000000, 0.000000)">
                    <path d="M167.512775,88.1895356 C167.512775,90.8623762 165.926504,92.198365 162.754825,92.198365 L162.702179,92.198365 C159.375153,92.198365 157.711209,90.7847025 157.711209,87.9565143 C157.727606,85.6634122 159.729,84.5172926 163.711075,84.5172926 C164.76226,84.5345534 166.030069,84.6476119 167.512775,84.8538789 L167.512775,88.1895356 Z M162.211109,70.5515495 C159.245697,70.5515495 156.546965,71.0426204 154.116639,72.025625 L154.116639,77.1728065 C156.306176,76.2761061 158.883219,75.8273243 161.849494,75.8273243 C165.589917,75.8273243 167.460992,77.492132 167.460992,80.8191583 C165.805678,80.5783697 164.254792,80.4566808 162.805745,80.4566808 C160.788816,80.4566808 159.03943,80.6853868 157.556724,81.141936 C156.073155,81.5984851 154.952064,82.1473797 154.19345,82.7843046 C153.434836,83.4238186 152.835885,84.1643085 152.395734,85.0092265 C151.957309,85.8532814 151.68545,86.5557974 151.582748,87.1167746 C151.47832,87.6760257 151.425675,88.2249204 151.425675,88.7582802 C151.425675,91.2766363 152.344814,93.4143909 154.181367,95.1732702 C156.01792,96.9312864 158.874589,97.809 162.754825,97.809 C166.52977,97.809 169.327752,96.9356017 171.146181,95.1853528 C172.96461,93.435967 173.875119,91.3448166 173.875119,88.9136277 L173.875119,81.7754087 C173.875119,78.1385504 172.874854,75.3586926 170.875186,73.4349723 C168.874655,71.5138412 165.986917,70.5515495 162.211109,70.5515495 L162.211109,70.5515495 Z M242.397189,76.0603456 C244.690291,76.0603456 246.879828,76.4832361 248.964938,77.327291 L248.964938,72.025625 C246.464705,71.0426204 243.923047,70.5515495 241.337374,70.5515495 C237.319051,70.5515495 234.233676,71.7244234 232.077798,74.0693081 C229.921919,76.4133297 228.844843,79.7930016 228.844843,84.2074606 C228.844843,88.5856718 229.921919,91.9472198 232.077798,94.2929675 C234.233676,96.6387153 237.319051,97.809 241.337374,97.809 C243.923047,97.809 246.464705,97.3187922 248.964938,96.3357876 L248.964938,91.0349846 C246.7754,91.9135612 244.586726,92.3537125 242.397189,92.3537125 C239.965137,92.3537125 238.158791,91.7884201 236.978149,90.6586983 C235.796645,89.5315657 235.206325,87.3800024 235.206325,84.2074606 C235.206325,80.9995341 235.796645,78.8410664 236.978149,77.7294685 C238.158791,76.6170076 239.965137,76.0603456 242.397189,76.0603456 L242.397189,76.0603456 Z M192.518549,90.2919056 C191.70729,91.6667312 190.293627,92.3537125 188.277561,92.3537125 C185.10502,92.3537125 183.518749,91.4026404 183.518749,89.4996332 L183.518749,75.9585067 C184.70802,75.6642094 186.079394,75.5166293 187.63028,75.5166293 C189.612687,75.5166293 191.125599,76.110402 192.169017,77.2944954 C193.211572,78.4785889 193.733712,80.5585197 193.733712,83.5325619 C193.733712,86.6628146 193.328945,88.9170799 192.518549,90.2919056 L192.518549,90.2919056 Z M187.863301,70.5515495 C186.483297,70.5515495 185.035976,70.6904993 183.518749,70.9658096 L183.518749,60.8026289 L177.157267,60.8026289 L177.157267,88.9015452 C177.157267,91.353447 178.06605,93.4506387 179.884479,95.1948463 C181.702909,96.9381908 184.501753,97.809 188.277561,97.809 C189.151823,97.809 190.023495,97.7416827 190.889989,97.602733 C191.757346,97.4637833 192.778325,97.1013057 193.954651,96.5153003 C195.130977,95.9275688 196.138146,95.1672289 196.979612,94.2342807 C197.821078,93.3030585 198.550348,91.9334111 199.170012,90.1279276 C199.787087,88.3224441 200.096056,86.236472 200.096056,83.8708743 C200.096056,79.5694737 199.039693,76.2735169 196.928693,73.98473 C194.816829,71.695943 191.79532,70.5515495 187.863301,70.5515495 L187.863301,70.5515495 Z M219.124403,97.396466 L225.459993,97.396466 L225.459993,70.9658096 L219.124403,70.9658096 L219.124403,97.396466 Z M152.050517,70.9658096 L145.972976,70.9658096 C145.972976,68.6727075 146.335454,67.1304517 147.059546,66.3373162 C147.783638,65.5441808 148.973773,65.1471815 150.629087,65.1471815 C150.938919,65.1471815 151.413592,65.1817032 152.050517,65.2507466 L152.050517,60.2589126 C151.171077,60.0863042 150.308899,60 149.464844,60 C142.930754,60 139.645154,63.6549822 139.611495,70.9658096 L135.111595,70.9658096 L135.111595,76.4228232 L139.611495,76.4228232 L139.611495,97.396466 L145.972976,97.396466 L145.972976,76.4228232 L152.050517,76.4228232 L152.050517,70.9658096 Z M96.521542,82.3838532 C95.2891183,81.8409999 94.0523793,81.410342 92.8104621,81.0910165 C91.5694079,80.771691 90.5173599,80.4014461 89.6560442,79.9785556 C88.7930023,79.5556651 88.3632075,78.9739749 88.3632075,78.2326219 C88.3632075,76.749916 89.879572,76.0085631 92.9140271,76.0085631 C95.1898685,76.0085631 97.2240581,76.4314536 99.0183221,77.2755085 L99.0183221,72.4398851 C96.8279219,71.1815701 94.4234873,70.5515495 91.8015662,70.5515495 C89.0087628,70.5515495 86.6776868,71.262696 84.8066121,72.684989 C82.9355374,74.108145 82,76.1466498 82,78.8022295 C82,80.4912024 82.4358361,81.8919193 83.3066453,83.0043803 C84.1765915,84.1168412 85.2277765,84.9134288 86.4610633,85.3967322 C87.6943501,85.8791726 88.9259108,86.2977479 90.1600606,86.650732 C91.3924844,87.0054422 92.4445324,87.4179762 93.3144785,87.8917862 C94.1852877,88.3664592 94.6211239,88.9921646 94.6211239,89.7680392 C94.6211239,90.6120941 94.3449505,91.2455668 93.7926037,91.6675943 C93.24112,92.0913478 92.0509853,92.30193 90.2239257,92.30193 C87.569209,92.30193 85.0776072,91.5251924 82.7499834,89.9743062 L82.7499834,95.6375867 C85.3019981,97.086634 88.0948015,97.809 91.1292566,97.809 C94.0946684,97.809 96.4783899,97.0780036 98.2795582,95.6125585 C100.08159,94.1462504 100.982605,92.30193 100.982605,90.0778712 C100.982605,88.0782032 100.546769,86.4306564 99.6759599,85.1378197 C98.8060138,83.844983 97.7539658,82.9267065 96.521542,82.3838532 L96.521542,82.3838532 Z M125.82958,97.396466 L132.166033,97.396466 L132.166033,70.9658096 L125.82958,70.9658096 L125.82958,97.396466 Z M106.151363,74.0693081 C103.996347,76.4133297 102.919271,79.7930016 102.919271,84.2074606 C102.919271,88.5856718 103.996347,91.9472198 106.151363,94.2929675 C108.307241,96.6387153 111.393479,97.809 115.410939,97.809 C117.996612,97.809 120.539996,97.3187922 123.040229,96.3357876 L123.040229,91.0349846 C120.850692,91.9135612 118.661154,92.3537125 116.470754,92.3537125 C114.040428,92.3537125 112.233219,91.7884201 111.053441,90.6586983 C109.871936,89.5315657 109.281616,87.3800024 109.281616,84.2074606 C109.281616,80.9995341 109.871936,78.8410664 111.053441,77.7294685 C112.233219,76.6170076 114.040428,76.0603456 116.470754,76.0603456 C118.763856,76.0603456 120.953393,76.4832361 123.040229,77.327291 L123.040229,72.025625 C120.539996,71.0426204 117.996612,70.5515495 115.410939,70.5515495 C111.393479,70.5515495 108.307241,71.7244234 106.151363,74.0693081 L106.151363,74.0693081 Z M205.032656,72.5883283 C204.273179,72.870543 203.678543,73.1139208 203.248748,73.3193247 L203.248748,97.396466 L209.61023,97.396466 L209.61023,76.8897288 C211.506333,76.337382 213.782174,76.0439478 216.436891,76.0085631 L216.436891,70.5515495 C214.17831,70.5869343 211.903332,70.8639707 209.61023,71.3843849 C207.317127,71.9056622 205.791269,72.3069766 205.032656,72.5883283 L205.032656,72.5883283 Z" id="scifabric-logo"></path>
                </g>
            </g>
        </g>
    </g>
</svg>