<?xml version="1.0" encoding="UTF-8" standalone="no"?>
<svg width="201px" height="156px" viewBox="0 0 201 156" version="1.1" xmlns="http://www.w3.org/2000/svg" xmlns:xlink="http://www.w3.org/1999/xlink">
    <!-- Generator: Sketch 3.7.1 (28215) - http://www.bohemiancoding.com/sketch -->
    <title>trigo-si-o-no</title>
    <desc>Created with Sketch.</desc>
    <defs></defs>
    <g id="Super-Gluten-tablet" stroke="none" stroke-width="1" fill="none" fill-rule="evenodd">
        <g id="Mr-Allegen-home" transform="translate(-77.000000, -170.000000)">
            <g id="trigo-si-o-no" transform="translate(77.000000, 170.000000)">
                <g id="mr">
                    <g id="Group-12">
                        <polyline id="Fill-31" fill="#774E32" points="82.8386549 22.3992131 79.3495221 25.491082 80.3401062 23.2457049 82.8386549 22.3992131"></polyline>
                        <path d="M80.1532035,13.8166557 C80.1532035,13.8166557 79.4625133,18.2153443 78.2043186,19.8836066 L78.6138053,16.3714754 L80.1532035,13.8166557" id="Fill-32" fill="#774E32"></path>
                        <path d="M75.7975221,7.79232787 C75.7975221,7.79232787 78.5407434,10.9583607 76.2333451,14.7910164 L75.8790796,11.9088525 L75.7975221,7.79232787" id="Fill-33" fill="#774E32"></path>
                        <g id="Group-11">
                            <path d="M60.1893343,118.164807 C60.1893343,118.164807 61.1444913,119.621067 62.0413275,120.478468 C62.3192219,120.744143 62.5915166,120.95232 62.82806,121.041856 C63.8279892,121.420348 64,125 64,125 C64,125 60.1901593,143.351148 58,142 C55.8098407,140.648852 54,123 54,123" id="Fill-2" fill="#E3BC96"></path>
                            <path d="M13.5929204,125.311475 C13.5929204,125.311475 12.7433628,127.868852 15.2920354,134.688525 C17.840708,141.508197 18.6902655,141.508197 18.6902655,141.508197 L25.4867257,136.393443 L17.840708,121.04918 L13.5929204,125.311475 Z" id="Path-2338" stroke="#D3A784" fill="#E3BC96"></path>
                            <path d="M36.4783009,155.72977 C30.9655221,155.653049 25.5020177,155.643672 20.1030796,154.929311 C20.0538053,151.968721 20.1200708,151.392459 20.1200708,151.392459 L59.5854159,151.800787 C59.5854159,151.800787 59.7018053,152.568 59.8088496,153.778492 C52.0056637,154.239672 44.3503009,155.838033 36.4783009,155.72977" id="Fill-12" fill="#466D89"></path>
                            <g id="Group-10" transform="translate(11.044248, 108.262295)">
                                <path d="M7.57635398,0.125311475 C7.57635398,0.125311475 3.00913274,2.65285246 0.017840708,17.0611148 L10.8547965,22.7231475 L7.57635398,0.125311475" id="Fill-14" fill="#365370"></path>
                                <path d="M5.08375221,15.8011803 C5.05146903,11.0589508 5.59348673,6.36786885 5.99787611,1.65462295 C6.94428319,0.475672131 7.57635398,0.125311475 7.57635398,0.125311475 L10.8547965,22.7231475 L5.15341593,19.7446557 C5.1219823,18.4301639 5.09224779,17.1156721 5.08375221,15.8011803" id="Fill-15" fill="#2E4B63"></path>
                            </g>
                            <path d="M61.1995752,109.327016 C61.1995752,109.327016 64.5825133,111.677246 67.6026903,123.773639 L57.7622655,128.306164 C57.7622655,128.306164 54.668177,113.41541 61.1995752,109.327016" id="Fill-16" fill="#365370"></path>
                            <path d="M61.1995752,109.327016 C61.1995752,109.327016 61.8622301,109.789049 62.8621593,111.348197 C61.0772389,113.228721 60.5428673,116.326557 60.2896991,118.793574 C60.0042478,121.577705 60.2098407,124.293639 60.6244248,126.988262 L57.7622655,128.306164 C57.7622655,128.306164 54.668177,113.41541 61.1995752,109.327016" id="Fill-17" fill="#2E4B63"></path>
                            <path d="M59.8071504,107.914492 C60.5284248,108.392721 62.075469,110.238295 62.075469,110.238295 C62.075469,110.238295 61.299823,111.251016 61.0092743,111.748852 C58.1751504,116.588262 59.0085664,121.056 58.5914336,130.032393 C58.0230796,142.222557 60.2302301,152.617443 60.2302301,152.617443 C60.2302301,152.617443 49.092531,156.826885 19.3333805,153.434951 C19.3333805,153.434951 15.7287079,110.124066 18.4838229,107.914492 C20.9643484,105.925136 21.2389379,104 32.0234867,102.865981 C42.8080355,101.731961 34.6806156,102.923318 36.2429735,103.017115 L42.019115,105.138033 L47.4027611,102.879016 C47.4027611,102.879016 52.9886018,103.375148 59.8071504,107.914492 Z" id="Fill-18" fill="#EEEEEE"></path>
                            <path d="M45.6195398,111.099279 C42.5296991,112.880066 42.9663717,108.532525 42.0870796,106.711672 C41.9953274,106.523279 41.7056283,106.461902 41.5408142,106.578689 C40.6555752,107.198426 40.2078584,108.174492 39.803469,109.152262 C39.3939823,110.136852 38.4713628,113.177574 36.9285664,111.513574 C35.224354,109.676525 35.6567788,106.493443 33.9092389,104.799607 C31.8414159,102.798033 30.8916108,103.225967 29.7345134,103.147541 C31.0009421,102.926599 34.8375141,102.508534 36.5309736,102.295082 C38.0717697,102.100873 34.8004207,102.941643 38.2300887,103.147541 L42.019115,105.138033 L47.4027611,102.879016 C47.4027611,102.879016 50.6667611,103.17482 55.2484248,105.335803 C53.6427611,105.118426 51.6862301,104.910426 50.2836106,105.715148 C48.1410265,106.944393 47.727292,109.883672 45.6195398,111.099279 Z" id="Fill-20" fill="#D5D5D5"></path>
                            <path d="M44.7784779,100.913246 C44.7784779,100.913246 47.3959646,101.258492 48.0263363,103.040984 C48.6575575,104.82177 48.6286726,108.708984 44.0138761,111.191344 C44.0138761,111.191344 43.7020885,105.981115 42.3045664,104.947934 C42.3045664,104.947934 38.8698053,107.008328 38.244531,110.509377 C38.244531,110.509377 33.9015929,106.012656 37.1715398,101.064131 C40.4406372,96.1173115 44.7784779,100.913246 44.7784779,100.913246" id="Fill-21" fill="#365370"></path>
                            <path d="M81.1208496,62.6889836 C81.1208496,62.6889836 82.4869381,44.7251148 80.5575929,34.2688525 C80.5575929,34.2688525 83.187823,26.6427541 82.8386549,22.3992131 L80.3401062,23.2457049 C80.3401062,23.2457049 82.2142301,17.628 80.1532035,13.8166557 L78.6138053,16.3714754 C78.6138053,16.3714754 79.7020885,11.0359344 75.7975221,7.79232787 L75.8790796,11.9088525 C75.8790796,11.9088525 60.3185835,9.21091758e-10 42.4778755,0.852459017 C28.0353977,0.852459016 20.38938,5.967213 17.8407074,7.79232758 C13.6680199,10.7804057 8.49557506,17.90164 6.79646022,23.8688532 C5.09734538,29.8360663 4.46272566,42.8283934 4.46272566,42.8283934 C4.46272566,42.8283934 3.67773451,56.6612459 4.85182301,62.483541 L10.9915752,78.3043279 L67.3741593,77.179082 L75.1357168,74.6327869 L77.5586549,63.2908197 L81.1208496,62.6889836 L5.94690265,11.9344262" id="Fill-22" fill="#8E5C3A"></path>
                            <path d="M20.2228673,49.6898361 C20.2228673,49.6898361 19.4115398,43.7925246 22.3841416,41.8403934 C25.3567434,39.8874098 23.3976637,42.8505574 23.3976637,42.8505574 L20.2228673,49.6898361" id="Fill-23" fill="#774E32"></path>
                            <path d="M25.2182655,47.8621639 C25.2182655,47.8621639 24.4553628,42.7312131 28.2596814,41.0262951 C32.0656991,39.3222295 30.3929204,41.7815738 30.3929204,41.7815738 L25.2182655,47.8621639" id="Fill-24" fill="#774E32"></path>
                            <path d="M29.7183717,47.7726557 C29.7183717,47.7726557 30.9238938,41.796918 36.2064425,41.0987541 C41.4881416,40.4014426 26.0227965,53.4261639 26.0227965,53.4261639 L29.7183717,47.7726557" id="Fill-25" fill="#774E32"></path>
                            <path d="M49.4484956,39.5396066 C49.4484956,39.5396066 50.7211327,43.2614426 45.9338761,44.2605246 C41.1457699,45.260459 49.4484956,39.5396066 49.4484956,39.5396066" id="Fill-26" fill="#774E32"></path>
                            <path d="M63.0193274,40.3332459 C64.8926018,41.3442623 64.3811681,44.2664918 63.7737345,45.8299016 C63.4143717,46.7522623 62.1808142,47.6567213 61.7398938,48.3617049 C61.2989735,48.3088525 60.9039292,47.8672787 60.4681062,47.7948197 C61.891115,45.665377 62.496,42.7994098 63.0193274,40.3332459" id="Fill-27" fill="#774E32"></path>
                            <path d="M55.296,42.3467541 C56.2704425,41.3630164 55.8575575,39.5907541 56.1837876,39.8405246 C56.6858761,40.2258361 57.3578761,41.6068197 57.0061593,42.8104918 C56.655292,44.012459 54.2077168,46.5706885 51.7754336,46.6670164 C51.6335575,46.6729836 51.5358584,46.7403279 51.4746903,46.8306885 C51.3532035,46.8161967 51.2291681,46.8017049 51.1076814,46.7820984 C51.3362124,46.8179016 52.1364956,45.7830164 52.2945133,45.6057049 C52.6547257,45.2033443 52.9665133,44.7575082 53.3810973,44.4310164 C54.255292,43.7396721 54.5237522,43.1276066 55.296,42.3467541" id="Fill-28" fill="#774E32"></path>
                            <path d="M11.1691327,59.696 C11.8419823,61.6916066 12.2718584,64.9224262 14.4271858,65.9573115 C17.3878938,67.3775082 21.4385841,66.2045246 24.591292,66.1414426 C29.4261239,66.0451148 34.2669027,66.0161311 39.0932389,65.6521311 C48.4375221,64.948 57.7376283,63.4357377 67.0190442,62.1519344 C70.1861947,61.712918 72.428177,60.5552787 74.0143009,57.7643279 C74.9861947,56.0508852 76.0082124,54.4150164 78.0259115,53.851541 C79.1430796,53.5386885 80.4157168,53.3392131 81.5388319,53.6128525 C81.415646,58.8111475 81.1208496,62.6889836 81.1208496,62.6889836 L77.5586549,63.2908197 L75.1357168,74.6327869 L67.3741593,77.179082 L10.9915752,78.3043279 L4.85182301,62.483541 C4.42704425,60.3728525 4.2579823,57.209377 4.2180531,54.0348197 C6.53649558,56.0432131 10.0655575,56.4208525 11.1691327,59.696" id="Fill-30" fill="#774E32"></path>
                            <path d="M71.7969558,73.2398689 C71.7969558,73.2398689 74.7831504,56.8385574 77.0225841,56.2622951 C79.2620177,55.6851803 83.5055575,55.9997377 83.623646,61.9763279 C83.7425841,67.9512131 80.7529912,70.8018361 77.7786903,70.9944918 C77.7786903,70.9944918 76.5052035,96.9271475 64.6249912,98.757377 C52.7439292,100.589311 46.6610973,100.97718 46.6610973,100.97718 C46.6610973,100.97718 45.792,103.918164 41.9545487,103.99318 C38.1162478,104.069902 36.8512566,100.374492 36.8512566,100.374492 C36.8512566,100.374492 21.3086018,100.695869 16.7592212,97.5417705 C6.14824779,90.1867541 7.40049558,77.4467541 6.71660177,76.3982295 C6.03440708,75.3488525 -0.333876106,74.6788197 0.449415929,67.4883279 C1.23440708,60.2978361 4.23589381,58.1129836 6.624,58.3312131 C9.01125664,58.5494426 10.7783363,74.1912131 11.7094513,74.4384262 C12.6405664,74.6856393 15.3149735,75.960918 15.6726372,73.9601967 C16.0303009,71.9603279 17.308885,42.972459 17.308885,42.972459 C17.308885,42.972459 17.2502655,46.6925902 20.2228673,49.6898361 C20.2228673,49.6898361 21.1531327,43.1608525 23.3976637,42.8505574 C23.3976637,42.8505574 23.2116106,46.8400656 25.2182655,47.8621639 C25.2182655,47.8621639 26.2827611,41.464459 30.3929204,41.7815738 C30.3929204,41.7815738 27.0371681,46.0992787 29.7183717,47.7726557 C29.7183717,47.7726557 34.1012389,41.8037377 37.276885,41.6264262 C37.276885,41.6264262 35.4112566,47.7922623 36.8733451,48.0292459 C38.3337345,48.265377 41.6011327,45.0763279 48.2455221,40.6273443 C48.2455221,40.6273443 48.6957876,43.2759344 45.9338761,44.2605246 C45.9338761,44.2605246 48.7459115,45.8000656 55.296,42.3467541 C55.296,42.3467541 54.823646,45.147082 52.7311858,46.5169836 C52.7311858,46.5169836 60.9430088,46.6184262 62.7049912,41.9333115 C62.7049912,41.9333115 64.3369912,44.159082 62.023646,47.6601311 C62.023646,47.6601311 69.0095575,46.0592131 69.4428319,41.267541 C69.4428319,41.267541 71.932885,46.664459 69.5549735,73.6822951 C69.5549735,73.6822951 71.5505841,74.5415738 71.7969558,73.2398689" id="Fill-34" fill="#E3BC96"></path>
                            <path d="M3.06095575,73.9457049 C4.97585841,73.9874754 7.40304425,74.6319344 8.4199646,76.4374426 C9.29585841,77.9940328 9.65522124,89.2788852 15.987823,94.1728525 C23.0128142,99.6013115 36.1987965,99.0983607 37.4162124,99.4828197 C39.0397168,99.9977049 38.9700531,101.376131 40.2596814,102.045311 C40.8348319,102.343672 41.648708,102.114361 42.2467965,102.058951 C44.0393628,101.895279 44.2432566,100.455475 45.6781593,99.7436721 C47.9243894,98.632918 51.396531,99.0761967 53.8568496,98.840918 C56.5389027,98.5843279 59.2370973,98.2927869 61.8741239,97.7139672 C65.2901947,96.9646557 69.5158938,95.3961311 70.9346549,91.6214426 C72.783292,86.7078689 74.4042478,81.8445902 75.079646,76.6582295 C75.4050265,74.1673443 75.515469,70.3798689 78.748885,70.1343607 C79.4778053,70.0780984 80.1727434,69.9468197 80.8311504,69.7388197 C79.9068319,70.5085902 78.8423363,70.9245902 77.7786903,70.9944918 C77.7786903,70.9944918 76.5052035,96.9271475 64.6249912,98.757377 C52.7439292,100.589311 46.6610973,100.97718 46.6610973,100.97718 C46.6610973,100.97718 45.792,103.918164 41.9545487,103.99318 C38.1162478,104.069902 36.8512566,100.374492 36.8512566,100.374492 C36.8512566,100.374492 19.6315752,101.116131 14.5733097,96.4122623 C6.41330973,88.8228197 7.40049558,77.4467541 6.71660177,76.3982295 C6.34959292,75.8330492 4.33869027,75.3693115 2.67950442,73.9491148 C2.80438938,73.9448525 2.93182301,73.9422951 3.06095575,73.9457049" id="Fill-35" fill="#D3A784"></path>
                            <path d="M69.039292,44.1028197 C67.6349735,45.5136393 66.6248496,47.1000656 64.6547257,47.8272131 C64.039646,48.0556721 60.3389735,48.9780328 61.1791858,47.7624262 C61.764531,46.9167869 62.4135929,46.1197377 62.4688142,45.0592787 C62.4798584,44.8043934 62.1910088,44.604918 61.9573805,44.6850492 C59.1232566,45.6542951 56.5253097,47.1537705 53.4762478,47.331082 C53.147469,47.3498361 50.5903009,47.6055738 51.3115752,46.8511475 C51.7813805,46.3584262 52.283469,45.9040656 52.6870088,45.355082 C52.9019469,45.0643934 52.5332389,44.6816393 52.2282478,44.7796721 C51.0108319,45.1683934 49.8265487,45.667082 48.6031858,46.0353443 C47.8343363,46.2655082 47.0357522,46.5178361 46.2312212,46.5706885 C45.9330265,46.5902951 43.0224425,46.8767213 44.3791858,45.2033443 C44.7020177,44.8060984 44.188885,44.304 43.8074336,44.6509508 C41.959646,46.3302951 39.5706903,48.1562623 37.1061239,48.7674754 C33.5804602,49.639541 34.5701947,46.4104262 35.232,44.4131148 C35.3577345,44.0312131 34.8182655,43.7490492 34.5591504,44.0388852 C33.1089558,45.6687869 31.7658053,47.0906885 30.5364956,48.8791475 C28.6317876,51.647082 27.7745841,47.0608525 27.7270088,45.8512131 C27.7125664,45.4829508 27.1476106,45.2834754 26.9827965,45.665377 C26.7831504,46.1308197 26.6370265,46.5868852 26.503646,47.0770492 C26.3235398,47.7428197 25.6090619,50.5670164 23.9566726,48.7674754 C23.2209558,47.9653115 22.8225133,46.9900984 22.5506549,45.9483934 C22.4546549,45.5843934 21.8446726,45.5664918 21.784354,45.9637377 C21.651823,46.8579672 21.6781593,47.7053115 21.747823,48.6046557 C21.8854513,50.4016393 19.7029381,50.2916721 18.5441416,49.5679344 C17.9859823,49.2175738 17.4957876,48.7785574 17.0684602,48.2781639 C17.2145841,45.1206557 17.308885,42.972459 17.308885,42.972459 C17.308885,42.972459 17.2502655,46.6925902 20.2228673,49.6898361 C20.2228673,49.6898361 21.1531327,43.1608525 23.3976637,42.8505574 C23.3976637,42.8505574 23.2116106,46.8400656 25.2182655,47.8621639 C25.2182655,47.8621639 26.2827611,41.464459 30.3929204,41.7815738 C30.3929204,41.7815738 27.0371681,46.0992787 29.7183717,47.7726557 C29.7183717,47.7726557 34.1012389,41.8037377 37.276885,41.6264262 C37.276885,41.6264262 35.4112566,47.7922623 36.8733451,48.0292459 C38.3337345,48.265377 41.6011327,45.0763279 48.2455221,40.6273443 C48.2455221,40.6273443 48.6957876,43.2759344 45.9338761,44.2605246 C45.9338761,44.2605246 48.7459115,45.8000656 55.296,42.3467541 C55.296,42.3467541 54.823646,45.147082 52.7311858,46.5169836 C52.7311858,46.5169836 60.9430088,46.6184262 62.7049912,41.9333115 C62.7049912,41.9333115 64.3369912,44.159082 62.023646,47.6601311 C62.023646,47.6601311 69.0095575,46.0592131 69.4428319,41.267541 C69.4428319,41.267541 69.7078938,41.848918 69.9814513,43.5589508 C69.6203894,43.6356721 69.2576283,43.8854426 69.039292,44.1028197" id="Fill-36" fill="#D3A784"></path>
                            <path d="M71.7969558,73.2398689 C71.7969558,73.2398689 74.7831504,56.8385574 77.0225841,56.2622951 C78.7624779,55.8147541 81.7010973,55.9170492 82.9864779,58.7779016 C82.5362124,58.4872131 82.0332743,58.2800656 81.5065487,58.1641311 C79.4778053,56.9621639 77.443115,57.6867541 76.2121062,59.9866885 C75.3863363,61.5339016 75.1280708,63.2106885 74.9437168,64.8977049 C74.6582655,65.8976393 74.3821593,66.9026885 74.1510796,67.9128525 C73.7611327,69.6262951 73.4986195,71.7480656 72.4672566,73.2134426 C71.8819115,74.0445902 71.4902655,74.1502951 71.2209558,73.901377 C71.5004602,73.8144262 71.7247434,73.6217705 71.7969558,73.2398689" id="Fill-37" fill="#D3A784"></path>
                            <path d="M6.624,58.3312131 C9.01125664,58.5494426 10.7783363,74.1912131 11.7094513,74.4384262 C12.6405664,74.6856393 15.3149735,75.960918 15.6726372,73.9601967 C15.7057699,73.7726557 15.7473982,73.340459 15.7966726,72.7232787 C16.0702301,73.996 16.1738761,75.3062295 15.2453097,76.1135082 C15.056708,76.2763279 14.8519646,76.4076066 14.6395752,76.5226885 C12.2446726,77.0000656 11.1224071,75.567082 10.1046372,73.6055738 C9.17182301,70.1309508 9.08771681,66.0596066 7.65961062,62.6540328 C6.69026549,60.3447213 3.46874336,59.8349508 2.07971681,61.8961967 C1.94718584,62.0215082 1.81635398,62.1502295 1.68892035,62.2857705 C2.99129204,59.2058361 4.95631858,58.178623 6.624,58.3312131" id="Fill-38" fill="#D3A784"></path>
                            <path d="M67.2832566,58.7011803 L58.4053805,52.0127869 C58.4053805,52.0127869 60.96,47.5041311 66.1660885,51.2157377 C71.372177,54.9264918 67.2832566,58.7011803 67.2832566,58.7011803" id="Fill-43" fill="#8E5C3A"></path>
                            <path d="M30.543292,54.245377 L20.5524956,58.448 C20.5524956,58.448 18.5696283,54.2419672 22.8930265,51.8661639 C27.2172743,49.4912131 30.543292,54.245377 30.543292,54.245377" id="Fill-44" fill="#8E5C3A"></path>
                            <path d="M21.696,63.2550164 C21.7546195,66.186623 24.1699115,68.515541 27.0923894,68.4567213 C30.0123186,68.3987541 32.3350088,65.9760656 32.2763894,63.0436066 C32.219469,60.1102951 29.8016283,57.781377 26.8816991,57.8393443 C23.9600708,57.8981639 21.6382301,60.3217049 21.696,63.2550164" id="Fill-45" fill="#47413E"></path>
                            <path d="M27.2393628,62.3173115 C27.9326018,63.4340328 29.1347257,63.9403934 29.9248142,63.4459672 C30.712354,62.9540984 30.7913628,61.6498361 30.0981239,60.5305574 C29.404885,59.4138361 28.2036106,58.9091803 27.4152212,59.4010492 C26.6259823,59.8954754 26.5461239,61.2014426 27.2393628,62.3173115" id="Fill-46" fill="#FFFFFF"></path>
                            <path d="M53.3131327,62.0905574 C53.3709027,65.0230164 55.7870442,67.3519344 58.7095221,67.2931148 C61.6303009,67.2351475 63.9529912,64.812459 63.8943717,61.8791475 C63.8366018,58.9466885 61.4204602,56.6177705 58.4988319,56.6757377 C55.5755044,56.7345574 53.2545133,59.1580984 53.3131327,62.0905574" id="Fill-47" fill="#47413E"></path>
                            <path d="M58.8564956,61.1528525 C59.5480354,62.2695738 60.7518584,62.7776393 61.5419469,62.2823607 C62.3294867,61.7904918 62.4093451,60.485377 61.7161062,59.3678033 C61.0211681,58.251082 59.8215929,57.7455738 59.0315044,58.2382951 C58.2422655,58.7318689 58.1624071,60.0369836 58.8564956,61.1528525" id="Fill-48" fill="#FFFFFF"></path>
                            <path d="M50.2734159,58.2911475 C50.2734159,58.2911475 53.4142301,75.8177049 48.8750442,79.3417705 C44.3358584,82.8658361 37.8996106,82.3637377 34.6050265,78.1551475 C31.3087434,73.9465574 33.4768142,63.5559344 35.7111504,59.9952131 C37.9446372,56.4344918 46.7987257,52.1236066 50.2734159,58.2911475" id="Fill-49" fill="#D3A784"></path>
                            <path d="M49.5037168,57.3415082 C49.5037168,57.3415082 52.4814159,73.9559344 48.1792566,77.2958689 C43.8753982,80.6366557 37.7747257,80.1618361 34.6517522,76.1714754 C31.5253805,72.1811148 33.5830088,62.3326557 35.7001062,58.956918 C37.8172035,55.5820328 46.2099823,51.4953443 49.5037168,57.3415082" id="Fill-50" fill="#E3BC96"></path>
                            <path d="M26.0058053,79.6963934 C26.0058053,79.6963934 24.775646,77.6496393 23.3789735,77.8431475 C21.9814513,78.0375082 22.0009912,78.8089836 21.6254867,79.331541 C21.2491327,79.8532459 20.6060177,79.2965902 20.7224071,78.5728525 C20.8379469,77.8482623 21.4827611,76.0043934 23.9507257,76.5908852 C26.4169912,77.1782295 26.7126372,79.0613115 26.7126372,79.0613115 C26.7126372,79.0613115 26.7602124,80.2223607 26.0058053,79.6963934" id="Fill-51" fill="#D3A784"></path>
                            <path d="M60.0764602,80.455082 C60.0764602,80.455082 59.8853097,96.2451803 39.699823,95.128459 C19.5151858,94.0125902 23.2923186,80.5522623 23.2923186,80.5522623 C23.2923186,80.5522623 23.7689204,79.3332459 24.4825487,80.5283934 C25.196177,81.7252459 24.2310796,85.2032787 26.1621239,87.7291148 C28.0940177,90.2549508 32.0283186,94.2009836 40.2987611,93.8165246 C48.5675044,93.4312131 56.6722832,90.8977049 58.5956814,80.484918 C58.5956814,80.484918 59.3934159,78.7638033 60.0764602,80.455082" id="Fill-52" fill="#D3A784"></path>
                            <path d="M6.31561062,70.939082 C6.31561062,70.939082 7.75900885,63.367541 4.60290265,64.988918 C2.6659115,65.9820328 2.78909735,68.432 3.81026549,69.8010492 C4.45338053,70.6594754 5.5119292,71.1104262 6.31561062,70.939082" id="Fill-53" fill="#D3A784"></path>
                            <path d="M6.31476106,70.844459 L6.5840708,68.9008525 C6.5840708,68.9008525 2.76106195,65.5464262 3.18329204,68.4089836 C3.60552212,71.2732459 6.31476106,70.844459 6.31476106,70.844459" id="Fill-54" fill="#C4987A"></path>
                        </g>
                        <path d="M77.4541593,67.2658361 C77.4541593,67.2658361 77.3581593,59.5587541 80.1820885,61.7095082 C81.9134867,63.0282623 81.3646726,65.4185574 80.1192212,66.5872787 C79.3350796,67.3186885 78.2153628,67.5761311 77.4541593,67.2658361" id="Fill-55" fill="#D3A784"></path>
                        <path d="M77.4711504,67.172918 L77.5459115,65.2122623 C77.5459115,65.2122623 81.8964956,62.5824262 80.9789735,65.3273443 C80.064,68.0731148 77.4711504,67.172918 77.4711504,67.172918" id="Fill-56" fill="#C4987A"></path>
                    </g>
                </g>
                <g id="Group-3" transform="translate(94.000000, 10.000000)">
                    <g id="no-gluten" transform="translate(24.000000, 0.000000)">
                        <path d="M9.35076563,10.8485979 L52.5513135,54.2553437" id="Line" stroke="#DC5465" stroke-width="3.20000005" stroke-linecap="square"></path>
                        <ellipse id="Oval-265" stroke="#DC5465" stroke-width="3.20000005" cx="31.5" cy="32" rx="31.4848621" ry="31.6351406"></ellipse>
                        <g id="j45" transform="translate(11.164557, 12.400000)">
                            <g id="Page-1">
                                <g>
                                    <g id="j45">
                                        <path d="M32.3632253,6.82367568 L30.8940152,7.23232432 C29.1714152,7.49037838 27.8179975,8.85178378 27.5616,10.5862703 L27.1555747,12.064973 L28.6247848,11.6563243 C30.3481367,11.3982703 31.7008025,10.0368649 31.9579519,8.30237838 L32.3632253,6.82367568 L32.3632253,6.82367568 L32.3632253,6.82367568 Z" id="Fill-283" fill="#F9D70B"></path>
                                        <path d="M32.3632253,6.82367568 L30.8940152,7.23232432 C29.1714152,7.49037838 27.8179975,8.85178378 27.5616,10.5862703 L27.1555747,12.064973 L28.6247848,11.6563243 C30.3481367,11.3982703 31.7008025,10.0368649 31.9579519,8.30237838 L32.3632253,6.82367568 L32.3632253,6.82367568 L32.3632253,6.82367568 Z" id="Stroke-284" stroke="#EEAF4B" stroke-width="1.60000002"></path>
                                        <path d="M23.8780481,4.70475676 L23.1261494,6.03891892 C22.0885291,7.448 22.0885291,9.37318919 23.1261494,10.7822703 L23.8780481,12.1164324 L24.6299468,10.7822703 C25.6668152,9.37318919 25.6668152,7.448 24.6299468,6.03891892 L23.8780481,4.70475676 L23.8780481,4.70475676 L23.8780481,4.70475676 Z" id="Fill-285" fill="#F9D70B"></path>
                                        <path d="M23.8780481,4.70475676 L23.1261494,6.03891892 C22.0885291,7.448 22.0885291,9.37318919 23.1261494,10.7822703 L23.8780481,12.1164324 L24.6299468,10.7822703 C25.6668152,9.37318919 25.6668152,7.448 24.6299468,6.03891892 L23.8780481,4.70475676 L23.8780481,4.70475676 L23.8780481,4.70475676 Z" id="Stroke-286" stroke="#EEAF4B" stroke-width="1.60000002"></path>
                                        <path d="M34.4324506,15.3273514 L33.1068532,14.5705946 C31.7068177,13.527027 29.7932354,13.527027 28.3932,14.5705946 L27.0676025,15.3273514 L28.3932,16.0841081 C29.7932354,17.1276757 31.7068177,17.1276757 33.1068532,16.0841081 L34.4324506,15.3273514 L34.4324506,15.3273514 L34.4324506,15.3273514 Z" id="Fill-287" fill="#F9D70B"></path>
                                        <path d="M34.4324506,15.3273514 L33.1068532,14.5705946 C31.7068177,13.527027 29.7932354,13.527027 28.3932,14.5705946 L27.0676025,15.3273514 L28.3932,16.0841081 C29.7932354,17.1276757 31.7068177,17.1276757 33.1068532,16.0841081 L34.4324506,15.3273514 L34.4324506,15.3273514 L34.4324506,15.3273514 Z" id="Stroke-288" stroke="#EEAF4B" stroke-width="1.60000002"></path>
                                        <path d="M19.0929646,9.52075676 L18.3410658,10.8549189 C17.3034456,12.264 17.3034456,14.1891892 18.3410658,15.5982703 L19.0929646,16.9324324 L19.8448633,15.5982703 C20.8817316,14.1891892 20.8817316,12.264 19.8448633,10.8549189 L19.0929646,9.52075676 L19.0929646,9.52075676 L19.0929646,9.52075676 Z" id="Fill-289" fill="#F9D70B"></path>
                                        <path d="M19.0929646,9.52075676 L18.3410658,10.8549189 C17.3034456,12.264 17.3034456,14.1891892 18.3410658,15.5982703 L19.0929646,16.9324324 L19.8448633,15.5982703 C20.8817316,14.1891892 20.8817316,12.264 19.8448633,10.8549189 L19.0929646,9.52075676 L19.0929646,9.52075676 L19.0929646,9.52075676 Z" id="Stroke-290" stroke="#EEAF4B" stroke-width="1.60000002"></path>
                                        <path d="M29.6473671,20.1433514 L28.3217696,19.3865946 C26.9217342,18.343027 25.0081519,18.343027 23.6081165,19.3865946 L22.282519,20.1433514 L23.6081165,20.9001081 C25.0081519,21.9436757 26.9217342,21.9436757 28.3217696,20.9001081 L29.6473671,20.1433514 L29.6473671,20.1433514 L29.6473671,20.1433514 Z" id="Fill-291" fill="#F9D70B"></path>
                                        <path d="M29.6473671,20.1433514 L28.3217696,19.3865946 C26.9217342,18.343027 25.0081519,18.343027 23.6081165,19.3865946 L22.282519,20.1433514 L23.6081165,20.9001081 C25.0081519,21.9436757 26.9217342,21.9436757 28.3217696,20.9001081 L29.6473671,20.1433514 L29.6473671,20.1433514 L29.6473671,20.1433514 Z" id="Stroke-292" stroke="#EEAF4B" stroke-width="1.60000002"></path>
                                        <path d="M14.307881,14.3367568 L13.5559823,15.6709189 C12.518362,17.08 12.518362,19.0051892 13.5559823,20.4142703 L14.307881,21.7484324 L15.0597797,20.4142703 C16.0966481,19.0051892 16.0966481,17.08 15.0597797,15.6709189 L14.307881,14.3367568 L14.307881,14.3367568 L14.307881,14.3367568 Z" id="Fill-293" fill="#F9D70B"></path>
                                        <path d="M14.307881,14.3367568 L13.5559823,15.6709189 C12.518362,17.08 12.518362,19.0051892 13.5559823,20.4142703 L14.307881,21.7484324 L15.0597797,20.4142703 C16.0966481,19.0051892 16.0966481,17.08 15.0597797,15.6709189 L14.307881,14.3367568 L14.307881,14.3367568 L14.307881,14.3367568 Z" id="Stroke-294" stroke="#EEAF4B" stroke-width="1.60000002"></path>
                                        <path d="M24.8622835,24.9593514 L23.5366861,24.2025946 C22.1366506,23.159027 20.2230684,23.159027 18.8230329,24.2025946 L17.4974354,24.9593514 L18.8230329,25.7161081 C20.2230684,26.7596757 22.1366506,26.7596757 23.5366861,25.7161081 L24.8622835,24.9593514 L24.8622835,24.9593514 L24.8622835,24.9593514 Z" id="Fill-295" fill="#F9D70B"></path>
                                        <path d="M24.8622835,24.9593514 L23.5366861,24.2025946 C22.1366506,23.159027 20.2230684,23.159027 18.8230329,24.2025946 L17.4974354,24.9593514 L18.8230329,25.7161081 C20.2230684,26.7596757 22.1366506,26.7596757 23.5366861,25.7161081 L24.8622835,24.9593514 L24.8622835,24.9593514 L24.8622835,24.9593514 Z" id="Stroke-296" stroke="#EEAF4B" stroke-width="1.60000002"></path>
                                        <path d="M9.52279747,19.1527568 L8.77089873,20.4869189 C7.73403038,21.896 7.73403038,23.8211892 8.77089873,25.2302703 L9.52279747,26.5644324 L10.2746962,25.2302703 C11.3115646,23.8211892 11.3115646,21.896 10.2746962,20.4869189 L9.52279747,19.1527568 L9.52279747,19.1527568 L9.52279747,19.1527568 Z" id="Fill-297" fill="#F9D70B"></path>
                                        <path d="M9.52279747,19.1527568 L8.77089873,20.4869189 C7.73403038,21.896 7.73403038,23.8211892 8.77089873,25.2302703 L9.52279747,26.5644324 L10.2746962,25.2302703 C11.3115646,23.8211892 11.3115646,21.896 10.2746962,20.4869189 L9.52279747,19.1527568 L9.52279747,19.1527568 L9.52279747,19.1527568 Z" id="Stroke-298" stroke="#EEAF4B" stroke-width="1.60000002"></path>
                                        <path d="M20.0772,29.7753514 L18.7516025,29.0185946 C17.3515671,27.975027 15.4379848,27.975027 14.0379494,29.0185946 L12.7123519,29.7753514 L14.0379494,30.5321081 C15.4379848,31.5756757 17.3515671,31.5756757 18.7516025,30.5321081 L20.0772,29.7753514 L20.0772,29.7753514 L20.0772,29.7753514 Z" id="Fill-299" fill="#F9D70B"></path>
                                        <path d="M20.0772,29.7753514 L18.7516025,29.0185946 C17.3515671,27.975027 15.4379848,27.975027 14.0379494,29.0185946 L12.7123519,29.7753514 L14.0379494,30.5321081 C15.4379848,31.5756757 17.3515671,31.5756757 18.7516025,30.5321081 L20.0772,29.7753514 L20.0772,29.7753514 L20.0772,29.7753514 Z" id="Stroke-300" stroke="#EEAF4B" stroke-width="1.60000002"></path>
                                        <path d="M4.73771392,23.968 L3.98581519,25.3029189 C2.94894684,26.7112432 2.94894684,28.6371892 3.98581519,30.0462703 L4.73771392,31.3804324 L5.48961266,30.0462703 C6.52648101,28.6371892 6.52648101,26.7112432 5.48961266,25.3029189 L4.73771392,23.968 L4.73771392,23.968 L4.73771392,23.968 Z" id="Fill-301" fill="#F9D70B"></path>
                                        <path d="M4.73771392,23.968 L3.98581519,25.3029189 C2.94894684,26.7112432 2.94894684,28.6371892 3.98581519,30.0462703 L4.73771392,31.3804324 L5.48961266,30.0462703 C6.52648101,28.6371892 6.52648101,26.7112432 5.48961266,25.3029189 L4.73771392,23.968 L4.73771392,23.968 L4.73771392,23.968 Z" id="Stroke-302" stroke="#EEAF4B" stroke-width="1.60000002"></path>
                                        <path d="M15.2921165,34.5913514 L13.966519,33.8345946 C12.5664835,32.791027 10.6529013,32.791027 9.25361772,33.8345946 L7.92726835,34.5913514 L9.25361772,35.3481081 C10.6529013,36.3916757 12.5664835,36.3916757 13.966519,35.3481081 L15.2921165,34.5913514 L15.2921165,34.5913514 L15.2921165,34.5913514 Z" id="Fill-303" fill="#F9D70B"></path>
                                        <path d="M15.2921165,34.5913514 L13.966519,33.8345946 C12.5664835,32.791027 10.6529013,32.791027 9.25361772,33.8345946 L7.92726835,34.5913514 L9.25361772,35.3481081 C10.6529013,36.3916757 12.5664835,36.3916757 13.966519,35.3481081 L15.2921165,34.5913514 L15.2921165,34.5913514 L15.2921165,34.5913514 Z" id="Stroke-304" stroke="#EEAF4B" stroke-width="1.60000002"></path>
                                        <path d="M27.0285038,12.1565405 L0.170681013,39.1871351" id="Fill-305" fill="#F9D70B"></path>
                                        <path d="M27.0285038,12.1565405 L0.170681013,39.1871351" id="Stroke-306" stroke="#EEAF4B" stroke-width="1.60000002"></path>
                                        <path d="M26.5705975,4.28702703 L30.8240886,0.00681081081" id="Fill-307" fill="#F9D70B"></path>
                                        <path d="M26.5705975,4.28702703 L30.8240886,0.00681081081" id="Stroke-308" stroke="#EEAF4B" stroke-width="1.60000002"></path>
                                        <path d="M29.7609038,5.35783784 L35.0775797,0.00681081081" id="Fill-309" fill="#F9D70B"></path>
                                        <path d="M29.7609038,5.35783784 L35.0775797,0.00681081081" id="Stroke-310" stroke="#EEAF4B" stroke-width="1.60000002"></path>
                                        <path d="M34.0143949,9.63805405 L39.3310709,4.28702703" id="Fill-311" fill="#F9D70B"></path>
                                        <path d="M34.0143949,9.63805405 L39.3310709,4.28702703" id="Stroke-312" stroke="#EEAF4B" stroke-width="1.60000002"></path>
                                        <path d="M34.5459873,4.82205405 L39.3310709,0.00681081081" id="Fill-313" fill="#F9D70B"></path>
                                        <path d="M34.5459873,4.82205405 L39.3310709,0.00681081081" id="Stroke-314" stroke="#EEAF4B" stroke-width="1.60000002"></path>
                                        <path d="M35.0775797,12.848973 L39.3310709,8.568" id="Fill-315" fill="#F9D70B"></path>
                                        <path d="M35.0775797,12.848973 L39.3310709,8.568" id="Stroke-316" stroke="#EEAF4B" stroke-width="1.60000002"></path>
                                    </g>
                                </g>
                            </g>
                        </g>
                    </g>
                    <text id="¿" font-family="SourceSansPro-Bold, Source Sans Pro" font-size="32" font-weight="bold" fill="#2E4B63">
                        <tspan x="5.092" y="46">¿</tspan>
                    </text>
                    <text id="?" font-family="SourceSansPro-Bold, Source Sans Pro" font-size="32" font-weight="bold" fill="#2E4B63">
                        <tspan x="93.092" y="34">?</tspan>
                    </text>
                </g>
            </g>
        </g>
    </g>
</svg>