<svg fill="#70C041" xmlns="http://www.w3.org/2000/svg" xmlns:xlink="http://www.w3.org/1999/xlink" version="1.1" x="0px" y="0px" viewBox="0 0 65 65" enable-background="new 0 0 65 65" xml:space="preserve"><g><path fill="none" stroke="#70C041" stroke-width="2" stroke-linecap="round" stroke-linejoin="round" stroke-miterlimit="10" d="   M32.5,1.5L32.5,1.5c-9.3,0-16.9,7.6-16.9,16.9v0.2h6v-0.2c0-3,1.2-5.7,3.2-7.7c0.5-0.5,1-0.9,1.6-1.3c1.2-0.8,2.5-1.3,3.9-1.6   c0.7-0.1,1.4-0.2,2.2-0.2h0c6,0,10.9,4.9,10.9,10.9v8.8h6v-8.8C49.4,9.1,41.8,1.5,32.5,1.5z"></path><path fill="none" stroke="#70C041" stroke-width="2" stroke-linecap="round" stroke-linejoin="round" stroke-miterlimit="10" d="   M51.9,27.2h-2.5h-6H32.5H21.6h-6h-2.5c-2,0-3.6,1.6-3.6,3.6v2.2v24.8v2.2c0,2,1.6,3.6,3.6,3.6h19.4h19.4c2,0,3.6-1.6,3.6-3.6v-2.2   V32.9v-2.2C55.5,28.8,53.9,27.2,51.9,27.2z"></path><path fill="none" stroke="#70C041" stroke-width="2" stroke-linecap="round" stroke-linejoin="round" stroke-miterlimit="10" d="   M36.8,42.6c0-2.4-1.9-4.3-4.3-4.3s-4.3,1.9-4.3,4.3c0,1.5,0.8,2.9,2,3.6l-1.3,6.1h7.2l-1.3-6.1C36,45.5,36.8,44.1,36.8,42.6z"></path></g></svg>