<svg fill="#70C041" xmlns="http://www.w3.org/2000/svg" data-name="Layer 1" viewBox="0 0 48 48" x="0px" y="0px"><title>tnp_crafticons</title><path d="M24,0A24,24,0,1,0,48,24,24,24,0,0,0,24,0Zm0,46A22,22,0,1,1,46,24,22,22,0,0,1,24,46ZM19.25,18.5a4.5,4.5,0,1,0-4.5,4.5A4.5,4.5,0,0,0,19.25,18.5Zm-7,0a2.5,2.5,0,1,1,2.5,2.5A2.5,2.5,0,0,1,12.25,18.5Zm25.19,2.85a1,1,0,0,1-1.29.58c-2.53-1-7.55-.77-7.61-0.77a1,1,0,0,1-.91-0.5,1,1,0,0,1,0-1A11.06,11.06,0,0,1,35.41,15a1,1,0,0,1,.18,2,9.8,9.8,0,0,0-4.91,2.17,21,21,0,0,1,6.17.9A1,1,0,0,1,37.44,21.35Zm-7.69,13a1,1,0,0,1-.07,1.41A10.21,10.21,0,0,1,24.06,38H23.8c-4.29,0-7.26-1.84-8.56-5.19a5,5,0,0,1-1.76.35,3.32,3.32,0,0,1-.46,0A1,1,0,0,1,12.18,32a1,1,0,0,1,1.13-.84,3,3,0,0,0,2.83-1.66,1,1,0,1,1,1.71,1,5.94,5.94,0,0,1-.9,1.15q1.4,4.39,7,4.34a8.28,8.28,0,0,0,4.35-1.74A1,1,0,0,1,29.74,34.33Z"></path></svg>