<?xml version="1.0" standalone="no"?>
<!DOCTYPE svg PUBLIC "-//W3C//DTD SVG 1.1//EN" "http://www.w3.org/Graphics/SVG/1.1/DTD/svg11.dtd" >
<svg xmlns="http://www.w3.org/2000/svg">
<metadata></metadata>
<defs>
<font id="mr_dafoeregular" horiz-adv-x="300" >
<font-face units-per-em="1000" ascent="800" descent="-200" />
<missing-glyph horiz-adv-x="250" />
<glyph unicode="&#xd;" horiz-adv-x="333" />
<glyph unicode=" "  horiz-adv-x="250" />
<glyph unicode="&#x09;" horiz-adv-x="250" />
<glyph unicode="&#xa0;" horiz-adv-x="250" />
<glyph unicode="!" horiz-adv-x="549" d="M93 -17q-11 1 -19 12.5t-8 20.5t5 15.5t12 14t28.5 20.5t45.5 13q18 -3 18 -22q0 -30 -29 -52t-53 -22zM686 700q6 0 29.5 -16t41.5 -33q4 -2 4 -9q-1 -15 -114.5 -138t-247 -250t-178.5 -146q-8 -6 -17 -6t-17.5 6.5t-8.5 11t3 7.5q63 62 231 261t216 258q33 54 58 54z " />
<glyph unicode="&#x22;" horiz-adv-x="395" d="M326.5 654q14.5 10 46.5 10t32 -25q0 -21 -64.5 -78.5t-79.5 -57.5q-8 0 -15 5.5t-7 12.5q0 19 36.5 71t51 62zM471.5 654q14.5 10 46.5 10t32 -25q0 -21 -64.5 -78.5t-79.5 -57.5q-8 0 -15 5.5t-7 12.5q0 19 36.5 71t51 62z" />
<glyph unicode="#" horiz-adv-x="579" d="M495 173q-51 -134 -51 -152q-12 -24 -42 -47.5t-49 -23.5q-14 0 -14 21q0 64 55 157q19 32 20 49h-86q-21 -44 -27.5 -69t-7.5 -27q-6 -17 -37.5 -43.5t-50.5 -26.5q-16 0 -16 21q0 4 53 145q-108 0 -118.5 -1.5t-20 -3.5t-20.5 -4.5t-22 -2.5q-19 0 -19 15l-5 57 q1 7 14 13h220q26 69 32 86q-43 0 -51 -2q-12 -3 -29.5 -6.5t-27.5 -3.5q-20 0 -20 15l-4 58q-1 9 32 11t127 2q30 85 33.5 100t7.5 29l2 21q6 13 20 13l58 -16q1 -1 1 -4l-17 -51q-18 -56 -30 -92h95q4 12 9 42q11 63 28 63q5 0 28.5 -7.5t29.5 -9.5q8 -4 8 -11.5 t-24 -77.5h72q9 3 19 3q32 0 66 -22.5t34 -41.5q0 -13 -22 -18q-34 0 -194 4l-30 -82q4 1 12 1q32 0 66 -22.5t34 -41.5q0 -15 -22 -18zM443 253l29 82q-26 1 -90 1q-3 -9 -8 -26q-12 -36 -19 -58q24 1 69 1h19z" />
<glyph unicode="$" horiz-adv-x="678" d="M488 251l-92 -4q-109 0 -139 10t-53 21q-45 22 -45 75q0 29 55 86q116 120 331 152q111 113 170 150q8 5 15 5q4 0 12 -5q17 -13 17 -17t-3 -7q-72 -69 -115 -118q45 0 111 -19q39 -11 64.5 -37.5t25.5 -63.5q0 -17 -20 -36t-69 -35t-120 -16t-71 13q0 10 52 23.5t104 32 t52 40.5q0 11 -40 11q-262 0 -449 -135q-35 -26 -35 -45q0 -30 188 -30q168 -2 168 -90q0 -66 -89.5 -123t-219.5 -90l-10 -16q-91 -128 -104 -150q-2 -10 -11 -10t-18.5 17t-9.5 38q0 34 48 100q-46 -7 -92.5 -7t-99.5 25.5t-53 61.5q0 11 20 12q106 12 135 25q8 2 12.5 2 t4.5 -2q0 -9 -22.5 -17.5t-28.5 -11t-6 -5t24 -2.5t132 23.5t214.5 66t106.5 82.5q0 9 -14 14.5t-33 5.5z" />
<glyph unicode="%" horiz-adv-x="754" d="M703 343.5q5 -4.5 9 -5t10.5 4t17.5 5t23 -12.5q16 -13 16 -39.5t-28 -84.5t-60 -100q-113 -131 -194 -131q-54 8 -69 38q-7 15 -7 38q0 66 76 157.5t191 134.5q10 0 15 -4.5zM504 44q30 0 72.5 39t55.5 61q22 20 56 68.5t34 74.5q0 2 -2 2q-13 0 -59 -26.5t-69 -55.5 q-31 -29 -54 -67q-39 -64 -39 -88q0 -8 5 -8zM748 694q2 1 3 1q10 0 43 -31q4 -2 4 -9q-1 -15 -139 -168t-296 -310t-202 -176q-8 -6 -17 -6t-17.5 6.5t-8.5 11t3 7.5q65 64 307 329.5t262 290.5q33 54 58 54zM446 682.5q5 -4.5 9 -5t10.5 4t17.5 5t23 -12.5 q16 -13 16 -39.5t-28 -84.5t-60 -100q-113 -131 -194 -131q-54 8 -68 37q-8 16 -8 39q0 66 76 157.5t191 134.5q10 0 15 -4.5zM247 383q30 0 72.5 39t55.5 61q22 20 56 68.5t34 74.5q0 2 -2 2q-13 0 -59 -26.5t-69 -55.5q-31 -29 -55 -68q-38 -63 -38 -87q0 -8 5 -8z" />
<glyph unicode="&#x26;" horiz-adv-x="923" d="M244 416q-2 -6 -2 -8q0 -34 100 -48q35 -4 70 -4h19q31 0 42.5 -5.5t11.5 -28.5q0 -37 -30 -37l-56 3q-45 0 -125.5 -13t-154.5 -39t-74 -56.5t105 -68.5t209.5 -38t187 19.5t121.5 38.5t39 26t-39 7t-99.5 -10t-73 -15t-18 -5t-6 0.5t-1.5 5.5q51 43 114.5 65.5 t101.5 22.5q68 0 68 -71q0 -45 -38.5 -80.5t-100.5 -56.5q-126 -41 -271 -41h-25q-96 -133 -125 -180q-2 -11 -12 -11t-20.5 19t-10.5 42q0 44 74 139q-116 19 -163.5 69t-47.5 96t23.5 77.5t57 49.5t67 30t57 18.5t23.5 8.5l-2 6q-34 36 -34 66.5t14 59.5q35 71 124 107.5 t194 44.5q128 130 192 169q8 6 15 6t11 -4q22 -16 22 -20.5t-3 -7.5q-85 -84 -137 -142q126 -10 126 -94q0 -12 -2 -26q-2 0 -8 7q-26 27 -136.5 27t-230.5 -36.5t-143 -83.5z" />
<glyph unicode="'" horiz-adv-x="249" d="M326.5 654q14.5 10 46.5 10t32 -25q0 -21 -64.5 -78.5t-79.5 -57.5q-8 0 -15 5.5t-7 12.5q0 19 36.5 71t51 62z" />
<glyph unicode="(" horiz-adv-x="453" d="M181 -140q5 -5 5 -8t-6 -5.5t-9 -2.5q-46 0 -79 40q-60 71 -60 179t49 216.5t123.5 190t166 133.5t173.5 52q9 0 9 -11.5t-10 -20.5q-108 -45 -193.5 -119t-134.5 -157q-100 -169 -100 -320q0 -130 66 -167z" />
<glyph unicode=")" horiz-adv-x="401" d="M352 640q-5 5 -5 8t6 5.5t9 2.5q46 0 79 -40q60 -71 60 -179t-49 -216.5t-123.5 -190t-166 -133.5t-173.5 -52q-9 0 -9 11.5t10 20.5q108 45 193.5 119t134.5 157q100 169 100 320q0 130 -66 167z" />
<glyph unicode="*" horiz-adv-x="461" d="M483 437l59 -1q2 2 11 2t23.5 -13.5t14.5 -23.5t-9 -12q-58 1 -121 3l34 -59q12 -8 12 -26.5t-6 -30t-14 -11.5h-2q-10 3 -27 34.5t-26 47.5t-12 22l-65 -71q-9 -22 -38.5 -22t-29.5 13q0 5 6.5 12.5t36.5 40.5t45 50q-59 -2 -69 -4.5t-15 -2.5q-8 0 -8 9l-2 35 q0 7 101 8q-46 85 -46 101q1 7 10 12t16 5t9 -4q39 -69 57 -103q87 92 102 92q6 0 14 -10t8 -15t-2 -7z" />
<glyph unicode="+" horiz-adv-x="538" d="M54 229q-14 0 -14 15l-3 57v1q0 4 4 7q6 6 223 6q163 171 187 171q11 0 24 -16.5t13 -24.5t-3 -11l-111 -119l97 -1q6 3 13 3q27 0 53 -31q16 -16 16 -29t-5 -17t-10 -5q-216 6 -233 6l-145 -157q-7 -18 -28.5 -28t-44.5 -10q-40 0 -40 23q0 7 5 15q128 141 142 156 q-87 -1 -126 -8q-7 -3 -14 -3z" />
<glyph unicode="," horiz-adv-x="126" d="M95 85q10 0 13 -4q14 -17 14 -27q0 -19 -38 -63q-53 -61 -69 -61q-3 0 -3 3t4 9q15 20 20 29l6 10q-15 -5 -24 -5q-18 3 -18 22q0 30 36 58.5t59 28.5z" />
<glyph unicode="-" horiz-adv-x="563" d="M234 285l113 -2q44 0 86 3q7 3 14 3q28 0 44 -31q8 -10 8 -20q0 -24 -21 -29q-211 4 -248 5q-8 -3 -14.5 -3t-8.5 2.5t-2 12.5l10 57q2 2 19 2z" />
<glyph unicode="." horiz-adv-x="126" d="M95 85q10 0 13 -4q14 -17 14 -27.5t-6 -18t-14.5 -17t-34 -26t-49.5 -16.5q-18 3 -18 22q0 30 36 58.5t59 28.5z" />
<glyph unicode="/" horiz-adv-x="571" d="M715 694q2 1 3 1q10 0 43 -31q4 -2 4 -9q-1 -15 -139 -168t-296 -310t-202 -176q-8 -6 -17 -6t-17.5 6.5t-8.5 11t3 7.5q65 64 307 329.5t262 290.5q33 54 58 54z" />
<glyph unicode="0" horiz-adv-x="571" d="M532 676q56 0 112 -24q29 -12 48 -36t19 -60.5t-39.5 -85t-99.5 -87.5q-127 -427 -372 -427q-52 0 -89.5 24t-54.5 58q-36 73 -38 127l-1 24q0 55 45 167q45 114 158 214q54 47 135.5 76.5t176.5 29.5zM338.5 367q-10.5 11 -10.5 24t20 24q79 34 116 66q7 10 12.5 10 t5.5 -11.5t-28 -29.5q-20 -16 -20 -21q0 -1 1 -1q20 0 106 75t86 99q0 16 -29 16q-92 0 -174.5 -42.5t-138 -106t-97 -137.5t-61 -138.5t-19.5 -105t26 -40.5q70 0 170 60q53 33 115.5 99.5t122.5 159.5q-64 -35 -119 -35q-6 0 -27.5 6t-34 12t-23 17z" />
<glyph unicode="1" horiz-adv-x="442" d="M335 610q0 -7 -6 -21q0 -2 2 -2q44 8 92.5 41t63.5 50q4 7 12 9q9 0 16 -6q18 -12 18 -20q0 -4 -65 -107t-92 -146q-148 -241 -204 -362q-26 -57 -39 -120q0 -8 -8.5 -8t-36 20.5t-27.5 44.5q0 57 75 206t221 335q-44 -43 -88 -43q-58 0 -65 36q2 11 13 20q87 74 111 78 q7 0 7 -5z" />
<glyph unicode="2" horiz-adv-x="612" d="M42 386q1 53 58.5 116t153 109t189.5 46q57 0 101.5 -14.5t69 -35.5t40.5 -48q25 -44 25 -89q0 -75 -99.5 -168.5t-269.5 -187.5q-24 -14 -24 -20q0 -3 33.5 -3t89 -11t115.5 -44t98 -84q3 -3 3 -6t-3.5 -3t-57 11.5t-145.5 23t-173.5 11.5t-186.5 -24q-3 -1 -9 -1 q-72 48 -72 75q0 31 99 41q11 0 95.5 45t186 108.5t183.5 144.5t82 140q0 49 -101 49q-36 0 -88.5 -12t-97.5 -30t-104.5 -56.5t-112.5 -91.5q-27 -28 -27 -44q0 -11 16 -11q38 1 125.5 39.5t136.5 94.5q18 22 24 22q6 -4 6 -8q0 -64 -95 -138t-164 -74q-12 0 -32 9.5 t-33 21.5t-24 37.5t-11 59.5z" />
<glyph unicode="3" horiz-adv-x="640" d="M251.5 237.5q-2.5 7.5 -7 12.5t-3.5 17t17.5 24t36.5 12t98.5 32.5t154.5 80.5t80 81q0 33 -138 33t-317 -89q-5 -3 -23.5 -3t-43.5 12.5t-26 29.5q2 14 11 21q47 40 160.5 79.5t218.5 39.5q149 0 192 -74q18 -31 18 -68q-10 -71 -167 -161l-5 -3q-8 -2 -8 -6l5 -5 q33 -14 50.5 -32.5t17.5 -52.5q0 -57 -39 -107t-95.5 -82t-120.5 -55q-118 -43 -175.5 -43t-87.5 22.5t-30 46.5q1 5 5 9q4 -9 30 -9q75 0 179 38t182 92t84 95v2q0 9 -12 14.5t-24 6.5h-12q-54 0 -114.5 -11.5t-69 -11.5t-14 2.5t-8 10z" />
<glyph unicode="4" horiz-adv-x="594" d="M656 492l10 -11q5 -4 5 -8.5t-10.5 -16t-74.5 -88.5t-104 -122q251 -34 251 -119q0 -6 -5 -6l-8 2q-4 11 -105 18.5t-154.5 7.5t-72.5 -1q-13 -15 -53.5 -58.5t-60.5 -66.5q-59 -70 -64 -111q-1 -9 -8 -9q-9 0 -29.5 22t-24.5 46v16q0 16 22 48t87 109q-55 0 -88 -6 t-57 -6t-36 22q-23 5 -23 29q0 54 62.5 138t157.5 166.5t221 153t241 94.5q11 -8 11 -17.5t-16 -14.5q-54 -26 -177.5 -112.5t-240 -195t-116.5 -162.5q0 -2 2 -2t12 2q20 11 151 13l55.5 55.5t46 45.5t40 38.5t38.5 34.5q53 48 87 74q5 6 13 6t15 -8z" />
<glyph unicode="5" horiz-adv-x="641" d="M71 110l90 11q9 0 9 -5q0 -1 -5.5 -4.5t-5.5 -9.5q0 -16 18 -25t37 -9q62 0 139 30.5t134.5 81.5t57.5 101.5t-99 50.5q-66 0 -154 -28l-30 -10q-20 0 -34.5 25t-26.5 27.5t-12 18.5q0 67 81 167l-14 -2q-29 0 -45 16.5t-16 31t8.5 22.5t23.5 14.5t31.5 13t36 12t33.5 9 l28 7t23 3.5t9 -5q-7 -7 -7 -10.5t4 -3.5h2q15 3 41.5 8.5t41.5 8.5q42 8 94 8t101 -11t50 -32q2 -2 12 -11q25 -23 25 -26q0 -19 -252 -31l-98 -4q-77 -59 -124 -152q24 7 50.5 16t38.5 13q30 10 56 10q82 0 130.5 -40t48.5 -115.5t-41 -140.5t-105 -105.5t-137.5 -63 t-137 -22.5t-98.5 35t-35 78t23 47z" />
<glyph unicode="6" horiz-adv-x="401" d="M509 715q64 -6 64 -27v-1q0 -5 -68.5 -39t-105.5 -56.5t-115.5 -83.5t-145.5 -134l-33 -44q69 66 119 96t99 30q63 -6 95.5 -40.5t32.5 -94.5q-7 -79 -50 -160.5t-123.5 -141.5t-176.5 -60q-64 0 -100.5 59t-36.5 151q0 66 40 151.5t108.5 167.5t174 146t222.5 81z M356 339q0 43 -33 46q-46 0 -107 -39t-108.5 -106t-47.5 -139t44 -75q50 0 109 46.5t101 121t42 145.5z" />
<glyph unicode="7" horiz-adv-x="503" d="M342 318l12 2q36 0 67 -8q57 -17 57 -55q0 -5 -1.5 -6.5t-9.5 -2.5q-89 -5 -146.5 -18t-76.5 -24t-33 -27q-129 -169 -145 -210q-1 0 -3.5 -16t-4.5 -16q-9 0 -36 17.5t-27 31.5t3.5 27t9 29.5t33 64t68.5 90.5q2 0 2 3.5t-12 26t-12 26.5q0 18 9.5 23.5t45 11.5t50 8 t37.5 25q180 164 207 178q10 5 10 8t-6 3t-10 -1q-212 -24 -327 -24q-30 0 -46.5 17t-16.5 39q0 19 45 38t91 29l45 9q17 0 17 -4t-7 -10t-7 -7t3.5 -1t30 5.5t108 13.5t134.5 8q116 0 119 -43q2 -2 13 -11q25 -24 25 -27q0 -7 -19 -11q-37 -6 -111 -13q-30 0 -30 -7 q0 -2 7 -6.5t7 -13.5t-13 -17l-152 -143q-8 -5 -8 -8.5t4 -3.5z" />
<glyph unicode="8" horiz-adv-x="502" d="M96 91.5q-21 -28.5 -21 -44.5t6.5 -21.5t13 -6t19.5 -0.5q62 0 129.5 40t67.5 89q0 31 -19 56q-7 11 -22 30q-8 -5 -21 -13t-46.5 -32t-59.5 -46.5t-47 -51zM321 346l228 164q10 7 10 14t-10 14q-27 17 -106.5 17t-140.5 -35t-61 -70q0 -15 27 -49t53 -55zM608 485 l-250 -181q61 -62 62 -155q0 -58 -56 -114q-29 -30 -89.5 -49.5t-128.5 -19.5t-113 23t-45 62q0 48 64 105q47 40 102.5 79t69.5 50q-33 33 -51.5 53.5t-38 56t-19.5 66.5q0 66 71 115t169.5 71t203.5 22q147 0 147 -57q0 -28 -32.5 -65.5t-65.5 -61.5z" />
<glyph unicode="9" horiz-adv-x="558" d="M330 187q-59 -33 -135 -41q-43 4 -74 39t-31 69q0 75 42.5 150t105.5 130.5t133.5 99.5t129.5 67t93 23t63.5 -18t29.5 -52q0 -107 -137 -316q-149 -229 -306 -382q-15 -14 -54.5 -40t-71.5 -32h-6q-19 0 -65 15q-11 6 -12 14v2q0 10 32 21q44 11 106 72t157 179z M190 230q0 -14 16 -14q7 0 41.5 6.5t87 30t92.5 59.5q200 274 200 343q0 12 -6 12q-48 -8 -152 -91t-191.5 -186.5t-87.5 -159.5z" />
<glyph unicode=":" horiz-adv-x="289" d="M356 427q10 0 13 -4q14 -17 14 -27.5t-6 -18t-14.5 -17t-34 -26t-49.5 -16.5q-18 3 -18 22q0 30 36 58.5t59 28.5zM115 85q10 0 13 -4q14 -17 14 -27.5t-6 -18t-14.5 -17t-34 -26t-49.5 -16.5q-18 3 -18 22q0 30 36 58.5t59 28.5z" />
<glyph unicode=";" d="M367 427q10 0 13 -4q14 -17 14 -27.5t-6 -18t-14.5 -17t-34 -26t-49.5 -16.5q-18 3 -18 22q0 30 36 58.5t59 28.5zM126 85q10 0 13 -4q14 -17 14 -27q0 -19 -38 -63q-53 -61 -69 -61q-3 0 -3 3t4 9q15 20 20 29l6 10q-15 -5 -24 -5q-18 3 -18 22q0 30 36 58.5t59 28.5z " />
<glyph unicode="&#x3c;" horiz-adv-x="420" d="M303 47q-22 0 -80 51.5t-105 102.5l-48 51q-17 21 -17 38q0 20 30 22q36 23 148.5 94t173.5 110q34 -7 34 -30.5t-51 -54.5l-244 -150l163 -146q23 -43 23 -62q0 -26 -27 -26z" />
<glyph unicode="=" horiz-adv-x="372" d="M174 390l195 -1q6 3 13 3q22 0 45.5 -22.5t23.5 -38.5t-15 -21q-234 6 -266 6t-52 -0.5t-24.5 -1.5t-11.5 -3t-15 -4.5t-15 -2.5q-14 0 -14 15l-3 58q0 4 7 8.5t132 4.5zM-55 160l-3 57q1 7 9.5 7t108 4.5t148 4.5t68.5 -3q6 3 13 3q22 0 45.5 -22.5t23.5 -39.5t-15 -20 q-234 6 -266 6t-52 -0.5t-24.5 -1.5t-11.5 -3t-15 -4.5t-15 -2.5q-14 0 -14 15z" />
<glyph unicode="&#x3e;" horiz-adv-x="420" d="M189 517q22 0 80 -51.5t105 -102.5l48 -51q17 -21 17 -38q0 -20 -30 -22q-36 -23 -148.5 -94t-173.5 -110q-34 7 -34 30.5t51 54.5l244 150l-163 146q-23 43 -23 62q0 26 27 26z" />
<glyph unicode="?" horiz-adv-x="674" d="M547 568q-54 0 -153 -37q-25 6 -47.5 20.5t-22.5 27t10 22.5q19 31 89.5 49.5t130.5 18.5t99 -37.5t39 -85.5q0 -99 -95 -157l-233 -138q-2 -2 -6.5 -7t-6.5 -7t-5 -6t-4 -7q-4 -9 -4 -18l6 -27q0 -23 -22.5 -23t-39.5 24t-17 48q0 40 56 83.5t234 130.5q62 49 62 83 q0 31 -24 37q-19 6 -46 6zM335 68q0 16 -18 22q-24 0 -45 -11.5t-30 -22.5l-9 -12q-7 -8 -7 -19q3 -13 10 -21t17 -10q24 0 53 22t29 52z" />
<glyph unicode="@" horiz-adv-x="645" d="M203 79q12 0 73.5 49t117.5 98l55 49q4 4 4 5.5t-3 1.5q-38 0 -99 -43.5t-105.5 -92t-44.5 -65.5q0 -2 2 -2zM305 37l8 64q0 3 -1.5 3t-5.5 -4q-13 -14 -33 -34.5t-68.5 -55t-78.5 -34.5q-5 1 -12.5 3.5t-19.5 16.5t-12 40t39.5 79.5t94.5 105t122.5 89.5t117.5 38 q19 -1 30 -27q10 10 18 10t19 -12q6 -1 12 -6.5t6 -15.5t-14 -22q-21 -26 -49 -59t-40 -47.5t-25 -32.5q-22 -31 -24 -50q0 -27 20 -27q24 0 62 19.5t78 55t68.5 95.5t28.5 130q-11 43 -40 70q-15 14 -45 25.5t-60.5 11.5t-62 -6t-76 -24t-85.5 -45t-81 -74t-66 -107 q-33 0 -33 18q0 40 28 91.5t74 99t113.5 80t137.5 32.5q124 0 181.5 -45.5t57.5 -122t-52 -164.5t-131 -147.5t-151 -59.5q-15 0 -24 2t-17.5 12.5t-8.5 30.5z" />
<glyph unicode="A" horiz-adv-x="454" d="M281 152q1 4 1 6t-1.5 2t-6 -5t-11.5 -14t-29.5 -34t-46.5 -47q-65 -62 -130 -95q-16 -8 -35 -8q-73 0 -73 110q0 98 93 236q44 64 105.5 125.5t130.5 109.5t150 77.5t158 29.5q13 0 35 -9q37 -16 37 -34q0 -10 -13 -11q-5 0 -5 -4t14.5 -15.5t14.5 -22t-7 -18.5 q-50 -55 -80 -91.5t-45.5 -54.5t-35 -41.5t-43.5 -59t-44 -70.5q-46 -85 -46 -155.5t13 -134t27 -77.5q0 -3 -7 -3q-46 0 -79 36q-60 67 -60 176q0 39 19 96zM412 377l192 193q7 7 7 10t-5 3q-77 -12 -163 -63t-156 -118t-129 -137t-91.5 -126t-32.5 -80q0 -4 5.5 -4 t21.5 7.5t110.5 88t240.5 226.5z" />
<glyph unicode="B" horiz-adv-x="691" d="M297 637q124 39 205 39t130.5 -17.5t71.5 -44.5q37 -46 37 -80q0 -41 -57 -96q-29 -28 -82 -62l-11 -6q-7 -2 -7 -6l6 -5q39 -16 59.5 -38t20.5 -65q0 -59 -52.5 -112.5t-123.5 -86t-133 -51.5t-88.5 -19t-47.5 6.5t-34 15.5q-27 19 -38 39q-4 5 -7 5q-7 0 -26 -44 t-20 -44v1q-3 -10 -10 -10q-16 0 -30.5 29.5t-14.5 46t20 56t40 67.5l20 28q23 50 190 209t189 159q10 0 16.5 -6.5t10.5 -19.5q0 -8 -9 -13l-141 -152q-2 -4 -2 -5.5t3 -1.5q22 0 100 34t151.5 83t73.5 81q0 35 -140 35q-89 0 -175.5 -19.5t-148 -47t-110.5 -57.5t-73 -52 t-24 -28t5 -6q32 0 105.5 34.5t89.5 46t20.5 11.5t7.5 -5q-37 -61 -101.5 -103.5t-100.5 -42.5t-59.5 29.5t-23.5 51.5q0 67 97 133.5t221 105.5zM621 295q0 10 -12.5 16t-25.5 7h-13q-63 0 -160 -28q-33 -9 -41 -9t-13.5 6t-8 11.5t-7.5 5.5q-6 0 -13 -7l-173 -231v-1 q5 -9 20 -9h12q75 0 179 41.5t180 99t76 98.5z" />
<glyph unicode="C" horiz-adv-x="511" d="M1 142q1 93 65.5 191.5t160.5 173t213 122t220 47.5q59 0 109.5 -24.5t50.5 -74t-56.5 -107t-135 -98t-137.5 -40.5q-27 0 -56 15t-29 42q0 15 24 26q85 34 128 66q9 10 13.5 10t4.5 -8q0 -14 -34 -33q-24 -18 -24 -20t1 -2q20 0 122 77t102 99q0 14 -27 14 q-96 0 -195 -45.5t-175.5 -114t-138.5 -145t-95 -142t-33 -101.5q0 -22 21 -22q18 0 72 16t156.5 64t197.5 115q7 6 9.5 6t2.5 -4t-17.5 -34t-53 -73t-80.5 -83.5t-108.5 -69.5t-117 -29t-84 19t-44.5 47q-29 56 -31 101z" />
<glyph unicode="D" horiz-adv-x="776" d="M895 434q0 -60 -48.5 -145t-124.5 -164t-184 -135t-212 -57q-6 0 -19.5 5.5t-22.5 13.5q-22 21 -22 62q7 37 31 60q8 8 8 10h-1q-2 0 -10 -5l-181 -135q-18 -20 -35 -20q-5 0 -11 3l-24 23q-3 2 -3 10.5t10 27.5t41 64.5t89.5 121.5t152 168.5t198.5 170.5q21 20 40 20 q5 0 17 -7q16 -8 16 -16t-5 -12l-70 -68q-246 -254 -312 -345q-8 -9 -8 -12.5t2.5 -3.5t5.5 3q79 53 174 97q7 4 12.5 4t8.5 -4l19 -23q4 -6 4 -11.5t-4 -8.5l-11 -12q-59 -58 -61 -74q1 -5 5 -5q59 0 174 71t210 168.5t95 161.5q0 22 -22.5 45t-47.5 37q-62 33 -154 33 t-176 -20.5t-148.5 -50.5t-117 -63.5t-80.5 -61t-28 -40.5q0 -3 3 -3q31 0 117.5 43t114.5 70q25 18 32 18q4 0 4 -7.5t-13 -26.5t-38 -45.5t-55 -52t-69 -43.5t-69 -18t-63 26.5t-33 66.5q0 79 101 151t234.5 111t227.5 39t154 -18t92.5 -43t54.5 -57q32 -48 35 -92z" />
<glyph unicode="E" horiz-adv-x="493" d="M16 514q0 15 20 26l117 46q4 2 11.5 2t13.5 -7t13 -7t29.5 5.5t60.5 14t85 16.5q110 19 229 19q141 0 202 -21q24 -9 40.5 -24.5t16.5 -37.5q0 -13 -18 -13q-250 -7 -409 -32q-16 -2 -16 -11q0 -3 0.5 -5.5t-7.5 -11.5l-113 -121q-7 -7 -7 -10.5t2.5 -3.5t12.5 2 q65 4 120 4t63 -6q44 -33 51.5 -43t7.5 -16q0 -13 -22 -16q-264 -26 -285 -25.5t-27 0.5q-16 0 -36 -25l-122 -162q-5 -8 -5 -11.5t4 -3.5t12 4q94 15 175.5 15t121.5 -5q55 0 118 -81q5 -7 5 -13t-15 -6q-249 0 -379 -10q-5 -1 -13 -1q-43 0 -59 20q-3 6 -10 6t-12.5 -7 t-8.5 -7t-12 6t-18.5 20.5t-9.5 31t6.5 30.5t17 36t47 75.5t76.5 91.5q5 5 5 9.5t-10.5 4.5t-21 7.5t-10.5 21t35 22.5l54 14h1q16 0 32 21q116 113 142 126q9 6 9 9.5t-6 3.5t-10 -1q-93 -15 -148 -15t-80 5t-37 12q-26 17 -28 27z" />
<glyph unicode="F" horiz-adv-x="442" d="M-4 508q0 15 9 22.5t24 14.5t32 13.5t37 12t34 9.5q40 11 51 11t11 -4t-7 -10t-7 -7t3.5 -1t9.5 2q192 40 371.5 40t248.5 -58q2 -2 13 -11q25 -24 25 -27q0 -9 -21 -9q-243 0 -403 -17q-16 0 -16 -5q0 -2 7 -6.5t7 -13.5t-13 -17l-127 -117q-8 -5 -8 -8.5t7 -3.5l16 2 q46 4 87 4q150 0 150 -67q0 -5 -1.5 -6.5t-26 -3t-164 -21.5t-161.5 -27t-34 -20q-129 -169 -145 -210q-1 0 -3.5 -16t-4.5 -16q-9 0 -36 17.5t-27 31.5t3.5 27t9 29.5t33 64t68.5 90.5q2 0 2 3.5t-12 26t-12 26.5q0 20 14 25.5t83 17.5l13 2h1q8 0 31 23q155 138 182 152 q10 5 10 8t-6 3t-10 -1q-170 -24 -285 -24q-30 0 -46.5 17t-16.5 32z" />
<glyph unicode="G" horiz-adv-x="551" d="M737 556q30 -10 33 -20l1 -4q0 -21 -42 -59q-171 -192 -243 -297q-21 -30 -59 -87.5t-61.5 -92t-62 -87t-68 -86.5t-72 -76t-81.5 -70q-88 -63 -189 -93q-26 0 -49.5 12.5t-24.5 35.5q1 54 84 133.5t223 121.5q20 5 28 15l286 341l15 20q2 4 2 5.5t-1.5 1.5t-44.5 -43.5 t-74.5 -77.5t-82.5 -81.5t-124.5 -94t-123.5 -46.5q-66 0 -82 87q-3 20 -3 40q0 90 77.5 193.5t190 184t242.5 135t231 55.5h1q32 0 53.5 -21.5t21.5 -37.5q0 -5 -1 -7zM-131 -364q0 -6 5 -6h2q25 0 126.5 95.5t119.5 141.5q0 2 -2 2q-67 -24 -159 -116.5t-92 -116.5z M700 539q6 6 6 9.5t-9 3.5q-61 0 -155.5 -41.5t-193 -109.5t-193 -167.5t-149.5 -203.5q-3 -4 -3 -7.5t5 -3.5q56 0 265.5 163.5t426.5 356.5z" />
<glyph unicode="H" horiz-adv-x="555" d="M373 359l101 11h2q26 0 43 17q253 260 334 308q8 6 15 6t11 -4q22 -16 22 -20.5t-3 -7.5q-261 -256 -261 -276q0 -5 8 -5q60 -1 66 -7t18 -8q16 0 49 -11.5t33 -30.5q0 -5 -4.5 -6.5t-39.5 -6.5t-90 -12t-87.5 -11t-45.5 -6.5t-20 -14.5q-146 -190 -202 -279 q-2 -11 -12 -11t-20.5 19t-10.5 42q0 58 119 209q7 6 7 10q0 2 -4 2h-5l-130 -22q-14 0 -23 -12q-133 -182 -152 -216q-3 -12 -13.5 -12t-25.5 15.5t-15 35.5t26.5 73.5t55.5 88.5q5 7 5 11t-7 4l-47 2q-17 1 -48.5 30.5t-31.5 52.5q0 9 10 9q72 -8 97.5 -8t117.5 16 q9 3 24 20q302 314 339 314q6 0 15.5 -10t9.5 -15.5t-4 -9.5q-205 -224 -221 -242.5t-16 -25t11 -6.5z" />
<glyph unicode="I" horiz-adv-x="385" d="M552 721q94 0 94 -73q0 -67 -96.5 -194t-223.5 -248q-150 -143 -264 -218q-17 -11 -60.5 -30t-75.5 -19q-17 0 -67 27q-10 7 -10 15q0 13 36 17q51 5 173 95.5t243 201.5t214 216t93 138q0 8 -8 8q-50 0 -170 -67t-224 -156.5t-104 -141.5q0 -2 3 -2q25 0 108.5 62 t120.5 104q10 10 16 10q8 -1 8 -7t-14.5 -31.5t-41 -60.5t-58.5 -68.5t-72 -57t-74.5 -23.5t-49.5 28t-15 57q0 68 58.5 145.5t140.5 136t171 97.5t149 39z" />
<glyph unicode="J" horiz-adv-x="420" d="M587 718q33 0 58 -16.5t25 -43t-13 -52.5q-34 -69 -161 -260t-223 -302q-4 -4 -34.5 -38.5t-55 -60.5t-67 -64t-79 -63.5t-82 -44t-85.5 -18.5q-63 0 -63 44q0 49 58.5 111.5t134 105.5t124.5 43q6 0 6 -5t-4 -8t-25 -13q-59 -30 -149.5 -119t-90.5 -122q0 -4 4 -4 q42 0 181 148q134 143 230 261q144 174 238.5 290.5t104.5 139.5q9 12 9 17.5t-5 5.5q-64 0 -152.5 -51t-162 -118.5t-125.5 -134t-52 -97.5q0 -4 3 -4q32 0 224 162q19 20 24 20t5 -3.5t-13 -22.5q-158 -229 -247 -229q-32 0 -50.5 26.5t-18.5 71t46.5 120.5t118.5 149 t171.5 126t192.5 53z" />
<glyph unicode="K" horiz-adv-x="496" d="M439 638q5 6 13 6t15 -8l10 -11q5 -4 5 -8.5t-11.5 -17.5t-82.5 -92q-157 -173 -180 -203q-12 -12 -12 -14.5t2 -2.5t10 3q99 28 264 123.5t165 131.5q0 2 -4.5 2t-15.5 -5t-21 -5t-10 11q0 8 14 13q38 14 166 103q7 7 16 7t26.5 -19t17.5 -37q0 -115 -177 -211 q-152 -84 -398 -161q-17 -5 -17 -10q0 -17 43.5 -72t103 -111t94 -68.5t34.5 -32.5q0 -4 -8 -8q-47 -23 -78 -23t-61.5 18.5t-60 54t-52 67.5t-52.5 78.5t-41.5 62t-17 15.5t-8.5 -4q-74 -88 -110 -139.5t-60 -110.5q-1 -9 -8 -9q-9 0 -29.5 22t-24.5 46q0 53 124 215 q60 80 170.5 188.5t246.5 215.5z" />
<glyph unicode="L" horiz-adv-x="595" d="M189 100q72 82 186 220t168 196t93 88q91 68 185 68q21 0 47.5 -17t26.5 -53q0 -35 -67 -108q-33 -36 -95.5 -73.5t-139.5 -60.5q-29 -5 -42.5 -5t-13.5 3t7 7q84 46 188.5 139t104.5 122q0 4 -5.5 4t-12 -2t-14.5 -4t-34 -16.5t-54.5 -36t-71 -66t-85.5 -102.5 q-165 -231 -214 -284q-8 -9 -20 -22q25 -3 75 -7t67.5 -6.5t51.5 -10.5t54 -20q52 -32 100 -87q11 -12 11 -16t-3 -4q-5 0 -13 4q-15 4 -43.5 11t-122.5 18t-172.5 11t-114.5 -1q-53 -50 -149 -93t-144.5 -43t-91.5 25.5t-43 68.5q0 31 47 68q108 85 354 85zM-157 -82 q0 -10 24 -13q31 0 53 3.5t64.5 22.5t89.5 56q-64 0 -147.5 -23t-83.5 -46z" />
<glyph unicode="M" horiz-adv-x="667" d="M909 649l14 -4q7 0 17 10.5t17.5 10.5t21.5 -8.5t14 -15.5q0 -16 -73 -104.5t-160 -189.5t-160 -203.5t-73 -142.5q0 -68 10 -104l3 -10q0 -7 -17 -7t-26.5 2.5t-22.5 10.5q-24 16 -34 85q0 33 6 61.5t28.5 68.5t44 72t75.5 97q71 85 159 183.5t96.5 108t8.5 11.5 t-56.5 -48.5t-195 -180.5t-171.5 -169q-131 -150 -161 -195q-5 -13 -17.5 -13t-22.5 17q-17 29 -17 73q20 73 78 184.5t129 219.5l47 61q7 11 7 14l-1 1q-1 0 -77 -82t-90 -98l-214 -234q-127 -139 -183 -168q-97 -32 -117 -36q-11 0 -11 4t10 13q146 149 183 185 q8 5 131 125.5t263.5 249.5t199.5 161q39 12 58.5 12t19.5 -11q0 -7 -9 -16q-151 -216 -177 -273l-61 -115q-3 -7 -3 -10q0 -6 2 -4q79 64 207.5 180t196.5 168.5t103 52.5z" />
<glyph unicode="N" horiz-adv-x="503" d="M486 647q29 24 66 24t37 -15q0 -6 -9 -18q-8 -18 -75 -136q-175 -306 -175 -408q0 -8 4 -8q6 0 20 20q41 71 105 163t121 162t129 131t131 76q98 16 127 16q3 -1 3 -4.5t-11 -9.5q-113 -63 -280.5 -239.5t-302.5 -362.5q-36 -61 -56 -76t-48 -15q-52 0 -52 110 q0 48 19 98q70 187 131 268q34 50 34 55q0 3 -12 -12q-249 -313 -352 -410q-71 -74 -161 -152t-144 -107q-17 -14 -36 -14t-46 16t-27 37q0 11 12 20l164 138q15 13 18.5 13t3.5 -3.5t-3 -9.5t-9.5 -13t-13.5 -13l-17 -18q-31 -31 -31 -34.5t2 -3.5t10 6q96 66 277 248.5 t314 331.5z" />
<glyph unicode="O" horiz-adv-x="497" d="M562 635q72 46 122 46q46 0 58 -35q4 -12 4 -19q0 -38 -43 -119t-114 -175.5t-153 -181.5t-171 -145t-156 -58q-47 0 -87 40t-40 97.5t32 129t88.5 144.5t124.5 136.5t148.5 103.5t153.5 40q20 0 33 -4zM83 24q51 0 199 130t273.5 271.5t125.5 176.5q0 3 -4 3 q-34 0 -95.5 -40t-117.5 -90t-96.5 -89t-46.5 -48t-10 -9q-2 0 -2 5l2 15q11 36 67 117l19 28q7 13 7 15.5t-2 2.5q-8 0 -27 -17q-75 -68 -133 -137.5t-88.5 -120t-49.5 -96.5q-30 -70 -30 -93.5t9 -23.5z" />
<glyph unicode="P" horiz-adv-x="578" d="M684 640q43 -24 70.5 -65t27.5 -92t-64 -117t-155.5 -112.5t-159 -46.5t-97.5 56q-172 -231 -194 -280q1 -5 1 -14.5t-11 -9.5t-28.5 18.5t-17.5 52.5q0 10 1 16q9 66 183.5 260t251.5 236q16 8 24 8t16.5 -5t8.5 -12t-4 -11q-75 -78 -90 -95l-119 -138q-2 -3 -2 -6 q0 -7 9 -7q40 0 108.5 23t135.5 57.5t116 81t49 86.5q0 33 -63 49t-135.5 16t-156.5 -20.5t-146.5 -50.5t-112.5 -62.5t-75.5 -57t-25.5 -32t7 -7.5t38 10q100 33 196 89q7 4 9.5 4t2.5 -2.5t-12.5 -19t-34.5 -40t-48 -45.5t-58.5 -37.5t-63 -15.5t-60 24.5t-29.5 67 t42 92.5t110.5 95t170.5 76t199 31t186 -48z" />
<glyph unicode="Q" horiz-adv-x="554" d="M42 356q1 53 58.5 116t153 109t189.5 46q57 0 101.5 -14.5t69 -35.5t40.5 -48q25 -44 25 -89q0 -75 -99.5 -168.5t-269.5 -187.5q-24 -14 -24 -20q0 -3 33.5 -3t89 -11t115.5 -44t98 -84q3 -3 3 -6t-3.5 -3t-57 11.5t-145.5 23t-176.5 11.5t-133 -1.5t-86 -6t-53.5 -7.5 t-54 -13q-57 -15 -68 -15t-42 14.5t-31 33.5q0 9 12 17q29 18 131 42t159 27q11 0 95.5 45t186 108.5t183.5 144.5t82 140q0 49 -101 49q-36 0 -88.5 -12t-97.5 -30t-104.5 -56.5t-112.5 -91.5q-27 -28 -27 -44q0 -11 16 -11q38 1 125.5 39.5t136.5 94.5q18 22 24 22 q6 -4 6 -8q0 -64 -95 -138t-164 -74q-12 0 -32 9.5t-33 21.5t-24 37.5t-11 59.5z" />
<glyph unicode="R" horiz-adv-x="650" d="M-51 371q0 31 24 60t53 56t85.5 64.5t120.5 67t157 50.5t192 21q86 0 171 -33q43 -17 70.5 -49.5t27.5 -75.5q0 -67 -81 -134t-283 -149q-20 -5 -20 -14q0 -3 4 -7q142 -164 234 -229q11 -9 11 -18q0 -22 -65 -22t-108 42q-182 193 -229 258q-1 4 -3.5 4t-5.5 -4 q-162 -199 -187 -261q0 -16 -5.5 -16t-17.5 6t-25 23t-13 41.5t20 60.5q142 206 300 346q67 59 126 92q9 8 16.5 8t18 -7t10.5 -16.5t-8 -16.5q-131 -132 -180 -197q-13 -14 -13 -19t5 -5h4q120 33 194 66q157 71 238 150q17 16 17 31q0 23 -38.5 35t-122 12t-204.5 -25 t-241 -80.5t-178 -128.5q-8 -9 -8 -12.5t11 -3.5t68.5 25t98.5 49q64 43 80 43q6 0 6 -2.5t-12.5 -17.5t-35 -38t-55.5 -51q-75 -65 -138 -65q-34 0 -55.5 21.5t-25.5 43.5z" />
<glyph unicode="S" horiz-adv-x="566" d="M413 247l-102 -4q-94 0 -126.5 6.5t-58 15.5t-40.5 21q-37 28 -37 75q0 14 17 42t58.5 66.5t99 73t151.5 60.5t204 30q39 0 82.5 -9.5t72 -22.5t50.5 -39.5t22 -61.5q0 -28 -54 -60q-60 -36 -158.5 -36t-98.5 14q0 11 57.5 26t115.5 35t58 45q0 13 -44 13 q-290 0 -498 -150q-39 -29 -39 -50q0 -33 208 -33q187 -2 187 -100q0 -70 -95 -133t-223.5 -98t-241.5 -36q-53 0 -112 28t-59 68q0 13 22 14q118 13 151 28q8 2 13 2t5 -2q0 -4 -12 -13q-11 -6 -24 -11q-28 -10 -28 -13t20 -3t101 16t173.5 41t163.5 62t71 71q0 22 -52 22z " />
<glyph unicode="T" horiz-adv-x="228" d="M-27.5 515q-35.5 27 -35.5 44t24 26q46 20 93 31l15 3q5 2 9 2q7 0 7 -7.5t8 -7.5t73 14q195 40 369 40q102 0 173.5 -24.5t71.5 -69.5q0 -10 -27.5 -10t-66 -1t-96.5 -3q-136 -6 -136 -27q0 -4 2 -6q0 -5 -11 -16.5t-34 -36.5t-86 -95.5t-116 -132.5 q-137 -162 -189 -250q-3 -34 -20 -34q-13 0 -34.5 20t-21.5 49q0 54 81 152t320 315q11 11 20 18q14 11 14 13t-6 2t-24 -2l-306 -30q-7 -3 -21 -3t-49.5 27z" />
<glyph unicode="U" horiz-adv-x="573" d="M494 44q0 -56 13 -119.5t27 -77.5q0 -3 -7 -3q-46 0 -79 36q-60 67 -60 176q0 52 24 110q6 13 19.5 43t20.5 48q0 1 -2 1q-5 0 -31 -29.5t-67 -71.5t-90 -84.5t-112 -72t-121 -29.5q-56 0 -71 25q-11 19 -11 43q0 50 51.5 121t125.5 139.5t147.5 132.5t125.5 115.5 t53 72.5q0 10 -15 10q-97 0 -215 -66.5t-215 -165.5q-9 -9 -14 -9q-3 0 -3 5l2 10q28 74 83 132.5t115 89.5q123 63 199 63q153 0 153 -96q0 -55 -154 -194q-65 -58 -130 -115q-155 -137 -155 -185q0 -4 4 -4q55 0 232.5 133.5t368.5 317.5l123 119q9 18 21 18q5 0 18 -8.5 t18.5 -11.5t11.5 -7q11 -10 11 -17t-10 -16l-236 -243l-20 -22q-149 -164 -149 -314z" />
<glyph unicode="V" horiz-adv-x="456" d="M333 659q132 0 132 -108q0 -19 -19 -72t-71 -139.5t-122 -157.5q-40 -47 -40 -50.5t3 -3.5q52 62 149.5 162t172 166.5t161 121t134.5 54.5t77 -16t29 -47q0 -18 -12 -18q-72 -2 -163 -48.5t-174.5 -115t-170 -148.5t-154.5 -148q-159 -159 -204 -159q-7 0 -13 3 q-6 5 -19 13.5t-21 14t-8 12t12 19.5q116 120 195 246q76 122 131 238l20 43q19 40 19 54.5t-8 14.5q-23 0 -96.5 -41t-156 -108t-112.5 -124q-8 -8 -11.5 -8t-3.5 6q0 31 31 88t78 114.5t111.5 99.5t123.5 42z" />
<glyph unicode="W" horiz-adv-x="820" d="M-24 348q-6 0 -6 15t26 53.5t75.5 83t110.5 84.5t141.5 66.5t159.5 26.5q8 -3 20.5 -7.5t33 -19t20.5 -26.5t-5 -18q-77 -70 -172.5 -169t-146.5 -165l-72 -94q-6 -9 -6 -14v-1l16 8q2 1 3 2q365 257 489 364q3 4 8 4t7 -3t19 -18.5t17 -23t-6 -12.5q-99 -94 -202 -236 t-103 -219q0 -9 9 -9q20 0 94 54t168.5 137t200 203.5t172.5 234.5q9 19 14 31.5t15.5 12.5t22 -29.5t11.5 -51.5q0 -35 -80 -140t-187 -217t-227 -199.5t-189 -87.5q-33 0 -65.5 26t-32.5 84q0 72 43 148q17 30 41 54l23 27l4 8v1q0 2 -1 2q-3 0 -9 -6 q-223 -196 -302 -260.5t-93 -64.5t-23 14q-4 5 -8.5 10.5t-6.5 8l-4 5t-3 3.5q-1 5 -1 15t7 29t13.5 36.5t37.5 74t74 114t126 140.5t186 160q19 15 19 19t-4 4q-75 0 -249.5 -100t-213.5 -163q-3 -9 -9 -9z" />
<glyph unicode="X" horiz-adv-x="449" d="M463 300q-8 -7 -27 -22q-37 -27 -51 -51q-47 -90 -47 -206t35 -188q0 -3 -7 -3q-46 0 -79 36q-60 67 -60 176q0 39 19 96q1 4 1 6t-1.5 2t-6.5 -5q-4 0 -10 -6q0 2 -29 -20t-74.5 -56t-95.5 -68.5t-99.5 -59t-72.5 -24.5t-53 18.5t-30 24.5q0 8 14 18q154 100 171 125 q8 5 12 5t4 -3q0 -10 -26.5 -35.5t-55.5 -46.5q-5 -5 -5 -7.5t2 -2.5t8 3q255 157 330 212q31 15 37 39q4 18 25 68t41 89q58 109 124 179q10 8 10 11t-3 3q-28 0 -114 -34.5t-186.5 -96.5t-141.5 -122q-8 -7 -12.5 -7t-4.5 5q0 36 45 91t112.5 107t159 89t173.5 37 q42 0 62 -31q7 -12 7 -26t-25 -52q-85 -129 -103 -192q-2 -5 -2 -9t2 -4t9 5q333 243 382 299q7 10 13.5 10t11.5 -3q21 -21 21 -27t-8 -14q-231 -197 -401 -332z" />
<glyph unicode="Y" horiz-adv-x="602" d="M905 637q7 -6 7 -14.5t-6 -14.5l-115 -124q-166 -195 -374 -488q-53 -89 -182 -218q-68 -69 -151.5 -117t-154.5 -48q-15 0 -34 18t-19 51q0 44 58.5 102.5t137.5 99.5t134 41h4q189 219 233 268l159 175q1 1 2.5 3t5.5 7q8 10 6 10t-17 -14l-145 -142 q-264 -259 -385 -259q-29 0 -55.5 23t-26.5 65q0 80 147 227l267 238q48 45 48 59q0 4 -6 4t-29 -4t-71.5 -19.5t-102 -39.5t-123 -70t-132.5 -104q-10 -14 -22 -14h-3q-4 1 -4 5q0 10 15 25q89 128 213 209t223 81q42 0 77 -22.5t35 -75.5q0 -37 -45 -94.5t-109.5 -116.5 t-129.5 -115q-155 -135 -155 -176q0 -2 9.5 -2t40 15t71.5 43t81.5 57.5t90 68.5t83.5 66q94 75 123 100l212 181l59 58q10 11 19 11t13 -3zM184 -101q8 8 8 9.5t-2 1.5l-17 -6q-97 -52 -176 -138t-79 -115q0 -3 3 -3l6 2q51 30 115.5 92t103.5 110z" />
<glyph unicode="Z" horiz-adv-x="500" d="M645 554l-13 -2q-182 -26 -294.5 -55t-191.5 -29q-55 0 -79 22q-21 20 -26 43q0 10 18 24q80 48 118 48q4 0 4 -2.5t-3 -8.5q0 -3 3 -3q25 8 54.5 16t131 22.5t199 14.5t121.5 -18l67 -42q11 -8 11 -17.5t-15 -14.5t-40 -15.5t-101.5 -49t-153 -84t-182.5 -121 t-201 -159.5q-23 -19 -23 -23t2 -4t12 2q111 37 213 37t174 -44.5t72 -106.5q0 -6 -5 -6l-8 2q-4 11 -82.5 18.5t-148.5 7.5q-231 0 -337 -34q-7 -3 -16 -3q-22 0 -34 22q-23 5 -23 29q0 59 129.5 163.5t308 203.5t334.5 158q9 5 9 7t-4 2z" />
<glyph unicode="[" horiz-adv-x="490" d="M361 568l1 11q0 16 20 27l184 31q23 0 36.5 -13t15 -21.5t1.5 -14.5q0 -16 -19 -21.5t-50 -6.5t-43 -4q-18 -6 -203 -230q-43 -52 -73 -88l-30 -36q-14 -19 -35.5 -47.5t-30.5 -41.5t-21 -30q-19 -29 -19 -49t24.5 -36t84.5 -38q5 -7 5 -12q0 -14 -49 -14l-147 8 q-4 0 -13 6t-18.5 20.5t-9.5 31t7 31.5q58 110 138 204q48 60 132 155.5t110 121.5t42 37q-27 0 -33.5 3.5t-6.5 15.5z" />
<glyph unicode="\" horiz-adv-x="364" d="M362.5 1.5q-13.5 -6.5 -20.5 -6.5q-10 0 -14 6q-43 27 -103 282t-60 352q0 30 62 54l19 5q20 0 20 -41l-3 -44q0 -99 42 -284t78 -305q-2 -6 -4.5 -9t-16 -9.5z" />
<glyph unicode="]" horiz-adv-x="529" d="M258 -6l-1 -11q0 -16 -20 -27l-184 -31q-23 0 -36.5 13t-15 21.5t-1.5 14.5q0 16 19 21.5t50 6.5t43 4q18 6 204 230q42 52 72 88l30 36q14 19 35.5 47.5t30.5 41.5t20 30q20 29 20 49t-24.5 36t-84.5 38q-5 7 -5 12q0 14 49 14l147 -8q4 0 13 -6t18.5 -20.5t9.5 -31 t-7 -31.5q-58 -110 -138 -204q-48 -60 -132 -155.5t-110 -121.5t-42 -37q27 0 33.5 -3.5t6.5 -15.5z" />
<glyph unicode="^" horiz-adv-x="301" d="M342 484q0 -38 29 -101q-1 -12 -31 -12q-17 0 -45.5 50.5t-28.5 61.5q-37 -46 -104.5 -78t-103.5 -32q-11 0 -17.5 5t-6.5 10q0 19 13 19q36 7 77.5 36t70.5 59q76 77 84 77t17 -3q18 -8 18 -11q6 2 18 2q29 -3 29 -18z" />
<glyph unicode="_" horiz-adv-x="430" d="M460 -100l-379 5q-8 -3 -14.5 -3t-8.5 2.5t-2 12.5l10 57q2 2 19 2l113 -2q175 0 217 3q7 3 14 3q28 0 44 -31q8 -10 8 -20q0 -25 -21 -29z" />
<glyph unicode="`" d="M307 413q10 -14 10 -29q-4 -11 -16 -11q-13 3 -43.5 19.5t-70 55.5t-48.5 82l5 27q13 39 42 39q19 0 28 -20q7 -33 32.5 -79.5t60.5 -83.5z" />
<glyph unicode="a" horiz-adv-x="390" d="M178 42l8 64q0 3 -1.5 3t-5.5 -4q-13 -14 -33 -34.5t-68.5 -55t-78.5 -34.5q-5 1 -12.5 3.5t-19.5 16.5t-12 40t39.5 79.5t94.5 105t122.5 89.5t117.5 38q19 -1 30 -27q10 10 18 10t19 -12q6 -1 12 -6.5t6 -15.5t-14 -22q-21 -26 -49 -59t-40 -47.5t-25 -32.5 q-22 -31 -24 -50q102 49 321 211q9 -7 9 -17t-8 -17t-19.5 -17t-45.5 -39t-65.5 -55.5t-72 -59t-72.5 -55.5q-77 -55 -96 -55t-27 12t-8 43zM76 84q12 0 73.5 49t116.5 98l56 49q4 4 4 5.5t-3 1.5q-38 0 -99 -43.5t-105.5 -92t-44.5 -65.5q0 -2 2 -2z" />
<glyph unicode="b" horiz-adv-x="353" d="M460 681q52 0 52 -28q0 -41 -78.5 -124t-157.5 -145l-78 -63q-6 -7 -6 -11t5 -4q79 51 142 53q12 0 22 -7q34 -28 34 -65t-76 -125q32 8 87.5 41.5t94.5 63.5l39 30q9 -7 9 -17t-9 -18q-165 -153 -250 -153q-6 0 -18 2l2 3q-59 -58 -118 -96.5t-97 -38.5q-94 0 -94 64 q0 32 20.5 75.5t49.5 83t58.5 74.5t50 56t20.5 20q71 82 123.5 151.5t69.5 99t34 50.5t28.5 24.5t40.5 3.5zM58 35q41 0 106.5 58t112 121t46.5 82q0 3 -3 3q-52 0 -118 -56t-108.5 -117t-42.5 -84q0 -7 7 -7z" />
<glyph unicode="c" horiz-adv-x="381" d="M420 309q-1 -36 -44.5 -71t-105.5 -35q-26 0 -26 15q0 6 9 9q60 35 76 57q2 4 2 9t-5 5q-85 -12 -162 -93t-77 -126q0 -21 16 -21q74 0 156 43t244 158q11 8 33.5 24t26.5 19q9 -7 9 -17t-9 -18q-50 -50 -129.5 -112t-182.5 -117.5t-168 -55.5q-77 0 -77 82 q0 57 38 111.5t93 91.5t115 59.5t96.5 22.5t52.5 -10t17 -20z" />
<glyph unicode="d" horiz-adv-x="447" d="M79 84q12 0 73.5 49t117.5 98l55 49q4 4 4 5.5t-3 1.5q-38 0 -99 -43.5t-105.5 -92t-44.5 -65.5q0 -2 2 -2zM252 69q0 -3 6.5 -3t58.5 30q136 77 320 206q9 -7 9 -17t-10 -19t-28.5 -26t-70.5 -61t-97 -80q-118 -95 -174 -112q-18 -5 -39 -5q-20 3 -36.5 15t-16.5 28 t7.5 47.5t7.5 34t-1.5 2.5t-5.5 -4q-13 -14 -33 -34.5t-68.5 -55t-78.5 -34.5q-5 1 -12.5 3.5t-19.5 16.5t-12 40t39 79.5t95 105t123 89.5t117 38q18 0 30 -27q-1 7 65 90.5t156.5 168t140.5 84.5q17 0 17 -16q0 -25 -33.5 -68t-72 -80t-99.5 -93q-141 -128 -212.5 -218 t-71.5 -125z" />
<glyph unicode="e" horiz-adv-x="364" d="M310 302q-26 0 -88 -53.5t-62 -65.5q0 -2 3 -2q22 0 87.5 49t65.5 67q0 5 -6 5zM97 -18q-77 0 -77 94q0 59 51.5 125.5t121.5 109t124 42.5q24 0 44.5 -19t20.5 -37q0 -33 -47 -74.5t-98.5 -67t-68 -25.5t-24.5 15q-4 3 -11 3t-23 -26.5t-16 -43t12 -20.5q76 0 165 44.5 t246 156.5q11 8 33.5 24t26.5 19q9 -7 9 -17t-9 -18q-50 -50 -129.5 -112t-182.5 -117.5t-168 -55.5z" />
<glyph unicode="f" horiz-adv-x="238" d="M44 -9q0 -2 5 -10q14 -22 14 -68t-47.5 -119.5t-110 -127t-102.5 -53.5q-50 0 -63 90q0 124 181 328l545 617q6 20 30 20q37 0 49 -9t12 -21.5t-21 -36.5l-488 -533q1 -1 6.5 -1t11.5 3q185 99 364 232q9 -7 9 -17t-9.5 -19t-26.5 -25.5t-66 -60t-94.5 -79t-101.5 -68.5 t-97 -42zM-191 -299q26 0 78 51t94 115t42 97.5t-21 33.5q-9 0 -21 -10q-48 -46 -92 -114t-65 -113t-21 -52.5t6 -7.5z" />
<glyph unicode="g" horiz-adv-x="320" d="M390 271.5q0 -9.5 -8.5 -17.5t-93.5 -122.5t-114.5 -157.5t-41.5 -62.5t-49.5 -69.5t-75.5 -90.5t-91.5 -78t-102.5 -47.5q-21 0 -42 9q-40 17 -40 63q0 58 108.5 136.5t161.5 78.5q8 0 8 -3t-10 -10q-86 -59 -156.5 -127.5t-70.5 -97.5q0 -4 6 -4t26 13q48 34 136 124 q97 108 119 138q39 53 93 110l20 21q1 2 3 4t5 7q8 13 7 13q-3 0 -13 -10t-28.5 -27.5t-62.5 -47t-71 -29.5t-42 18t-15 38.5t26 61.5t68 89t108.5 89t136.5 49q41 -9 53 -29q2 1 8 1t20.5 -11.5t14.5 -21zM65 81q26 2 90.5 48t117 92t52.5 53q0 2 -4 2q-52 -11 -116 -55 t-104 -85t-40 -52q0 -3 4 -3z" />
<glyph unicode="h" horiz-adv-x="410" d="M248 83q4 0 16 6q149 80 328 213q9 -7 9 -17t-10 -19t-28.5 -26t-70.5 -61t-97 -80q-118 -95 -174 -112q-18 -5 -39 -5q-34 0 -34 53q0 18 22 59.5t22 60.5q0 2 -3 2t-15 -9q-139 -108 -169 -150q-6 -9 -16 -9q-22 0 -28 21q0 30 84.5 152t198.5 256.5t186 189.5 q21 20 98 20q12 -3 12 -10t-7 -14q-288 -278 -366 -385q-4 -4 -10.5 -14.5t-6.5 -13.5l1 -1q4 0 63 44.5t88 63.5q9 9 38 9q25 -3 25 -16q0 -4 -2 -7q-74 -105 -89 -134q-30 -47 -30 -62q0 -5 4 -5z" />
<glyph unicode="i" d="M351 495q10 0 13 -4q14 -17 14 -27.5t-6 -18t-14.5 -17t-34 -26t-49.5 -16.5q-18 3 -18 22q0 30 36 58.5t59 28.5zM111 101q-8 -14 -8 -25t12 -11q7 0 24 6q187 98 366 231q9 -7 9 -17t-10 -19t-28.5 -26t-70.5 -61t-97 -80q-118 -95 -174 -112q-18 -5 -39 -5 q-77 0 -77 82q0 32 35 91.5t72 105t49 50.5q18 11 39 11t40 -8q6 -3 6 -8t-9.5 -15t-29 -31t-58 -72.5t-51.5 -86.5z" />
<glyph unicode="j" horiz-adv-x="160" d="M199 341l43 -2q13 -1 13 -9q0 -4 -31.5 -46.5t-97 -134.5t-107.5 -151.5t-89.5 -124.5t-82 -104.5t-71.5 -74.5q-69 -64 -139 -64q-13 0 -35.5 15t-22.5 43.5t53 94t126.5 120.5t121.5 55q4 0 4 -2q1 -2 2.5 -2t4.5 3l280 369q7 15 28 15zM-354 -310q26 0 128 120.5 t102 130.5q0 2 -2 2q-22 0 -126.5 -109.5t-104.5 -140.5q0 -3 3 -3zM333 517q10 0 13 -4q14 -17 14 -27.5t-6 -18t-14.5 -17t-34 -26t-49.5 -16.5q-18 3 -18 22q0 30 36 58.5t59 28.5z" />
<glyph unicode="k" horiz-adv-x="393" d="M497 608q26 0 30 -12q0 -4 -49.5 -56.5t-136 -144t-148.5 -162.5q-4 -3 -4 -8t2.5 -5t6.5 4l38 30q41 26 90.5 46t82.5 20q20 -6 37 -28q9 -9 9 -21q0 -36 -88.5 -92t-162.5 -67q-1 -1 -1 -2q0 -8 47.5 -56.5t73.5 -63.5q21 -10 27 -10q4 -2 4 -5t-6 -8q-23 -19 -47 -19 t-32.5 2t-16.5 5t-19.5 15.5l-23 25t-37.5 43t-54 60.5q-4 6 -9 6t-10 -5q-62 -47 -82 -104q-1 -9 -12 -9h-1q-41 0 -55 44q0 10 9 28q86 129 167.5 218t290.5 291q20 16 26 21t12.5 9.5t10.5 5.5q8 4 20 4h11zM358 266q-20 -1 -66.5 -28t-83.5 -54l-36 -26q-4 -4 -4 -6.5 t3 -2.5q24 0 107 50.5t83 62.5z" />
<glyph unicode="l" horiz-adv-x="329" d="M134 66q33 0 130.5 59t177.5 118l81 59q9 -7 9 -17t-10 -19t-28.5 -26t-70.5 -61t-97 -80q-118 -95 -174 -112q-18 -5 -37 -5t-30 3t-24 13q-26 22 -26 98q0 21 18 64t59.5 104t97 122t141 122t182.5 99q15 5 27 5t22 -10.5t14 -21.5l5 -10q0 -23 -71 -101 q-73 -81 -168.5 -154.5t-177.5 -125.5q-67 -44 -67 -92q0 -31 17 -31zM224 273q25 0 151.5 123t126.5 137l-1 2l-17 -8q-52 -34 -138.5 -116t-119.5 -128q-4 -5 -4 -7.5t2 -2.5z" />
<glyph unicode="m" horiz-adv-x="643" d="M444 62q0 -9 11.5 -9t42 14t73 43t113 82.5t123.5 90.5q9 -7 9 -17t-9 -18q-32 -31 -81 -77.5t-149.5 -124.5t-140.5 -78q-77 0 -77 82q0 31 24 65l43 59q6 9 6 10.5t-6 -3.5q-174 -145 -222 -170q-8 -5 -20 -5q-33 0 -33 30q0 10 5 18q58 84 89 113l17 17q2 2 2 4t-2 2 t-6 -4l-107 -84q-93 -73 -101.5 -77.5t-15.5 -4.5t-22 8.5t-15 19.5q0 3 3 8q98 108 143 178q19 30 33.5 53.5t23 33.5t18.5 10t22.5 -11.5t12.5 -23.5t-8 -25q-34 -61 -53 -79q-3 -3 -3 -5.5t2 -2.5l3 1l134 93q51 35 61 35t21.5 -6.5t11.5 -14.5t-5 -16l-65 -89 q-13 -16 -13 -18t1 -2l5 3q125 85 169.5 118t53.5 42q14 10 23.5 10t12.5 -2l22 -17q10 -5 10 -13t-4 -13q-59 -64 -94.5 -102t-51.5 -56q-26 -31 -32 -50q-8 -14 -8 -25z" />
<glyph unicode="n" horiz-adv-x="460" d="M219 331q8 0 26.5 -8t18.5 -18q0 -7 -5 -14l-75 -104q-13 -16 -13 -18t1 -2l5 3q116 81 191 142q14 10 23.5 10t12.5 -2l28 -8q10 -5 10 -13t-4 -13q-19 -21 -43.5 -47.5t-36.5 -40t-27 -30.5t-21.5 -26t-14.5 -20.5t-11 -19.5q-6 -23 -6 -40q0 -9 11.5 -9t42 14t73 43 t113 82.5t123.5 90.5q9 -7 9 -17t-9 -18q-32 -31 -81 -77.5t-149.5 -124.5t-140.5 -78q-77 0 -77 82q0 31 24 65l43 59q6 9 6 10.5t-6 -3.5q-174 -145 -222 -170q-8 -5 -20 -5q-33 0 -33 30q0 10 5 18q74 68 104 111q24 24 50.5 67t45 71t29.5 28z" />
<glyph unicode="o" horiz-adv-x="328" d="M57 44q32 0 79 42t49 58q-12 10 -25.5 36.5t-14.5 26.5q-31 -29 -55 -67q-38 -64 -38 -88q0 -8 5 -8zM273 289q-10 0 -41.5 -31t-31.5 -43q0 -3 6 -12t9 -9q17 0 38.5 41t21.5 47.5t-2 6.5zM275 160q28 0 87.5 34t104.5 68l45 35q9 -7 9 -17t-9 -18q-165 -153 -250 -153 q-6 0 -18 2q-113 -131 -194 -131q-54 8 -68 38q-8 15 -8 38q0 66 76 157.5t191 134.5q10 0 15 -4.5t9 -5t10.5 4t17.5 5t23 -12.5q16 -13 16 -32q0 -56 -57 -143z" />
<glyph unicode="p" horiz-adv-x="436" d="M108 30q33 0 100.5 38.5t121 83.5t53.5 63q0 3 -3 3q-22 0 -92.5 -44.5t-130.5 -90t-60 -49.5t11 -4zM362 452q11 0 24 -16.5t13 -24.5t-3 -11q-69 -60 -134 -126t-96 -102l-30 -36q-8 -8 -8 -11t2 -3t5 3l9 7q164 146 255 146q12 0 22 -7q34 -28 34 -63.5t-50.5 -90.5 t-124.5 -96.5t-123.5 -41.5t-65.5 26l-11 16q-1 1 -3 1q-22 0 -145.5 -140t-158.5 -203q-4 -18 -16 -18q-6 0 -11 4l-45 35q-4 2 -4 9q0 12 151.5 196.5t317.5 365.5t196 181z" />
<glyph unicode="q" horiz-adv-x="314" d="M378 291l-6 -10q0 -2 5 -6t5 -11t-87 -100.5t-153 -164.5q19 -25 19 -72.5t-33.5 -110.5t-78 -112t-89.5 -83t-69.5 -34t-43 27t-18.5 67q0 113 187 290l173 155q6 6 10 11t6.5 8t1 3t-16 -12.5t-39.5 -31.5t-64 -42.5t-58 -23.5q-41 0 -43 55q1 44 56 101t137.5 98.5 t154.5 41.5q7 0 24.5 -15t19.5 -28zM-97 -330q14 0 71 53.5t111 126.5t54 114l-1 11q-3 10 -6 10q-43 -43 -137.5 -166t-94.5 -146q0 -3 3 -3zM87 127q24 0 127 65.5t103 79.5q0 2 -4 2q-43 0 -135.5 -64.5t-92.5 -81.5q0 -1 2 -1z" />
<glyph unicode="r" horiz-adv-x="415" d="M37 187q55 38 115 82q-32 22 -41 43q-3 7 -3 10q0 20 13 26.5t42 6.5q11 0 65 -27t68.5 -27t40.5 8.5t41.5 8.5t22.5 -7q25 -33 25 -40t-6.5 -11.5t-41 -28.5t-67.5 -49t-62 -56t-29 -50q0 -3 5 -3q54 0 364 219q7 0 7 -12.5t-79 -86t-178.5 -144t-144.5 -70.5 q-70 0 -70 70q0 38 25.5 73.5t107.5 95.5q-17 0 -46 8.5t-37 20.5q-26 -23 -90 -77q-15 -11 -39 -11t-24 7.5t16 20.5z" />
<glyph unicode="s" horiz-adv-x="348" d="M182.5 115.5q29.5 42.5 41.5 86t12 69.5q0 7 -10.5 7t-24.5 -11l-131 -101q-14 -8 -32 -8t-18 13q0 9 2.5 12t14.5 10q74 51 202 166q15 20 27 20t40 -7.5t28 -17.5q0 -60 -11 -109t-22.5 -74.5t-11.5 -27.5t2 -2t8 3q75 38 191 124l24 18q9 -7 9 -17t-9 -18 q-2 0 -51.5 -42t-110 -91.5t-129.5 -90.5t-107 -41q-94 0 -94 113q0 9 7.5 16.5t19.5 7.5q0 -5 5.5 -15.5t11.5 -17.5q18 -17 52.5 -17t64 42.5z" />
<glyph unicode="t" horiz-adv-x="313" d="M459 462l51 1q99 0 144 -28q22 -7 22 -18q0 -8 -19.5 -11t-135 -15.5t-158.5 -14.5q-19 -1 -87.5 -66t-130.5 -143t-62 -109q0 -5 5 -8.5t12.5 -3.5t23.5 6q190 112 369 245q9 -7 9 -17t-10 -19.5t-29.5 -27.5t-72.5 -65t-100 -84q-126 -102 -176 -118q-18 -5 -42.5 -5 t-45 25t-20.5 68t55.5 124t151.5 166q9 7 9 13t-21 6l-63 -2q-133 0 -137 30q-31 6 -31 18q0 4 4 4.5t7 1t10 1.5t110.5 16t235.5 25l69 92q6 12 42 12t36 -15q0 -5 -8 -18l-25 -35q-5 -16 -6 -24q0 -7 14 -7z" />
<glyph unicode="u" horiz-adv-x="404" d="M264 89q149 80 328 213q9 -7 9 -17t-10 -19t-28.5 -26t-70.5 -61t-97 -80q-118 -95 -174 -112q-18 -5 -39 -5q-34 0 -34 53q0 11 9.5 33t11 25.5t2.5 5.5t2 3.5t1 3.5t-6 2q-5 0 -33 -26.5t-46.5 -42.5t-42 -30t-38.5 -14q-40 0 -40 37q0 22 15 54q35 74 105 148t100 75 q11 0 20 -8t9 -18t-20 -30t-50.5 -51.5t-43 -52.5t-12.5 -28t8 -7t29 13q57 39 130.5 96t94.5 83q5 18 30 18q48 0 48 -17q0 -7 -47 -52q-141 -135 -141 -167q0 -5 4.5 -5t16.5 6z" />
<glyph unicode="v" horiz-adv-x="290" d="M197 330q11 0 27 -5.5t16 -16t-10 -20.5q-104 -108 -151 -195q-9 -19 -9 -28t5 -9q19 0 82.5 55t125 133.5t66.5 131.5q0 17 5 17q3 0 7 -8q22 -36 22 -64q0 -53 -67 -135t-151.5 -142.5t-135 -60.5t-50.5 50q0 24 19.5 61.5t46.5 73.5q56 73 101 118l20 20q20 24 31 24z " />
<glyph unicode="w" horiz-adv-x="458" d="M98 259q88 46 105.5 63t33.5 17q50 0 50 -12t-63 -69l-15 -13q-14 -14 -45.5 -51.5t-31.5 -48.5q0 -2 2 -2q16 0 87.5 56t92 78.5t27.5 22.5q11 0 16 -9q22 -4 22 -17q0 -6 -5 -12.5t-49 -58.5t-56 -71t-24.5 -47.5t-12.5 -37.5t5 -9q8 0 33 19q52 41 130 140t88 135 q11 36 19.5 36t17.5 -22t9 -51.5t-54.5 -105.5t-132.5 -142t-130 -66q-59 0 -59 59q0 34 18 68q1 3 1 5.5t-2.5 2.5t-9.5 -4l-96 -74q-9 -10 -25.5 -10t-30 15t-13.5 28q0 53 112 163q-29 0 -29 9q0 6 15 16z" />
<glyph unicode="x" horiz-adv-x="422" d="M195 79q0 -21 21 -21q68 0 350 201q11 8 33.5 24t26.5 19q9 -7 9 -17t-9 -18q-74 -74 -229.5 -179t-210.5 -105q-68 0 -68 88q-5 -2 -36 -21q-83 -53 -107 -53q-11 0 -20.5 9.5t-9.5 23t17.5 22.5t65.5 29.5t96 53.5q1 3 2 13t4 18q9 32 32 80q0 3 -4 3q-26 0 -26 8 q0 5 12 12q26 15 50 47q23 23 72 26q16 0 16 -11q0 -14 -26 -44q-32 -56 -32 -74q0 -2 2 -2q16 0 98 49t91.5 59t15 10t12.5 -9.5t7 -16t-6 -11.5t-52 -38q-160 -113 -192 -136q-1 -4 -2 -11l-2 -11q-1 -10 -1 -17z" />
<glyph unicode="y" horiz-adv-x="329" d="M379 323q47 -5 47 -21q0 -7 -8 -16q-141 -157 -324 -400q-53 -72 -108 -136t-103 -93.5t-100 -29.5q-26 0 -46 14t-20 38q0 56 54 116t121 97.5t116 43.5l21 -3q10 1 73.5 77t64 80.5t-1.5 4.5l-19 -15q-75 -70 -117 -70q-27 0 -27 38q0 51 83 161t122 110q3 0 7 -2 q28 -7 28 -20q0 -5 -2.5 -7.5t-20 -19.5t-34.5 -35.5t-36 -40.5q-43 -50 -43 -75q0 -6 6.5 -6t24.5 11q142 97 222 185q7 14 20 14zM-231 -329q35 11 94 68.5t101 108.5l42 52q6 8 6 10t-3 2q-32 0 -91.5 -49t-106 -107t-46.5 -82q0 -3 4 -3z" />
<glyph unicode="z" horiz-adv-x="367" d="M297 260l-4 -1q-92 -18 -101.5 -18t-18.5 9q-28 40 -28 54.5t16 18.5q87 19 143.5 19t68.5 -13q37 -37 37 -45t-10 -14q-78 -41 -160.5 -95.5t-112.5 -87.5q0 -1 5.5 -1t44 11.5t70.5 11.5t43 -11q51 -59 51 -80q0 -8 -8 -8q-5 0 -17.5 9t-30.5 9t-30 -4 q-116 -34 -186 -34q-11 0 -31 20.5t-20 40.5q0 32 44 66.5t126 78.5q97 52 109 64z" />
<glyph unicode="{" horiz-adv-x="467" d="M584 724q53 0 53 -21q0 -13 -34 -25q-26 -7 -80.5 -82t-95.5 -147l-41 -72q-11 -18 -37 -35t-47 -25l-20 -8q14 -31 14 -54t-62 -149t-62 -150t11 -42t11 -24q0 -13 -20 -13q-9 0 -25.5 12t-32.5 39.5t-16 68t32 108.5t64 122.5t32 67.5t-9.5 19t-9.5 18v1q3 12 47 27 q43 17 146 215q31 60 69.5 96t63.5 44.5t49 8.5z" />
<glyph unicode="|" horiz-adv-x="410" d="M596 702q11 0 24 -16.5t13 -24.5t-3 -11q-776 -830 -857 -971q-4 -18 -16 -18q-6 0 -11 4l-45 35q-4 2 -4 9q0 12 210 259t434.5 490.5t254.5 243.5z" />
<glyph unicode="}" horiz-adv-x="395" d="M82 -122q-53 0 -53 21q0 13 34 25q26 7 80.5 82t95.5 147l41 72q11 18 37 35t47 25l20 8q-14 31 -14 54t62 149t62 150t-11 42t-11 24q0 13 20 13q9 0 25.5 -12t32.5 -39.5t16 -68t-32 -108.5t-64 -122.5t-32 -67.5t9.5 -19t9.5 -18v-1q-3 -12 -47 -27q-43 -17 -146 -215 q-31 -60 -69.5 -96t-63.5 -44.5t-49 -8.5z" />
<glyph unicode="~" horiz-adv-x="500" d="M560 531q15 0 15 -10q0 -11 -19.5 -33.5t-35.5 -36.5q-39 -33 -93 -33q-18 0 -63.5 19t-69 19t-54 -10t-35.5 -10.5t-5 2.5q0 21 44.5 63t98.5 42q7 0 19 -2q12 0 59 -21t88 -21q17 0 43 24z" />
<glyph unicode="&#xa1;" horiz-adv-x="687" d="M621 421q11 -1 19 -12.5t8 -20.5t-5 -15.5t-12 -14t-28.5 -20.5t-45.5 -13q-18 3 -18 22q0 30 29 52t53 22zM28 -296q-6 0 -29.5 16t-41.5 33q-4 2 -4 9q1 15 114.5 138t247 250t178.5 146q8 6 17 6t17.5 -6.5t8.5 -11t-3 -7.5q-63 -62 -231 -261t-216 -258 q-33 -54 -58 -54z" />
<glyph unicode="&#xa2;" horiz-adv-x="659" d="M93 -2q-3 0 -5 6q-34 17 -53 56t-21 69l-2 30q1 103 84 209.5t206.5 178.5t244.5 89q109 113 170 149q6 6 13.5 6t8.5 -4q20 -13 20 -19q0 -2 -2 -6q-76 -74 -114 -118l7 -7q43 -7 72 -29t29 -61.5t-51 -91.5t-122.5 -88.5t-124.5 -36.5q-24 0 -50.5 14t-26.5 38 q0 14 22 23q77 31 116 60q8 9 13 9q3 0 3 -7q0 -13 -30 -30q-22 -17 -22 -18.5t1 -1.5q19 0 110.5 69.5t91.5 89.5q0 13 -24 13q-86 0 -175.5 -41t-159 -103t-125 -131t-85.5 -128.5t-30 -91.5q0 -20 19 -20q16 0 65 14.5t141.5 58t178.5 103.5q5 5 7.5 5t2.5 -3.5 t-14 -27.5t-42.5 -60t-65 -71t-88 -63t-104.5 -36q-67 -90 -97 -142q-2 -10 -11 -10t-18.5 17.5t-9.5 37.5q0 34 47 101z" />
<glyph unicode="&#xa3;" horiz-adv-x="749" d="M288 109l50 1q58 0 113.5 -11t115.5 -44t98 -84q3 -3 3 -6t-3.5 -3t-57 11.5t-145.5 23t-176.5 11.5t-133 -1.5t-86 -6t-53.5 -7.5t-54 -13q-57 -15 -68 -15t-42 14.5t-31 33.5q0 9 12 17q29 18 131 42t159 27q63 72 98 114l-126 -6q-4 -1 -11 -1t-11 6q0 9 40 34l14 9 q18 5 137 9q160 202 226 269q137 139 265 139q21 0 47.5 -17t26.5 -53q0 -35 -67 -108q-33 -36 -95.5 -73.5t-139.5 -60.5q-29 -5 -42.5 -5t-13.5 3t7 7q84 46 188.5 139t104.5 122q0 4 -5.5 4t-12 -2t-14.5 -4t-34 -16.5t-54.5 -36t-71 -66t-87 -105.5t-94.5 -131l96 3 q29 0 37 -8q0 -17 -25 -25q-29 -7 -142 -16q-71 -94 -89 -113q0 -1 16 -1z" />
<glyph unicode="&#xa4;" horiz-adv-x="481" d="M404 116q-47 38 -67 58q-51 -46 -112 -46q-30 0 -55 11l-38 -42q-8 -19 -33 -19t-25 12q0 1 3 7l59 65q-26 26 -26 66q0 64 55 117q-42 42 -48.5 55t-6.5 21q0 15 19 20l69 -70q42 25 85.5 25t72.5 -13q76 79 87 79q6 0 13 -8t7 -12.5t-4.5 -9t-30.5 -32.5l-39 -42 q17 -21 17 -52q0 -51 -40 -102q54 -43 56 -71q-2 -19 -13 -21q-5 1 -5 4zM281 347q-45 0 -68.5 -40.5t-23.5 -84.5q0 -14 5 -18t17 -4q42 0 84.5 29t42.5 65q0 24 -14 38.5t-43 14.5z" />
<glyph unicode="&#xa5;" horiz-adv-x="551" d="M401 -185q-39 -8 -168 -16q-186 -186 -327 -186q-37 0 -55.5 10.5t-18.5 24t13.5 23t39 9.5t59.5 -21q64 49 142 129l-96 -5q-4 -1 -11 -1t-11 6q0 9 40 34l14 9q16 5 114 9l45 49l-126 -6q-4 -1 -11 -1t-11 6q0 9 41 34l13 9q18 5 137 9h1q60 69 180.5 219.5t147.5 180 t28.5 31.5t4.5 7q18 22 -10 -4l-145 -142q-264 -259 -385 -259q-29 0 -55.5 23t-26.5 65q0 80 147 227l267 238q48 45 48 59q0 4 -6 4t-29 -4t-71.5 -19.5t-102 -39.5t-123 -70t-132.5 -104q-10 -14 -22 -14h-3q-4 1 -4 5q0 10 15 25q89 128 213 209t223 81q42 0 77 -22.5 t35 -75.5q0 -37 -45 -94.5t-110 -116.5t-129 -115q-155 -136 -155 -176q0 -2 9.5 -2t40 15t71.5 43t81.5 57.5t90 68.5t82.5 66q95 75 124 100l212 181l59 58q10 11 18.5 11t13.5 -3l23 -16q7 -6 7 -14.5t-6 -14.5l-115 -124q-166 -195 -374 -488q-15 -25 -35 -48h95 q29 0 37 -8q0 -17 -25 -25q-34 -7 -142 -15q-15 -20 -48 -56l113 4q30 -1 37 -8q0 -17 -25 -25z" />
<glyph unicode="&#xa6;" horiz-adv-x="410" d="M-299 -300q-4 2 -4 9.5t104 132.5t241 282q5 16 23.5 24.5t40.5 8.5q42 0 42 -23q0 -4 -3 -10q-318 -353 -372 -445q-4 -18 -16 -18q-6 0 -11 4zM596 702q11 0 24 -16.5t13 -24.5t-3 -11l-325 -350q-7 -18 -28.5 -28t-44.5 -10q-40 0 -40 23q0 7 5 15q360 402 399 402z " />
<glyph unicode="&#xa7;" horiz-adv-x="785" d="M421 106l-102 -4q-171 0 -225 43q-37 27 -37 75q0 32 22.5 63.5t50.5 54t82 44t124 33.5q-38 28 -38 76q0 16 6.5 36t33 51.5t69.5 56.5t126 45t193 24q39 0 82.5 -9.5t72 -22.5t50.5 -39.5t22 -61.5q0 -28 -54 -61q-60 -35 -158.5 -35t-98.5 14q0 11 58 26t115.5 35 t57.5 45q3 3 -13.5 8.5t-34.5 8.5q-44 9 -115 9q-132 0 -277 -104q-39 -29 -39 -50q0 -33 208 -33q187 -2 187 -100q0 -75 -77.5 -127.5t-199.5 -77.5q36 -25 36 -72t-34 -83.5t-98 -55.5q-113 -32 -294 -34q-53 0 -112 28t-59 68q0 13 22 14q118 13 151 28q8 2 13 2t5 -2 q0 -4 -12 -13q-11 -6 -24 -11q-28 -10 -28 -13t19 -3t45.5 1t75.5 3.5t89 9.5t80 18q86 22 86 70q0 22 -52 22zM662 377l-102 -4q-46 0 -72 1q-166 -35 -296 -128q-39 -29 -39 -50t80 -28q76 10 180.5 35.5t202.5 68.5t98 83q0 22 -52 22z" />
<glyph unicode="&#xa8;" horiz-adv-x="500" d="M250 495q10 0 13 -4q14 -17 14 -27.5t-6 -18t-14.5 -17t-34 -26t-49.5 -16.5q-18 3 -18 22q0 30 36 58.5t59 28.5zM417 495q10 0 13 -4q14 -17 14 -27.5t-6 -18t-14.5 -17t-34 -26t-49.5 -16.5q-18 3 -18 22q0 30 36 58.5t59 28.5z" />
<glyph unicode="&#xa9;" horiz-adv-x="830" d="M338 116q14 -9 32 -9q43 0 83 31.5t59 60.5t19 35q-2 1 -7.5 1t-5.5 -3q-38 -27 -78 -46q-69 -32 -90 -32q-5 0 -5 4q0 26 34 76t96 95.5t124 45.5l4 -1q0 -13 -57 -52q0 11 -7 11l-28 -17q-13 -7 -28.5 -13.5t-15.5 -17.5t14 -19t27 -8q38 0 87.5 36.5t49.5 64t-22 38 t-48 10.5q-56 0 -119.5 -32.5t-107 -84.5t-44 -103t33.5 -71zM173 228q0 40 28 91.5t74 99t113.5 80t137.5 32.5q124 0 181.5 -45.5t57.5 -122t-52 -164.5t-131 -147.5t-151 -59.5q-141 0 -207 80q-51 63 -51 156zM259 308.5q-22 -41.5 -22 -66t2 -41t13 -47t31 -52.5 t60.5 -39t96.5 -17t117.5 47.5t102.5 118t41 131.5t-45 97.5t-142 36.5q-55 0 -108 -26t-89 -63.5t-58 -79z" />
<glyph unicode="&#xaa;" horiz-adv-x="341" d="M300 132q-110 2 -139 2t-109 2q-8 -3 -14.5 -3t-8.5 2.5t-2 12.5l10 57q2 2 19 2l113 -1q44 0 86 3q7 3 14 3q28 0 44 -31q8 -10 8 -20q0 -25 -21 -29zM290 337l7 58q0 3 -1.5 3t-9 -8t-26 -26.5t-61.5 -49.5t-71 -31q-4 1 -10.5 3t-17.5 14.5t-11 32.5q1 37 57.5 105 t138.5 123.5t141 55.5q16 0 27 -24q9 9 16 9t17 -11q16 -3 16 -18q0 -10 -13 -21q-20 -24 -44 -53.5t-35.5 -43t-23.5 -29.5q-19 -26 -21 -44q93 44 289 190q8 -7 8 -16t-7 -15l-17 -15q-11 -9 -41.5 -35.5t-59 -50t-65 -53t-64.5 -49.5q-69 -50 -86.5 -50t-24.5 11t-7 38z M198 375q10 0 65.5 44.5t105.5 88.5l50 44q4 3 4 4.5t-3 1.5q-34 0 -89 -39.5t-95 -83t-40 -58.5q0 -2 2 -2z" />
<glyph unicode="&#xab;" horiz-adv-x="399" d="M280 12l-17 16q-71 136 -71 181q1 22 46.5 56t88.5 57.5t48.5 23.5t5.5 -7t-4 -23.5t-52.5 -70t-56.5 -55.5q3 -10 13 -40q20 -58 20 -113q0 -10 -7.5 -17t-13.5 -8zM121 12l-17 16q-71 136 -71 181q1 22 46.5 56t88.5 57.5t48.5 23.5t5.5 -7t-4 -23.5t-52.5 -70 t-56.5 -55.5q3 -10 13 -40q20 -58 20 -113q0 -10 -7.5 -17t-13.5 -8z" />
<glyph unicode="&#xac;" horiz-adv-x="557" d="M84 285l113 -2q303 0 345 3q8 3 14 3q28 0 44 -31q8 -10 8 -25.5t-16 -21.5q-22 -23 -68.5 -74t-69.5 -76q-7 -18 -28.5 -28t-44.5 -10q-40 0 -40 23q0 7 5 15q118 130 135 149q-389 4 -401 4q-8 -3 -14.5 -3t-8.5 2.5t-2 12.5l10 57q2 2 19 2z" />
<glyph unicode="&#xae;" horiz-adv-x="830" d="M173 228q0 40 28 91.5t74 99t113.5 80t137.5 32.5q124 0 181.5 -45.5t57.5 -122t-52 -164.5t-131 -147.5t-151 -59.5q-141 0 -207 80q-51 63 -51 156zM276 282q20 27 35.5 44t48.5 44q68 53 194 55q41 0 82 -19t41 -55q0 -56 -164 -122q-8 -2 -8 -5t2 -3q50 -60 90 -92 q46 48 75 105.5t29 113.5t-45 92.5t-142 36.5q-55 0 -108 -26t-89 -63.5t-58 -79t-22 -66t2 -41t13 -47t31 -52.5t60.5 -39t99.5 -17t128 59q-21 4 -33 17q-79 84 -89 98.5t-12 14.5t-2 -2q-66 -78 -81 -113q0 -7 -2.5 -7t-7.5 2.5t-11 10.5t-6 17t6.5 21t13.5 21.5t28 36 t42 49.5q54 59 104 89q4 4 7 4t7 -3.5t4 -7.5t-2 -6q-82 -85 -82 -97h2q41 9 99.5 37.5t86.5 56.5q8 7 8 13q0 20 -66 20t-150.5 -27.5t-121.5 -73.5l-2 -4l1 -2q22 0 62 25t44.5 25t4.5 -2q-2 -1 -3 -3q-60 -75 -102 -75q-14 0 -24.5 10.5t-13.5 21.5z" />
<glyph unicode="&#xaf;" horiz-adv-x="500" d="M266 473l113 -2q66 0 108 3q7 3 14 3q29 0 44 -28q8 -10 8 -20q0 -25 -21 -29q-256 5 -270 5q-8 -3 -14.5 -3t-8.5 2.5t-2 12.5l10 54q2 2 19 2z" />
<glyph unicode="&#xb0;" d="M271 655q33 0 48 -28q6 -11 6 -26q0 -41 -24.5 -68.5t-84.5 -27.5q-20 0 -34 13.5t-14 32.5t3.5 33t12.5 32q22 39 87 39zM274.5 552q12.5 9 12.5 37.5t-26 28.5q-36 0 -44.5 -10.5t-8.5 -43.5q0 -17 15 -21q39 0 51.5 9z" />
<glyph unicode="&#xb1;" horiz-adv-x="550" d="M75 301q-14 0 -14 15l-3 57v1q0 4 4 7q6 6 224 6q161 171 186 171q11 0 24 -16.5t13 -24.5t-3 -11l-110 -119l96 -1q6 3 13 3q27 0 53 -31q16 -16 16 -29t-5 -17t-10 -5q-216 6 -231 6l-115 -125q-7 -18 -28.5 -28t-44.5 -10q-40 0 -40 23q0 7 5 15q56 64 112 124 q-88 -1 -128 -8q-7 -3 -14 -3zM-73 -8q-14 0 -14 15l-3 57v1q0 4 4 7q6 6 169 6t261 -1q6 3 13 3q27 0 53 -31q16 -16 16 -29q0 -19 -15 -22q-234 6 -326.5 6t-143.5 -9q-7 -3 -14 -3z" />
<glyph unicode="&#xb2;" horiz-adv-x="430" d="M148 496q1 42 65.5 88.5t135.5 46.5q35 0 60.5 -10.5t36.5 -26.5q21 -29 21 -61.5t-50 -79t-135 -93.5q-12 -7 -12 -9.5t5 -2.5q112 0 163 -69q2 -2 2 -3.5t-2 -1.5t-28 6q-76 17 -167 17q-34 0 -86 -12h-5q-36 24 -36 38t50 20q9 0 74 35.5t132 90.5t67 93q0 24 -50 24 q-15 0 -36.5 -3t-72.5 -26.5t-93 -65.5q-13 -14 -13 -22q0 -5 13 -5t57 19.5t69 47.5q9 11 12 11q3 -2 3 -4q0 -32 -47.5 -69t-82.5 -37q-29 0 -44 34q-6 13 -6 30z" />
<glyph unicode="&#xb3;" horiz-adv-x="414" d="M373 431q0 9 -20.5 10t-41.5 -2t-35.5 -6t-18.5 -3t-7 1.5t-4.5 5t-3.5 6t-1 8.5t9 12t23 6t86.5 36.5t74.5 60.5q0 17 -68.5 17t-158.5 -45q-2 -1 -11.5 -1t-22 6t-13.5 15l6 10q24 20 80.5 40t108.5 20q105 0 105 -71q-4 -23 -25 -41t-43 -30t-22 -14l3 -3 q34 -14 34 -45.5t-29 -61.5t-68 -46q-82 -33 -114.5 -33t-47.5 11.5t-15 23.5q0 2 2 4q2 -4 15 -4q58 0 138 40t85 72v1z" />
<glyph unicode="&#xb4;" d="M255 409q0 9 17 26q44 26 77 59.5t44 53.5l11 20q10 14 26 14t26.5 -18t10.5 -37l-2 -23q-21 -39 -69 -66q-76 -44 -126 -44q-15 0 -15 15z" />
<glyph unicode="&#xb5;" horiz-adv-x="404" d="M264 89q149 80 328 213q9 -7 9 -17t-10 -19t-28.5 -26t-70.5 -61t-97 -80q-118 -95 -174 -112q-18 -5 -39 -5q-34 0 -34 53q0 11 9.5 33t11 25.5t2.5 5.5t2 3.5t1 3.5t-6 2q-5 0 -33 -26.5t-46.5 -42.5t-42 -30t-42 -14t-27.5 11q-59 -67 -139.5 -174t-106.5 -153 q-4 -18 -16 -18q-6 0 -11 4l-45 35q-4 2 -4 7.5t22 34t66.5 82t87 104.5t109 130t108.5 129.5t81.5 85.5t54.5 35.5t24 -7.5t9 -18t-20 -30t-50.5 -51.5t-43 -52.5t-12.5 -28t8 -7t29 13q57 39 130.5 96t94.5 83q5 18 30 18q48 0 48 -17q0 -7 -47 -52q-141 -135 -141 -167 q0 -5 4.5 -5t16.5 6z" />
<glyph unicode="&#xb6;" horiz-adv-x="642" d="M55 102q-66 0 -81 88q-4 19 -4 39q0 119 110 231t264 176.5t292 66.5h1q36 -2 60.5 -24t24.5 -58q0 -82 -71.5 -200t-176.5 -230t-216 -211.5t-199 -160t-115.5 -60.5t-51.5 12.5t-24 35.5q0 11 76.5 55.5t136 82t124 89.5t122.5 110.5t106.5 137t72.5 161.5q0 2 -1.5 2 t-44.5 -43.5t-74.5 -77.5t-82.5 -81.5t-124.5 -94t-123.5 -46.5z" />
<glyph unicode="&#xb7;" horiz-adv-x="126" d="M180 369q10 0 13 -4q14 -17 14 -27.5t-6 -18t-14.5 -17t-34 -26t-49.5 -16.5q-18 3 -18 22q0 30 36 58.5t59 28.5z" />
<glyph unicode="&#xb8;" horiz-adv-x="333" d="M-48 -190q0 9 26.5 13.5t50 21.5t23.5 37.5t-19 20.5l-14 -1q-12 0 -12 12q0 5 21 43.5t21 59.5h30q-1 -33 -29 -66q12 2 28.5 2t31 -13.5t14.5 -36.5q0 -44 -44.5 -75.5t-97.5 -31.5q-30 0 -30 14z" />
<glyph unicode="&#xb9;" horiz-adv-x="277" d="M345 639q4 8 14 2q9 -8 9 -10t-56.5 -92t-82.5 -137q-51 -88 -61 -139q0 -4 -4.5 -4t-18 10.5t-13.5 22.5q0 28 37.5 102.5t110.5 167.5q-22 -21 -48 -21t-29 18q2 6 7 10q59 50 59 36l-3 -10h1q14 0 39.5 15t38.5 29z" />
<glyph unicode="&#xba;" horiz-adv-x="321" d="M380 632.5q5 -4.5 9 -5t10.5 4t17.5 5t23 -12.5q16 -13 16 -39.5t-28 -84.5t-60 -100q-113 -131 -194 -131q-54 8 -68 37q-8 16 -8 39q0 66 76 157.5t191 134.5q10 0 15 -4.5zM181 333q30 0 72.5 39t55.5 61q22 20 56 68.5t34 74.5q0 2 -2 2q-13 0 -59 -26.5t-69 -55.5 q-31 -29 -55 -68q-38 -63 -38 -87q0 -8 5 -8zM280 132q-110 2 -139 2t-109 2q-8 -3 -14.5 -3t-8.5 2.5t-2 12.5l10 57q2 2 19 2l113 -1q44 0 86 3q7 3 14 3q28 0 44 -31q8 -10 8 -20q0 -25 -21 -29z" />
<glyph unicode="&#xbb;" horiz-adv-x="399" d="M133 346l17 -16q71 -136 71 -181q-1 -22 -46.5 -56t-88.5 -57.5t-48.5 -23.5t-5.5 7t4 23.5t52.5 70t56.5 55.5q-3 10 -13 40q-20 58 -20 113q0 10 7.5 17t13.5 8zM292 346l17 -16q71 -136 71 -181q-1 -22 -46.5 -56t-88.5 -57.5t-48.5 -23.5t-5.5 7t4 23.5t52.5 70 t56.5 55.5q-3 10 -13 40q-20 58 -20 113q0 10 7.5 17t13.5 8z" />
<glyph unicode="&#xbc;" horiz-adv-x="664" d="M579 290q4 0 9.5 -5.5t5.5 -8t-4.5 -7.5t-37 -44t-52.5 -62q125 -16 125 -59q0 -3 -2 -3t-4 1q-2 5 -52.5 9t-77.5 4t-36 -1q-7 -8 -22 -23.5t-24 -26t-19 -23.5q-22 -27 -24 -45q-1 -4 -5 -4t-14 11t-12 23v8q0 14 54 78q-27 0 -44 -3t-28.5 -3t-17.5 11q-12 3 -12 15 q0 36 51 94.5t132.5 112t157.5 69.5q6 -4 6 -8.5t-8 -7.5q-50 -24 -155 -108.5t-112 -126.5q11 0 82 6l8 8q78 78 126 116q2 3 6 3zM345 639q4 8 14 2q9 -8 9 -10t-56.5 -92t-82.5 -137q-51 -88 -61 -139q0 -4 -4.5 -4t-18 10.5t-13.5 22.5q0 28 37.5 102.5t110.5 167.5 q-22 -21 -48 -21t-29 18q2 6 7 10q59 50 59 36l-3 -10h1q14 0 39.5 15t38.5 29zM594 677q2 1 3 1q10 0 43 -31q4 -2 4 -9q-1 -15 -139 -168t-296 -310t-202 -176q-8 -6 -17 -6t-17.5 6.5t-8.5 11t3 7.5q65 64 307 329.5t262 290.5q33 54 58 54z" />
<glyph unicode="&#xbd;" horiz-adv-x="698" d="M345 217q1 42 65.5 88.5t135.5 46.5q35 0 60.5 -10.5t37.5 -26.5q20 -29 20 -61.5t-50 -79t-135 -93.5q-12 -7 -12 -9.5t5 -2.5q112 0 163 -69q2 -2 2 -3.5t-2 -1.5t-29 6q-75 17 -166 17q-34 0 -86 -12h-5q-36 24 -36 38t50 20q9 0 74 35.5t132 90.5t67 93q0 24 -50 24 q-15 0 -36.5 -3t-72.5 -26.5t-93 -65.5q-13 -14 -13 -22q0 -5 13 -5t57 19.5t69 47.5q9 11 12 11q3 -2 3 -4q0 -32 -47.5 -69t-82.5 -37q-29 0 -45 35q-5 12 -5 29zM345 639q4 8 14 2q9 -8 9 -10t-56.5 -92t-82.5 -137q-51 -88 -61 -139q0 -4 -4.5 -4t-18 10.5t-13.5 22.5 q0 28 37.5 102.5t110.5 167.5q-22 -21 -48 -21t-29 18q2 6 7 10q59 50 59 36l-3 -10h1q14 0 39.5 15t38.5 29zM594 677q2 1 3 1q10 0 43 -31q4 -2 4 -9q-1 -15 -139 -168t-296 -310t-202 -176q-8 -6 -17 -6t-17.5 6.5t-8.5 11t3 7.5q65 64 307 329.5t262 290.5q33 54 58 54z " />
<glyph unicode="&#xbe;" horiz-adv-x="790" d="M705 290q4 0 9.5 -5.5t5.5 -8t-4.5 -7.5t-37 -44t-52.5 -62q125 -16 125 -59q0 -3 -2 -3t-4 1q-2 5 -52.5 9t-77.5 4t-36 -1q-7 -8 -22 -23.5t-24 -26t-19 -23.5q-22 -27 -24 -45q-1 -4 -5 -4t-14 11t-12 23v8q0 14 54 78q-27 0 -43.5 -3t-28.5 -3t-18 11q-12 3 -12 15 q0 36 51 94.5t132.5 112t157.5 69.5q6 -4 6 -8.5t-8 -7.5q-50 -24 -155 -108.5t-112 -126.5q11 0 82 6l8 8q78 78 126 116q2 3 6 3zM373 431q0 9 -20.5 10t-41.5 -2t-35.5 -6t-18.5 -3t-7 1.5t-4.5 5t-3.5 6t-1 8.5t9 12t23 6t86.5 36.5t74.5 60.5q0 17 -68.5 17t-158.5 -45 q-2 -1 -11.5 -1t-22 6t-13.5 15l6 10q24 20 80.5 40t108.5 20q105 0 105 -71q-4 -23 -25 -41t-43 -30t-22 -14l3 -3q34 -14 34 -45.5t-29 -61.5t-68 -46q-82 -33 -114.5 -33t-47.5 11.5t-15 23.5q0 2 2 4q2 -4 15 -4q58 0 138 40t85 72v1zM720 677q2 1 3 1q10 0 43 -31 q4 -2 4 -9q-1 -15 -139 -168t-296 -310t-202 -176q-8 -6 -17 -6t-17.5 6.5t-8.5 11t3 7.5q65 64 307 329.5t262 290.5q33 54 58 54z" />
<glyph unicode="&#xbf;" horiz-adv-x="417" d="M13 -178q54 0 153 37q25 -6 47.5 -20.5t22.5 -27t-10 -22.5q-19 -31 -89.5 -49.5t-130.5 -18.5t-99 37.5t-39 85.5q0 99 95 157l233 138q2 2 6.5 7t6.5 7t5 6t4 7q4 9 4 18l-6 27q0 23 22.5 23t39.5 -24t17 -48q0 -40 -56 -83.5t-234 -130.5q-62 -49 -62 -83 q0 -31 24 -37q19 -6 46 -6zM334 365q0 -11 -5 -17.5t-12 -14t-28.5 -20.5t-45.5 -13q-18 3 -18 22q0 30 29 52t53 22q7 0 15.5 -9t11.5 -22z" />
<glyph unicode="&#xc0;" horiz-adv-x="416" d="M254 152q1 4 1 6t-1.5 2t-6 -5t-11.5 -14t-29.5 -34t-46.5 -47q-65 -62 -130 -95q-16 -8 -35 -8q-73 0 -73 110q0 98 94 236q43 64 104.5 125.5t130.5 109.5t150 77.5t158 29.5q13 0 35 -9q37 -16 37 -34q0 -10 -13 -11q-5 0 -5 -4t14.5 -15.5t14.5 -22t-7 -18.5 q-50 -55 -80 -91.5t-45.5 -54.5t-35 -41.5t-43.5 -59t-43 -70.5q-47 -85 -47 -155.5t13 -134t27 -77.5q0 -3 -7 -3q-46 0 -79 36q-60 67 -60 176q0 39 19 96zM385 377l192 193q7 7 7 10t-5 3q-77 -12 -163 -63t-156 -118t-129 -137t-91.5 -126t-32.5 -80q0 -4 5.5 -4 t21.5 7.5t110.5 88t240.5 226.5zM578 719q10 -14 10 -29q-4 -11 -16 -11q-13 3 -43.5 19.5t-70 55.5t-48.5 82l5 27q13 39 42 39q19 0 28 -20q7 -33 32.5 -79.5t60.5 -83.5z" />
<glyph unicode="&#xc1;" horiz-adv-x="416" d="M254 152q-19 -57 -19 -99.5t13.5 -89t46.5 -83t79 -36.5q7 0 7 3q-14 14 -27 77.5t-13 116t13.5 95t33 78t43.5 71t43 59.5q44 52 52 60l109 127q7 8 7 18.5t-14.5 22t-14.5 15.5l5 4q13 1 13 13t-18 23t-36 15l-18 3q-77 0 -158 -29.5t-150 -77.5t-130.5 -109.5 t-104.5 -125.5q-94 -138 -94 -242t73 -104q17 0 35 8q90 46 176 141q20 22 30 36l11 13q5 5 6.5 5t1.5 -2zM577 570l-192 -193q-146 -146 -239.5 -226.5t-113.5 -88.5l-21 -7q-4 0 -4 4q0 24 32.5 80t91.5 126t129 137t156 118t163 63q5 0 5 -3t-7 -10zM551 696q0 9 17 26 q44 26 77 59.5t44 53.5l11 20q10 14 26 14t26.5 -18t10.5 -37l-2 -23q-21 -39 -69 -67q-76 -43 -126 -43q-15 0 -15 15z" />
<glyph unicode="&#xc2;" horiz-adv-x="416" d="M254 152q-19 -57 -19 -99.5t13.5 -89t46.5 -83t79 -36.5q7 0 7 3q-14 14 -27 77.5t-13 116t13.5 95t33 78t43.5 71t43 59.5q44 52 52 60l109 127q7 8 7 18.5t-14.5 22t-14.5 15.5l5 4q13 1 13 13t-18 23t-36 15l-18 3q-77 0 -158 -29.5t-150 -77.5t-130.5 -109.5 t-104.5 -125.5q-94 -138 -94 -242t73 -104q17 0 35 8q90 46 176 141q20 22 30 36l11 13q5 5 6.5 5t1.5 -2zM577 570l-192 -193q-146 -146 -239.5 -226.5t-113.5 -88.5l-21 -7q-4 0 -4 4q0 24 32.5 80t91.5 126t129 137t156 118t163 63q5 0 5 -3t-7 -10zM697 790 q0 -38 29 -101q-1 -12 -31 -12q-18 0 -46.5 38.5t-28.5 47.5q-41 -33 -107.5 -58.5t-99.5 -25.5q-11 0 -17.5 5t-6.5 10q0 19 13 19q46 10 96.5 44.5t83.5 64t40.5 29.5t15.5 -3q19 -8 19 -11q6 2 18 2q29 -3 29 -18z" />
<glyph unicode="&#xc3;" horiz-adv-x="416" d="M254 152q1 4 1 6t-1.5 2t-6 -5t-11.5 -14t-29.5 -34t-46.5 -47q-65 -62 -130 -95q-16 -8 -35 -8q-73 0 -73 110q0 98 94 236q43 64 104.5 125.5t130.5 109.5t150 77.5t158 29.5q13 0 35 -9q37 -16 37 -34q0 -10 -13 -11q-5 0 -5 -4t14.5 -15.5t14.5 -22t-7 -18.5 q-50 -55 -80 -91.5t-45.5 -54.5t-35 -41.5t-43.5 -59t-43 -70.5q-47 -85 -47 -155.5t13 -134t27 -77.5q0 -3 -7 -3q-46 0 -79 36q-60 67 -60 176q0 39 19 96zM385 377l192 193q7 7 7 10t-5 3q-77 -12 -163 -63t-156 -118t-129 -137t-91.5 -126t-32.5 -80q0 -4 5.5 -4 t21.5 7.5t110.5 88t240.5 226.5zM412 723q8 7 22 17.5t50 28.5t56 18t67 -21t88 -21q17 0 43 24l8 8q15 0 15 -10q0 -11 -14 -26.5t-28 -25.5q-34 -24 -85 -24q-18 0 -63.5 19t-74.5 19q-15 0 -45.5 -10.5t-38.5 -10.5t-8 2q0 6 8 13z" />
<glyph unicode="&#xc4;" horiz-adv-x="416" d="M254 152q1 4 1 6t-1.5 2t-6 -5t-11.5 -14t-29.5 -34t-46.5 -47q-65 -62 -130 -95q-16 -8 -35 -8q-73 0 -73 110q0 98 94 236q43 64 104.5 125.5t130.5 109.5t150 77.5t158 29.5q13 0 35 -9q37 -16 37 -34q0 -10 -13 -11q-5 0 -5 -4t14.5 -15.5t14.5 -22t-7 -18.5 q-50 -55 -80 -91.5t-45.5 -54.5t-35 -41.5t-43.5 -59t-43 -70.5q-47 -85 -47 -155.5t13 -134t27 -77.5q0 -3 -7 -3q-46 0 -79 36q-60 67 -60 176q0 39 19 96zM385 377l192 193q7 7 7 10t-5 3q-77 -12 -163 -63t-156 -118t-129 -137t-91.5 -126t-32.5 -80q0 -4 5.5 -4 t21.5 7.5t110.5 88t240.5 226.5zM552 789q10 0 13 -4q14 -17 14 -27.5t-6 -18t-14.5 -17t-34 -26t-49.5 -16.5q-18 3 -18 22q0 30 36 58.5t59 28.5zM719 789q10 0 13 -4q14 -17 14 -27.5t-6 -18t-14.5 -17t-34 -26t-49.5 -16.5q-18 3 -18 22q0 30 36 58.5t59 28.5z" />
<glyph unicode="&#xc5;" horiz-adv-x="416" d="M254 152q-19 -57 -19 -99.5t13.5 -89t46.5 -83t79 -36.5q7 0 7 3q-14 14 -27 77.5t-13 116t13.5 95t33 78t43.5 71t43 59.5q44 52 52 60l109 127q7 8 7 18.5t-14.5 22t-14.5 15.5l5 4q13 1 13 13t-18 23t-36 15l-18 3q-77 0 -158 -29.5t-150 -77.5t-130.5 -109.5 t-104.5 -125.5q-94 -138 -94 -242t73 -104q17 0 35 8q90 46 176 141q20 22 30 36l11 13q5 5 6.5 5t1.5 -2zM577 570l-192 -193q-146 -146 -239.5 -226.5t-113.5 -88.5l-21 -7q-4 0 -4 4q0 24 32.5 80t91.5 126t129 137t156 118t163 63q5 0 5 -3t-7 -10zM643 817q33 0 48 -28 q6 -11 6 -26q0 -41 -24.5 -68.5t-84.5 -27.5q-20 0 -34 13.5t-14 32.5t3.5 33t12.5 32q22 39 87 39zM646.5 714q12.5 9 12.5 37.5t-26 28.5q-36 0 -44.5 -10.5t-8.5 -43.5q0 -17 15 -21q39 0 51.5 9z" />
<glyph unicode="&#xc6;" horiz-adv-x="648" d="M254 152q1 4 1 6t-1.5 2t-6 -5t-11.5 -14t-29.5 -34t-46.5 -47q-65 -62 -130 -95q-16 -8 -35 -8q-73 0 -73 111t118 268t279 243q2 2 3 2q123 64 237 64q37 -6 58 -21q57 5 109 5t91.5 -2.5t83.5 -10.5q93 -17 107 -70l1 -4q0 -9 -15 -9q-231 -7 -384 -30 q-58 -67 -71.5 -83.5t-20.5 -24.5q-43 -49 -43 -52l1 -2q0 -3 2.5 -3t12.5 2q64 4 118.5 4t64.5 -6q53 -32 63 -42q12 -12 14 -22q0 -8 -19 -11q-281 -26 -302.5 -25.5t-27.5 0.5h-1q-60 -104 -60 -182v-4l1 -1q-1 -1 -1 -3v-11q1 -1 4 -1t11 4q89 15 171 15t123 -5 q55 0 140 -81q7 -7 9 -12v-2q0 -5 -13 -5q-249 0 -377 -10q-4 -1 -21 -1t-38 9q13 -83 31 -101q0 -3 -7 -3q-46 0 -79 36q-60 67 -60 176q0 39 19 96zM495 487l82 83q7 7 7 10t-5 3q-77 -12 -163 -63t-156 -118t-129 -137t-91.5 -126t-32.5 -80q0 -4 5.5 -4t21 7.5t110 88.5 t216 204.5t135.5 131.5z" />
<glyph unicode="&#xc7;" horiz-adv-x="447" d="M86 -44l-8 1q-2 -4 -26 -34q12 2 28.5 2t31 -13.5t14.5 -36.5q0 -44 -44.5 -75.5t-97.5 -31.5q-30 0 -30 14q0 9 26.5 13.5t50 21.5t23.5 37.5t-19 20.5l-14 -1q-12 0 -12 12q0 7 17.5 34.5t22.5 39.5q-31 8 -54.5 29.5t-34.5 46.5q-21 54 -22 90l-1 16q1 93 65.5 191.5 t160.5 173t213 122t220 47.5q59 0 109.5 -24.5t50.5 -74t-56.5 -107t-135 -98t-137.5 -40.5q-27 0 -56 15t-29 42q0 15 24 26q85 34 128 66q9 10 13.5 10t4.5 -8q0 -14 -34 -33q-24 -18 -24 -20t1 -2q20 0 122 77t102 99q0 14 -27 14q-96 0 -195 -45.5t-175.5 -114 t-138.5 -145t-95 -142t-33 -101.5q0 -22 21 -22q18 0 72 16t156.5 64t197.5 115q7 6 9.5 6t2.5 -4t-17.5 -34t-53 -73t-80.5 -83.5t-108.5 -69.5t-128.5 -29z" />
<glyph unicode="&#xc8;" horiz-adv-x="493" d="M16 514q0 15 20 26l117 46q4 2 11.5 2t13.5 -7t13 -7t29.5 5.5t60.5 14t85 16.5q110 19 229 19q141 0 202 -21q24 -9 40.5 -24.5t16.5 -37.5q0 -13 -18 -13q-250 -7 -409 -32q-16 -2 -16 -11q0 -3 0.5 -5.5t-7.5 -11.5l-113 -121q-7 -7 -7 -10.5t2.5 -3.5t12.5 2 q65 4 120 4t63 -6q44 -33 51.5 -43t7.5 -16q0 -13 -22 -16q-264 -26 -285 -25.5t-27 0.5q-16 0 -36 -25l-122 -162q-5 -8 -5 -11.5t4 -3.5t12 4q94 15 175.5 15t121.5 -5q55 0 118 -81q5 -7 5 -13t-15 -6q-249 0 -379 -10q-5 -1 -13 -1q-43 0 -59 20q-3 6 -10 6t-12.5 -7 t-8.5 -7t-12 6t-18.5 20.5t-9.5 31t6.5 30.5t17 36t47 75.5t76.5 91.5q5 5 5 9.5t-10.5 4.5t-21 7.5t-10.5 21t35 22.5l54 14h1q16 0 32 21q116 113 142 126q9 6 9 9.5t-6 3.5t-10 -1q-93 -15 -148 -15t-80 5t-37 12q-26 17 -28 27zM577 702q10 -14 10 -29q-4 -11 -16 -11 q-13 3 -43.5 19.5t-70 55.5t-48.5 82l5 27q13 39 42 39q19 0 28 -20q7 -33 32.5 -79.5t60.5 -83.5z" />
<glyph unicode="&#xc9;" horiz-adv-x="493" d="M126 465q88 0 158 11l26 4q4 1 10 1t6 -3q0 -5 -10 -10q-24 -13 -112 -98l-29 -28q-15 -19 -33 -21l-54 -14q-35 -9 -35 -22.5t10.5 -21t21 -7.5t10.5 -5l-5 -9q-40 -38 -75 -88.5t-50 -81.5l-15 -32q-7 -15 -7 -31.5t9.5 -31t18.5 -20.5t13 -6l3 2q10 12 15 12 q8 0 12 -6q16 -20 59 -20l13 1q116 8 313 10h66q15 0 15 7l-5 12q-63 81 -118 81q-40 5 -93 5q-105 0 -178 -11l-26 -4q-8 -4 -12 -4t-4 3l5 12l122 162q20 25 36 25l10 -1l302 26q22 3 22 16q0 16 -38 43q-9 7 -19 14.5t-67 7.5l-118 -4q-10 -2 -12.5 -2t-2.5 3l7 11 l113 121l8 12q-1 2 -1 5.5t4 6.5t43.5 9t141.5 14t169 10l67 3q18 0 18 13q0 53 -87 70q-68 13 -150 13t-143.5 -5.5t-108 -13.5t-84.5 -16.5t-60.5 -14t-26.5 -5.5q-9 0 -15.5 7t-16.5 7l-9 -2l-117 -46q-20 -11 -20 -22q0 -20 30.5 -36.5t79.5 -16.5zM461 671q0 9 17 26 q44 26 77 59.5t44 53.5l11 20q10 14 26 14t26.5 -18t10.5 -37l-2 -23q-21 -39 -69 -66q-76 -44 -126 -44q-15 0 -15 15z" />
<glyph unicode="&#xca;" horiz-adv-x="493" d="M126 465q88 0 158 11l26 4q4 1 10 1t6 -3q0 -5 -10 -10q-24 -13 -112 -98l-29 -28q-15 -19 -33 -21l-54 -14q-35 -9 -35 -22.5t10.5 -21t21 -7.5t10.5 -5l-5 -9q-40 -38 -75 -88.5t-50 -81.5l-15 -32q-7 -15 -7 -31.5t9.5 -31t18.5 -20.5t13 -6l3 2q10 12 15 12 q8 0 12 -6q16 -20 59 -20l13 1q116 8 313 10h66q15 0 15 7l-5 12q-63 81 -118 81q-40 5 -93 5q-105 0 -178 -11l-26 -4q-8 -4 -12 -4t-4 3l5 12l122 162q20 25 36 25l10 -1l302 26q22 3 22 16q0 16 -38 43q-9 7 -19 14.5t-67 7.5l-118 -4q-10 -2 -12.5 -2t-2.5 3l7 11 l113 121l8 12q-1 2 -1 5.5t4 6.5t43.5 9t141.5 14t169 10l67 3q18 0 18 13q0 53 -87 70q-68 13 -150 13t-143.5 -5.5t-108 -13.5t-84.5 -16.5t-60.5 -14t-26.5 -5.5q-9 0 -15.5 7t-16.5 7l-9 -2l-117 -46q-20 -11 -20 -22q0 -20 30.5 -36.5t79.5 -16.5zM651 787 q0 -38 29 -101q-1 -12 -31 -12q-18 0 -46.5 38t-28.5 48q-41 -33 -107.5 -58.5t-99.5 -25.5q-11 0 -17.5 5t-6.5 10q0 19 13 19q46 10 96.5 44.5t83.5 64t40.5 29.5t15.5 -4q19 -7 19 -10q6 2 18 2q29 -3 29 -18z" />
<glyph unicode="&#xcb;" horiz-adv-x="493" d="M16 514q0 15 20 26l117 46q4 2 11.5 2t13.5 -7t13 -7t29.5 5.5t60.5 14t85 16.5q110 19 229 19q141 0 202 -21q24 -9 40.5 -24.5t16.5 -37.5q0 -13 -18 -13q-250 -7 -409 -32q-16 -2 -16 -11q0 -3 0.5 -5.5t-7.5 -11.5l-113 -121q-7 -7 -7 -10.5t2.5 -3.5t12.5 2 q65 4 120 4t63 -6q44 -33 51.5 -43t7.5 -16q0 -13 -22 -16q-264 -26 -285 -25.5t-27 0.5q-16 0 -36 -25l-122 -162q-5 -8 -5 -11.5t4 -3.5t12 4q94 15 175.5 15t121.5 -5q55 0 118 -81q5 -7 5 -13t-15 -6q-249 0 -379 -10q-5 -1 -13 -1q-43 0 -59 20q-3 6 -10 6t-12.5 -7 t-8.5 -7t-12 6t-18.5 20.5t-9.5 31t6.5 30.5t17 36t47 75.5t76.5 91.5q5 5 5 9.5t-10.5 4.5t-21 7.5t-10.5 21t35 22.5l54 14h1q16 0 32 21q116 113 142 126q9 6 9 9.5t-6 3.5t-10 -1q-93 -15 -148 -15t-80 5t-37 12q-26 17 -28 27zM485 787q10 0 13 -4q14 -17 14 -27.5 t-6 -18t-14.5 -17t-34 -26t-49.5 -16.5q-18 3 -18 22q0 30 36 58.5t59 28.5zM652 787q10 0 13 -4q14 -17 14 -27.5t-6 -18t-14.5 -17t-34 -26t-49.5 -16.5q-18 3 -18 22q0 30 36 58.5t59 28.5z" />
<glyph unicode="&#xcc;" horiz-adv-x="348" d="M515 721q94 0 94 -73q0 -67 -96.5 -194t-223.5 -248q-150 -143 -263 -218q-18 -11 -61.5 -30t-75.5 -19q-17 0 -67 27q-10 7 -10 15q0 13 36 17q51 5 173 95.5t243 201.5t214 216t93 138q0 8 -8 8q-50 0 -170 -67t-224 -156.5t-104 -141.5q0 -2 3 -2q25 0 108.5 62 t120.5 104q10 10 16 10q8 -1 8 -7t-14.5 -31.5t-41 -60.5t-58.5 -68.5t-72 -57t-74.5 -23.5t-49.5 28t-15 57q0 68 58.5 145.5t140.5 136t171 97.5t149 39zM513 798q10 -14 10 -29q-4 -11 -16 -11q-13 3 -43.5 19.5t-70 55.5t-48.5 82l5 27q13 39 42 39q19 0 28 -20 q7 -33 32.5 -79.5t60.5 -83.5z" />
<glyph unicode="&#xcd;" horiz-adv-x="348" d="M306.5 427.5q14.5 25.5 14.5 31t-7 6.5t-17 -9q-37 -42 -120.5 -104t-108.5 -62q-3 0 -3 2q0 52 104 141.5t224 156.5t170 67q8 0 8 -8q0 -33 -93 -138t-214 -216t-243 -201.5t-173 -95.5q-36 -4 -36 -17q0 -7 10 -15q50 -27 67 -27q32 0 73 17t66 34l25 18 q109 77 236 198t223.5 248t96.5 194q0 73 -94 73q-60 0 -149 -39t-171 -97.5t-140.5 -136t-58.5 -145.5q0 -29 15 -57t49.5 -28t74.5 23.5t72 57t58.5 68.5t41 60.5zM437 768q0 9 17 26q44 26 77 59.5t44 53.5l11 20q10 14 26 14t26.5 -18t10.5 -37l-2 -23q-21 -39 -69 -67 q-76 -43 -126 -43q-15 0 -15 15z" />
<glyph unicode="&#xce;" horiz-adv-x="348" d="M306.5 427.5q14.5 25.5 14.5 31t-7 6.5t-17 -9q-37 -42 -120.5 -104t-108.5 -62q-3 0 -3 2q0 52 104 141.5t224 156.5t170 67q8 0 8 -8q0 -33 -93 -138t-214 -216t-243 -201.5t-173 -95.5q-36 -4 -36 -17q0 -7 10 -15q50 -27 67 -27q32 0 73 17t66 34l25 18 q109 77 236 198t223.5 248t96.5 194q0 73 -94 73q-60 0 -149 -39t-171 -97.5t-140.5 -136t-58.5 -145.5q0 -29 15 -57t49.5 -28t74.5 23.5t72 57t58.5 68.5t41 60.5zM657 866q0 -38 29 -101q-1 -12 -31 -12q-18 0 -46.5 38.5t-28.5 47.5q-41 -33 -107.5 -58.5t-99.5 -25.5 q-11 0 -17.5 5t-6.5 10q0 19 13 19q46 10 96.5 44.5t83.5 64t40.5 29.5t15.5 -3q19 -8 19 -11q6 2 18 2q29 -3 29 -18z" />
<glyph unicode="&#xcf;" horiz-adv-x="348" d="M515 721q94 0 94 -73q0 -67 -96.5 -194t-223.5 -248q-150 -143 -263 -218q-18 -11 -61.5 -30t-75.5 -19q-17 0 -67 27q-10 7 -10 15q0 13 36 17q51 5 173 95.5t243 201.5t214 216t93 138q0 8 -8 8q-50 0 -170 -67t-224 -156.5t-104 -141.5q0 -2 3 -2q25 0 108.5 62 t120.5 104q10 10 16 10q8 -1 8 -7t-14.5 -31.5t-41 -60.5t-58.5 -68.5t-72 -57t-74.5 -23.5t-49.5 28t-15 57q0 68 58.5 145.5t140.5 136t171 97.5t149 39zM454 863q10 0 13 -4q14 -17 14 -27.5t-6 -18t-14.5 -17t-34 -26t-49.5 -16.5q-18 3 -18 22q0 30 36 58.5t59 28.5z M621 863q10 0 13 -4q14 -17 14 -27.5t-6 -18t-14.5 -17t-34 -26t-49.5 -16.5q-18 3 -18 22q0 30 36 58.5t59 28.5z" />
<glyph unicode="&#xd0;" horiz-adv-x="648" d="M767 434q0 -60 -48.5 -145t-124.5 -164t-184 -135t-212 -57q-6 0 -19.5 5.5t-22.5 13.5q-22 21 -22 62q7 37 31 60q8 8 8 10h-1q-2 0 -10 -5l-181 -135q-18 -20 -35 -20q-5 0 -11 3l-24 23q-3 2 -3 10.5t9 25.5q36 71 139 198q-58 -9 -72.5 -9.5t-24 5t-10.5 12.5 q0 7 33 17l119 28q135 154 298 276q21 20 40 20q5 0 17 -7q16 -8 16 -16t-5 -12l-70 -68q-73 -75 -150 -158l29 7q50 9 65 9l15 -5q46 -15 48 -23q0 -7 -20 -11q-95 -21 -194 -40q-79 -87 -105 -124q-8 -9 -8 -12.5t2.5 -3.5t5.5 3q79 53 174 97q7 4 12.5 4t8.5 -4l19 -23 q4 -6 4 -11.5t-4 -8.5l-11 -12q-59 -58 -61 -74q1 -5 5 -5q59 0 174 71t210 168.5t95 161.5q0 22 -22.5 45t-47.5 37q-62 33 -154 33t-176 -20.5t-148.5 -50.5t-117 -63.5t-80.5 -61t-28 -40.5q0 -3 3 -3q31 0 117.5 43t114.5 70q25 18 32 18q4 0 4 -7.5t-13 -26.5 t-38 -45.5t-55 -52t-69 -43.5t-69 -18t-63 26.5t-33 66.5q0 79 101 151t234.5 111t227.5 39t154 -18t92.5 -43t54.5 -57q32 -48 35 -92z" />
<glyph unicode="&#xd1;" horiz-adv-x="434" d="M417 647q29 24 66 24t37 -15q0 -6 -9 -18q-8 -18 -75 -136q-175 -306 -175 -408q0 -8 4 -8q6 0 20 20q41 71 105 163t121 162t129 131t131 76q98 16 127 16q3 -1 3 -4.5t-11 -9.5q-113 -63 -280.5 -239.5t-302.5 -362.5q-36 -61 -56 -76t-48 -15q-52 0 -52 110 q0 48 19 98q70 187 131 268q34 50 34 55q0 3 -12 -12q-249 -313 -352 -410q-71 -74 -161 -152t-144 -107q-17 -14 -36 -14t-46 16t-27 37q0 11 12 20l164 138q15 13 18.5 13t3.5 -3.5t-3 -9.5t-9.5 -13t-12.5 -13l-18 -18q-31 -31 -31 -34.5t2.5 -3.5t9.5 6q96 66 277 248.5 t314 331.5zM518 748q8 7 22 17.5t50 28.5t56 18t67 -21t88 -21q17 0 43 24l8 8q15 0 15 -10q0 -11 -14 -26.5t-28 -25.5q-34 -24 -85 -24q-18 0 -63.5 19t-74.5 19q-15 0 -45.5 -10.5t-38.5 -10.5t-8 2q0 6 8 13z" />
<glyph unicode="&#xd2;" horiz-adv-x="433" d="M498 635q72 46 122 46q46 0 58 -35q4 -12 4 -19q0 -38 -43 -119t-114 -175.5t-153 -181.5t-171 -145t-156 -58q-47 0 -87 40t-40 97.5t32 129t88.5 144.5t124.5 136.5t148.5 103.5t153.5 40q20 0 33 -4zM19 24q51 0 199 130t273.5 271.5t125.5 176.5q0 3 -4 3 q-34 0 -95.5 -40t-117.5 -90t-96.5 -89t-46.5 -48t-10 -9q-2 0 -2 5l2 15q11 36 67 117l19 28q7 13 7 15.5t-2 2.5q-8 0 -27 -17q-75 -68 -133 -137.5t-88.5 -120t-49.5 -96.5q-30 -70 -30 -93.5t9 -23.5zM595 752q10 -14 10 -29q-4 -11 -16 -11q-13 3 -43.5 19.5t-70 55.5 t-48.5 82l5 27q13 39 42 39q19 0 28 -20q7 -33 32.5 -79.5t60.5 -83.5z" />
<glyph unicode="&#xd3;" horiz-adv-x="433" d="M498 635q72 46 122 46q46 0 58 -35q4 -12 4 -19q0 -38 -43 -119t-114 -175.5t-153 -181.5t-171 -145t-156 -58q-47 0 -87 40t-40 97.5t32 129t88.5 144.5t124.5 136.5t148.5 103.5t153.5 40q20 0 33 -4zM19 24q51 0 199 130t273.5 271.5t125.5 176.5q0 3 -4 3 q-34 0 -95.5 -40t-117.5 -90t-96.5 -89t-46.5 -48t-10 -9q-2 0 -2 5l2 15q11 36 67 117l19 28q7 13 7 15.5t-2 2.5q-8 0 -27 -17q-75 -68 -133 -137.5t-88.5 -120t-49.5 -96.5q-30 -70 -30 -93.5t9 -23.5zM440 724q0 11 17 26q44 26 77 59.5t44 53.5l11 20q10 14 26 14 t26.5 -18t10.5 -37l-2 -23q-21 -39 -69 -67q-76 -43 -126 -43q-15 0 -15 15z" />
<glyph unicode="&#xd4;" horiz-adv-x="433" d="M498 635q72 46 122 46q46 0 58 -35q4 -12 4 -19q0 -38 -43 -119t-114 -175.5t-153 -181.5t-171 -145t-156 -58q-47 0 -87 40t-40 97.5t32 129t88.5 144.5t124.5 136.5t148.5 103.5t153.5 40q20 0 33 -4zM19 24q51 0 199 130t273.5 271.5t125.5 176.5q0 3 -4 3 q-34 0 -95.5 -40t-117.5 -90t-96.5 -89t-46.5 -48t-10 -9q-2 0 -2 5l2 15q11 36 67 117l19 28q7 13 7 15.5t-2 2.5q-8 0 -27 -17q-75 -68 -133 -137.5t-88.5 -120t-49.5 -96.5q-30 -70 -30 -93.5t9 -23.5zM704 821q0 -38 29 -101q-1 -12 -31 -12q-18 0 -46.5 38t-28.5 48 q-41 -33 -107.5 -58.5t-99.5 -25.5q-11 0 -17.5 5t-6.5 10q0 19 13 19q46 10 96.5 44.5t83.5 64t40.5 29.5t16.5 -4q18 -7 18 -10q6 2 18 2q29 -3 29 -18z" />
<glyph unicode="&#xd5;" horiz-adv-x="433" d="M498 635q72 46 122 46q46 0 58 -35q4 -12 4 -19q0 -38 -43 -119t-114 -175.5t-153 -181.5t-171 -145t-156 -58q-47 0 -87 40t-40 97.5t32 129t88.5 144.5t124.5 136.5t148.5 103.5t153.5 40q20 0 33 -4zM19 24q51 0 199 130t273.5 271.5t125.5 176.5q0 3 -4 3 q-34 0 -95.5 -40t-117.5 -90t-96.5 -89t-46.5 -48t-10 -9q-2 0 -2 5l2 15q11 36 67 117l19 28q7 13 7 15.5t-2 2.5q-8 0 -27 -17q-75 -68 -133 -137.5t-88.5 -120t-49.5 -96.5q-30 -70 -30 -93.5t9 -23.5zM451 767q8 7 22 17.5t50 28.5t64 18q11 0 58 -21t89 -21q17 0 42 24 l9 8q15 0 15 -10q0 -11 -14 -26.5t-28 -25.5q-34 -24 -85 -24q-18 0 -63.5 19t-74.5 19q-15 0 -45.5 -10.5t-38.5 -10.5t-8 2q0 6 8 13z" />
<glyph unicode="&#xd6;" horiz-adv-x="433" d="M498 635q72 46 122 46q46 0 58 -35q4 -12 4 -19q0 -38 -43 -119t-114 -175.5t-153 -181.5t-171 -145t-156 -58q-47 0 -87 40t-40 97.5t32 129t88.5 144.5t124.5 136.5t148.5 103.5t153.5 40q20 0 33 -4zM19 24q51 0 199 130t273.5 271.5t125.5 176.5q0 3 -4 3 q-34 0 -95.5 -40t-117.5 -90t-96.5 -89t-46.5 -48t-10 -9q-2 0 -2 5l2 15q11 36 67 117l19 28q7 13 7 15.5t-2 2.5q-8 0 -27 -17q-75 -68 -133 -137.5t-88.5 -120t-49.5 -96.5q-30 -70 -30 -93.5t9 -23.5zM501 821q10 0 13 -4q14 -17 14 -27.5t-6 -18t-14.5 -17t-34 -26 t-49.5 -16.5q-18 3 -18 22q0 30 36 58.5t59 28.5zM668 821q10 0 13 -4q14 -17 14 -27.5t-6 -18t-14.5 -17t-34 -26t-49.5 -16.5q-18 3 -18 22q0 30 36 58.5t59 28.5z" />
<glyph unicode="&#xd7;" horiz-adv-x="469" d="M477 466q2 1 3 1q10 0 43 -31q4 -2 3.5 -10.5t-60 -65t-141.5 -124.5q14 -31 96 -195q0 -13 -12.5 -23t-23 -10t-15.5 5q-52 55 -117 164q-155 -124 -189 -124q-10 0 -18.5 6.5t-8.5 11t14 18.5q81 79 163 157q-58 109 -69 172v4q0 22 30.5 45t39.5 23h3q17 0 24 -37 q23 -76 48 -137q164 150 187 150z" />
<glyph unicode="&#xd8;" horiz-adv-x="433" d="M762 739l3 -7q-2 -7 -18 -21.5t-70 -62.5l5 -21q0 -38 -43 -119t-114 -175.5t-153 -181.5t-171 -145t-156 -58q-43 0 -78 32q-22 -25 -48 -58q-7 -18 -19 -18q-4 0 -15 4q-10 0 -10 6q1 7 75 84q-32 39 -32 92t32 124.5t88.5 144.5t124.5 136.5t148.5 103.5t153.5 40 q20 0 33 -4q72 46 122 46q26 0 41 -12q85 70 101 70zM333 494q7 13 7 15.5t-5 2.5t-24 -17q-80 -72 -140 -144t-91 -129q-54 -100 -67 -161q326 326 564 536q-50 -20 -129.5 -83.5t-131.5 -114.5t-58.5 -60.5t-10.5 -9.5q-2 0 -2 5l2 15q11 36 67 117zM19 24q49 0 188 120.5 t263.5 258t143.5 187.5q-475 -432 -602 -562q1 -4 7 -4z" />
<glyph unicode="&#xd9;" horiz-adv-x="527" d="M448 44q0 -56 13 -119.5t27 -77.5q0 -3 -7 -3q-46 0 -79 36q-60 67 -60 176q0 52 24 110q6 13 19.5 43t20.5 48q0 1 -2 1q-5 0 -31 -29.5t-67 -71.5t-90 -84.5t-112 -72t-121 -29.5q-56 0 -71 25q-11 19 -11 43q0 50 51.5 121t125.5 139.5t147.5 132.5t125.5 115.5 t53 72.5q0 10 -15 10q-97 0 -215 -66.5t-215 -165.5q-9 -9 -14 -9q-3 0 -3 5l2 10q28 74 83 132.5t115 89.5q123 63 199 63q153 0 153 -96q0 -55 -154 -194q-65 -58 -130 -115q-155 -137 -155 -185q0 -4 4 -4q55 0 232.5 133.5t368.5 317.5l123 119q9 18 21 18q5 0 18 -8.5 t18.5 -11.5t11.5 -7q11 -10 11 -17t-10 -16l-236 -243l-20 -22q-149 -164 -149 -314zM686 716q10 -14 10 -29q-4 -11 -16 -11q-13 3 -43.5 19.5t-70 55.5t-48.5 82l5 27q14 38 42 39q19 0 28 -20q7 -33 32.5 -79.5t60.5 -83.5z" />
<glyph unicode="&#xda;" horiz-adv-x="527" d="M461 -75.5q-13 63.5 -13 119.5t16.5 104t41.5 88q42 68 91 122l20 22l236 243q10 9 10 15t-3 9.5t-8.5 8t-11 7.5t-14.5 9q-17 11 -22 11q-11 0 -21 -18l-123 -119q-191 -184 -368.5 -317.5t-232.5 -133.5q-4 0 -4 4q0 48 155 185q65 57 130 115q154 139 154 194 q0 96 -153 96q-76 0 -199 -63q-60 -31 -115 -89.5t-83 -132.5q-2 -6 -2 -10.5t3 -4.5q5 0 14 9q97 99 215 165.5t215 66.5q15 0 15 -10q-1 -21 -53 -72.5t-125.5 -115.5t-147.5 -132.5t-125.5 -139.5t-51.5 -121q0 -49 36 -61q18 -7 46 -7q58 0 121 29.5t112 71.5t90 84.5 t67 72t31 29.5q2 0 2 -1q-7 -18 -20.5 -48t-19 -43t-12.5 -34q-12 -36 -12 -79t13.5 -89.5t46.5 -83t79 -36.5q7 0 7 3q-14 14 -27 77.5zM562 698q0 11 17 26q44 26 77 59.5t44 53.5l11 20q10 14 26 14t26.5 -18t10.5 -37l-2 -23q-21 -39 -69 -67q-76 -43 -126 -43 q-15 0 -15 15z" />
<glyph unicode="&#xdb;" horiz-adv-x="527" d="M461 -75.5q-13 63.5 -13 119.5t16.5 104t41.5 88q42 68 91 122l20 22l236 243q10 9 10 15t-3 9.5t-8.5 8t-11 7.5t-14.5 9q-17 11 -22 11q-11 0 -21 -18l-123 -119q-191 -184 -368.5 -317.5t-232.5 -133.5q-4 0 -4 4q0 48 155 185q65 57 130 115q154 139 154 194 q0 96 -153 96q-76 0 -199 -63q-60 -31 -115 -89.5t-83 -132.5q-2 -6 -2 -10.5t3 -4.5q5 0 14 9q97 99 215 165.5t215 66.5q15 0 15 -10q-1 -21 -53 -72.5t-125.5 -115.5t-147.5 -132.5t-125.5 -139.5t-51.5 -121q0 -49 36 -61q18 -7 46 -7q58 0 121 29.5t112 71.5t90 84.5 t67 72t31 29.5q2 0 2 -1q-7 -18 -20.5 -48t-19 -43t-12.5 -34q-12 -36 -12 -79t13.5 -89.5t46.5 -83t79 -36.5q7 0 7 3q-14 14 -27 77.5zM782 828q0 -38 29 -101q-1 -12 -31 -12q-18 0 -46.5 38.5t-28.5 47.5q-41 -33 -107.5 -58.5t-99.5 -25.5q-11 0 -17.5 5t-6.5 10 q0 19 13 19q46 10 96.5 44.5t83.5 64t40.5 29.5t16.5 -3q18 -8 18 -11q6 2 18 2q29 -3 29 -18z" />
<glyph unicode="&#xdc;" horiz-adv-x="527" d="M448 44q0 -56 13 -119.5t27 -77.5q0 -3 -7 -3q-46 0 -79 36q-60 67 -60 176q0 52 24 110q6 13 19.5 43t20.5 48q0 1 -2 1q-5 0 -31 -29.5t-67 -71.5t-90 -84.5t-112 -72t-121 -29.5q-56 0 -71 25q-11 19 -11 43q0 50 51.5 121t125.5 139.5t147.5 132.5t125.5 115.5 t53 72.5q0 10 -15 10q-97 0 -215 -66.5t-215 -165.5q-9 -9 -14 -9q-3 0 -3 5l2 10q28 74 83 132.5t115 89.5q123 63 199 63q153 0 153 -96q0 -55 -154 -194q-65 -58 -130 -115q-155 -137 -155 -185q0 -4 4 -4q55 0 232.5 133.5t368.5 317.5l123 119q9 18 21 18q5 0 18 -8.5 t18.5 -11.5t11.5 -7q11 -10 11 -17t-10 -16l-236 -243l-20 -22q-149 -164 -149 -314zM605 829q10 0 13 -4q14 -17 14 -27.5t-6 -18t-14.5 -17t-34 -26t-49.5 -16.5q-18 3 -18 22q0 30 36 58.5t59 28.5zM772 829q10 0 13 -4q14 -17 14 -27.5t-6 -18t-14.5 -17t-34 -26 t-49.5 -16.5q-18 3 -18 22q0 30 36 58.5t59 28.5z" />
<glyph unicode="&#xdd;" horiz-adv-x="551" d="M882 637q7 -6 7 -14.5t-6 -14.5l-115 -124q-166 -195 -374 -488q-53 -89 -182 -218q-68 -69 -151.5 -117t-154.5 -48q-15 0 -34 18t-19 51q0 44 58.5 102.5t137.5 99.5t134 41h4q189 219 233 268l159 175q1 1 2.5 3t4.5 7q18 22 -10 -4l-145 -142q-264 -259 -385 -259 q-29 0 -55.5 23t-26.5 65q0 80 147 227l267 238q48 45 48 59q0 4 -6 4t-29 -4t-71.5 -19.5t-102 -39.5t-123 -70t-132.5 -104q-10 -14 -22 -14h-3q-4 1 -4 5q0 10 15 25q89 128 213 209t223 81q42 0 77 -22.5t35 -75.5q0 -37 -45 -94.5t-110 -116.5t-129 -115 q-155 -136 -155 -176q0 -2 9.5 -2t40 15t71.5 43t81.5 57.5t90 68.5t82.5 66q95 75 124 100l212 181l59 58q10 11 18.5 11t13.5 -3zM161 -101q8 8 8 9.5t-2 1.5l-17 -6q-97 -52 -176 -138t-79 -115q0 -3 3 -3l6 2q51 30 115.5 92t102.5 110zM564 659q0 11 17 26 q44 26 77 59.5t44 53.5l11 20q10 14 26 14t26.5 -18t10.5 -37l-2 -23q-21 -39 -69 -66q-76 -44 -126 -44q-15 0 -15 15z" />
<glyph unicode="&#xde;" horiz-adv-x="500" d="M430 586q115 114 148 114q8 0 16.5 -5t8.5 -12t-4 -11q-43 -40 -109 -109q117 -58 117 -167q0 -51 -64 -117t-155.5 -112.5t-163.5 -46.5q-59 0 -59 56q-67 -90 -131 -193q1 -5 1 -14.5t-11 -9.5t-28.5 18.5t-17.5 52.5q0 10 1 16q6 41 117.5 177.5t247.5 277.5 q-78 -4 -156.5 -26t-136.5 -51t-104 -60t-69.5 -54.5t-23.5 -30.5t7 -7t37 10q101 33 197 89q7 4 9.5 4t2.5 -2.5t-12.5 -19t-34.5 -40t-48 -45.5t-58.5 -37.5t-63 -15.5t-60 24.5t-29.5 67t42 92.5t110.5 95t170.5 76t208 31q47 0 98 -15zM569 437q0 26 -41.5 41.5 t-97.5 20.5q-137 -150 -255 -310q61 6 152.5 43.5t166.5 95.5t75 109z" />
<glyph unicode="&#xdf;" horiz-adv-x="521" d="M469 513q-305 -330 -560 -684l1 -5q0 -14 -15.5 -21.5t-36.5 -7.5t-36 6.5t-15 17.5q0 18 57 97t120 156q182 220 497 576q6 20 30 20q3 -1 16 -2t21 -2.5t16 -7.5t8 -15q41 17 61.5 17t30.5 -7q34 -28 34 -63.5t-25 -91t-72 -106.5t-97 -62q-4 -92 -34 -160 q-10 -23 -10 -25t2 -2t8 3q75 38 191 124l24 18q9 -7 9 -17t-9 -18q-2 0 -51.5 -42t-110 -91.5t-129.5 -90.5t-107 -41q-94 0 -94 113q0 9 7.5 16.5t19.5 7.5q0 -5 5.5 -15.5t12.5 -17.5q17 -17 51.5 -17t64 42.5t41.5 86t12 69.5q0 3 -9.5 9t-9.5 17t8.5 32.5t12 28 t13.5 14.5t16 8t11 -3q48 12 112.5 99.5t64.5 118.5q0 3 -3 3q-25 0 -69 -20.5t-85 -64.5z" />
<glyph unicode="&#xe0;" horiz-adv-x="394" d="M178 42l8 64q0 3 -1.5 3t-5.5 -4q-13 -14 -33 -34.5t-68.5 -55t-78.5 -34.5q-5 1 -12.5 3.5t-19.5 16.5t-12 40t39.5 79.5t94.5 105t122.5 89.5t117.5 38q19 -1 30 -27q10 10 18 10t19 -12q6 -1 12 -6.5t6 -15.5t-14 -22q-21 -26 -49 -59t-40 -47.5t-25 -32.5 q-22 -31 -24 -50q102 49 321 211q9 -7 9 -17t-8 -17t-19.5 -17t-45.5 -39t-65.5 -55.5t-72 -59t-72.5 -55.5q-77 -55 -96 -55t-27 12t-8 43zM76 84q12 0 73.5 49t116.5 98l56 49q4 4 4 5.5t-3 1.5q-38 0 -99 -43.5t-105.5 -92t-44.5 -65.5q0 -2 2 -2zM369 413q10 -14 10 -29 q-4 -11 -16 -11q-13 3 -43.5 19.5t-70 55.5t-48.5 82l5 27q13 39 42 39q19 0 28 -20q7 -33 32.5 -79.5t60.5 -83.5z" />
<glyph unicode="&#xe1;" horiz-adv-x="397" d="M178 42l8 64q0 3 -1.5 3t-5.5 -4q-13 -14 -33 -34.5t-68.5 -55t-78.5 -34.5q-5 1 -12.5 3.5t-19.5 16.5t-12 40t39.5 79.5t94.5 105t122.5 89.5t117.5 38q19 -1 30 -27q10 10 18 10t19 -12q6 -1 12 -6.5t6 -15.5t-14 -22q-21 -26 -49 -59t-40 -47.5t-25 -32.5 q-22 -31 -24 -50q102 49 321 211q9 -7 9 -17t-8 -17t-19.5 -17t-45.5 -39t-65.5 -55.5t-72 -59t-72.5 -55.5q-77 -55 -96 -55t-27 12t-8 43zM76 84q12 0 73.5 49t116.5 98l56 49q4 4 4 5.5t-3 1.5q-38 0 -99 -43.5t-105.5 -92t-44.5 -65.5q0 -2 2 -2zM321 409q0 9 17 26 q44 26 77 59.5t44 53.5l11 20q10 14 26 14t26.5 -18t10.5 -37l-2 -23q-21 -39 -69 -66q-76 -44 -126 -44q-15 0 -15 15z" />
<glyph unicode="&#xe2;" horiz-adv-x="397" d="M178 42l8 64q0 3 -1.5 3t-5.5 -4q-13 -14 -33 -34.5t-68.5 -55t-78.5 -34.5q-5 1 -12.5 3.5t-19.5 16.5t-12 40t39.5 79.5t94.5 105t122.5 89.5t117.5 38q19 -1 30 -27q10 10 18 10t19 -12q6 -1 12 -6.5t6 -15.5t-14 -22q-21 -26 -49 -59t-40 -47.5t-25 -32.5 q-22 -31 -24 -50q102 49 321 211q9 -7 9 -17t-8 -17t-19.5 -17t-45.5 -39t-65.5 -55.5t-72 -59t-72.5 -55.5q-77 -55 -96 -55t-27 12t-8 43zM76 84q12 0 73.5 49t116.5 98l56 49q4 4 4 5.5t-3 1.5q-38 0 -99 -43.5t-105.5 -92t-44.5 -65.5q0 -2 2 -2zM454 484q0 -38 29 -101 q-1 -12 -31 -12q-18 0 -46.5 38.5t-28.5 47.5q-41 -33 -107.5 -58.5t-99.5 -25.5q-11 0 -17.5 5t-6.5 10q0 19 13 19q46 10 96.5 44.5t83.5 64t40.5 29.5t16.5 -3q18 -8 18 -11q6 2 18 2q29 -3 29 -18z" />
<glyph unicode="&#xe3;" horiz-adv-x="396" d="M178 42l8 64q0 3 -1.5 3t-5.5 -4q-13 -14 -33 -34.5t-68.5 -55t-78.5 -34.5q-5 1 -12.5 3.5t-19.5 16.5t-12 40t39.5 79.5t94.5 105t122.5 89.5t117.5 38q19 -1 30 -27q10 10 18 10t19 -12q6 -1 12 -6.5t6 -15.5t-14 -22q-21 -26 -49 -59t-40 -47.5t-25 -32.5 q-22 -31 -24 -50q102 49 321 211q9 -7 9 -17t-8 -17t-19.5 -17t-45.5 -39t-65.5 -55.5t-72 -59t-72.5 -55.5q-77 -55 -96 -55t-27 12t-8 43zM76 84q12 0 73.5 49t116.5 98l56 49q4 4 4 5.5t-3 1.5q-38 0 -99 -43.5t-105.5 -92t-44.5 -65.5q0 -2 2 -2zM219 417q8 7 22 17.5 t50 28.5t64 18q11 0 58 -21t89 -21q17 0 42 24l9 8q15 0 15 -10q0 -11 -14 -26.5t-28 -25.5q-34 -24 -85 -24q-18 0 -63.5 19t-74.5 19q-15 0 -45.5 -10.5t-38.5 -10.5t-8 2q0 6 8 13z" />
<glyph unicode="&#xe4;" horiz-adv-x="396" d="M178 42l8 64q0 3 -1.5 3t-5.5 -4q-13 -14 -33 -34.5t-68.5 -55t-78.5 -34.5q-5 1 -12.5 3.5t-19.5 16.5t-12 40t39.5 79.5t94.5 105t122.5 89.5t117.5 38q19 -1 30 -27q10 10 18 10t19 -12q6 -1 12 -6.5t6 -15.5t-14 -22q-21 -26 -49 -59t-40 -47.5t-25 -32.5 q-22 -31 -24 -50q102 49 321 211q9 -7 9 -17t-8 -17t-19.5 -17t-45.5 -39t-65.5 -55.5t-72 -59t-72.5 -55.5q-77 -55 -96 -55t-27 12t-8 43zM76 84q12 0 73.5 49t116.5 98l56 49q4 4 4 5.5t-3 1.5q-38 0 -99 -43.5t-105.5 -92t-44.5 -65.5q0 -2 2 -2zM331 495q10 0 13 -4 q14 -17 14 -27.5t-6 -18t-14.5 -17t-34 -26t-49.5 -16.5q-18 3 -18 22q0 30 36 58.5t59 28.5zM498 495q10 0 13 -4q14 -17 14 -27.5t-6 -18t-14.5 -17t-34 -26t-49.5 -16.5q-18 3 -18 22q0 30 36 58.5t59 28.5z" />
<glyph unicode="&#xe5;" horiz-adv-x="402" d="M178 42l8 64q0 3 -1.5 3t-5.5 -4q-13 -14 -33 -34.5t-68.5 -55t-78.5 -34.5q-5 1 -12.5 3.5t-19.5 16.5t-12 40t39.5 79.5t94.5 105t122.5 89.5t117.5 38q19 -1 30 -27q10 10 18 10t19 -12q6 -1 12 -6.5t6 -15.5t-14 -22q-21 -26 -49 -59t-40 -47.5t-25 -32.5 q-22 -31 -24 -50q102 49 321 211q9 -7 9 -17t-8 -17t-19.5 -17t-45.5 -39t-65.5 -55.5t-72 -59t-72.5 -55.5q-77 -55 -96 -55t-27 12t-8 43zM76 84q12 0 73.5 49t116.5 98l56 49q4 4 4 5.5t-3 1.5q-38 0 -99 -43.5t-105.5 -92t-44.5 -65.5q0 -2 2 -2zM425 522q33 0 48 -28 q6 -11 6 -26q0 -41 -24.5 -68.5t-84.5 -27.5q-20 0 -34 13.5t-14 32.5t3.5 33t12.5 31q22 40 87 40zM428.5 419q12.5 9 12.5 37.5t-26 28.5q-36 0 -44.5 -10.5t-8.5 -43.5q0 -17 15 -21q39 0 51.5 9z" />
<glyph unicode="&#xe6;" horiz-adv-x="657" d="M181 38l8 64q0 3 -1.5 3t-5.5 -4q-13 -14 -33 -34.5t-68.5 -55t-78.5 -34.5q-5 1 -12.5 3.5t-19.5 16.5t-12 40t39.5 79.5t94.5 105t122.5 89.5t117.5 38q19 -1 30 -27q10 10 18 10t19 -12q6 -1 12 -6.5t6 -15.5t-14 -22q-21 -26 -49 -59t-40 -47.5t-25 -32.5 q-22 -31 -24 -50q27 13 57 38q29 83 122.5 155.5t165.5 72.5q24 0 44.5 -19t20.5 -37q0 -33 -47 -74.5t-98.5 -67t-68.5 -25.5t-24 15q-4 3 -11 3t-23 -26.5t-16 -43t12 -20.5q76 0 165 44.5t246 156.5q11 8 33.5 24t26.5 19q9 -7 9 -17t-9 -18q-50 -50 -129.5 -112 t-182.5 -117.5t-169.5 -55.5t-74.5 71q-75 -70 -96 -70t-29 12t-8 43zM79 80q12 0 73.5 49t117.5 98l55 49q4 4 4 5.5t-3 1.5q-38 0 -99 -43.5t-105.5 -92t-44.5 -65.5q0 -2 2 -2zM603 302q-26 0 -88 -53.5t-62 -65.5q0 -2 3 -2q22 0 87.5 49t65.5 67q0 5 -6 5z" />
<glyph unicode="&#xe7;" horiz-adv-x="395" d="M91 -47l14 1q39 0 39 -36q0 -32 -32 -54.5t-62 -22.5t-30 10q0 5 4 7q11 3 23 4.5t28.5 14t16.5 27t-13 14.5l-10 -1q-9 0 -9 9q0 6 11.5 26.5t14.5 29.5q-66 6 -66 82q0 57 38 111.5t93 91.5t115 59.5t96.5 22.5t52.5 -10t17 -20l2 -10q-1 -36 -44.5 -71t-105.5 -35 q-26 0 -26 15q0 6 9 9q60 35 76 57q2 4 2 9t-5 5q-85 -12 -162 -93t-77 -126q0 -21 16 -21q74 0 156 43t244 158q11 8 33.5 24t26.5 19q9 -7 9 -17t-9 -18q-84 -84 -228.5 -180.5t-240.5 -103.5q-6 -15 -17 -30z" />
<glyph unicode="&#xe8;" horiz-adv-x="364" d="M310 302q-26 0 -88 -53.5t-62 -65.5q0 -2 3 -2q22 0 87.5 49t65.5 67q0 5 -6 5zM97 -18q-77 0 -77 94q0 59 51.5 125.5t121.5 109t124 42.5q24 0 44.5 -19t20.5 -37q0 -33 -47 -74.5t-98.5 -67t-68 -25.5t-24.5 15q-4 3 -11 3t-23 -26.5t-16 -43t12 -20.5q76 0 165 44.5 t246 156.5q11 8 33.5 24t26.5 19q9 -7 9 -17t-9 -18q-50 -50 -129.5 -112t-182.5 -117.5t-168 -55.5zM382 413q10 -14 10 -29q-4 -11 -16 -11q-13 3 -43.5 19.5t-70 55.5t-48.5 82l5 27q13 39 42 39q19 0 28 -20q7 -33 32.5 -79.5t60.5 -83.5z" />
<glyph unicode="&#xe9;" horiz-adv-x="364" d="M310 302q6 0 6 -5q0 -18 -65.5 -67t-87.5 -49q-3 0 -3 2q0 12 62 65.5t88 53.5zM97 -18q65 0 168 55.5t182.5 117.5t129.5 112q9 8 9 15q0 13 -9 20q-4 -3 -26.5 -19t-33.5 -24q-157 -112 -246 -156.5t-165 -44.5q-12 4 -12 20.5t16 43t24 26.5l10 -3q8 -15 24.5 -15 t68 25.5t98.5 67t47 74.5q0 18 -20.5 37t-44.5 19q-54 0 -124 -42.5t-121.5 -109t-51.5 -125.5q0 -94 77 -94zM325 409q0 9 17 26q44 26 77 59.5t44 53.5l11 20q10 14 26 14t26.5 -18t10.5 -37l-2 -23q-21 -39 -69 -66q-76 -44 -126 -44q-15 0 -15 15z" />
<glyph unicode="&#xea;" horiz-adv-x="364" d="M310 302q6 0 6 -5q0 -18 -65.5 -67t-87.5 -49q-3 0 -3 2q0 12 62 65.5t88 53.5zM97 -18q65 0 168 55.5t182.5 117.5t129.5 112q9 8 9 15q0 13 -9 20q-4 -3 -26.5 -19t-33.5 -24q-157 -112 -246 -156.5t-165 -44.5q-12 4 -12 20.5t16 43t24 26.5l10 -3q8 -15 24.5 -15 t68 25.5t98.5 67t47 74.5q0 18 -20.5 37t-44.5 19q-54 0 -124 -42.5t-121.5 -109t-51.5 -125.5q0 -94 77 -94zM463 484q0 -38 29 -101q-1 -12 -31 -12q-18 0 -46.5 38.5t-28.5 47.5q-41 -33 -107.5 -58.5t-99.5 -25.5q-11 0 -17.5 5t-6.5 10q0 19 13 19q46 10 96.5 44.5 t83.5 64t40.5 29.5t15.5 -3q19 -8 19 -11q6 2 18 2q29 -3 29 -18z" />
<glyph unicode="&#xeb;" horiz-adv-x="364" d="M310 302q-26 0 -88 -53.5t-62 -65.5q0 -2 3 -2q22 0 87.5 49t65.5 67q0 5 -6 5zM97 -18q-77 0 -77 94q0 59 51.5 125.5t121.5 109t124 42.5q24 0 44.5 -19t20.5 -37q0 -33 -47 -74.5t-98.5 -67t-68 -25.5t-24.5 15q-4 3 -11 3t-23 -26.5t-16 -43t12 -20.5q76 0 165 44.5 t246 156.5q11 8 33.5 24t26.5 19q9 -7 9 -17t-9 -18q-50 -50 -129.5 -112t-182.5 -117.5t-168 -55.5zM311 495q10 0 13 -4q14 -17 14 -27.5t-6 -18t-14.5 -17t-34 -26t-49.5 -16.5q-18 3 -18 22q0 30 36 58.5t59 28.5zM478 495q10 0 13 -4q14 -17 14 -27.5t-6 -18t-14.5 -17 t-34 -26t-49.5 -16.5q-18 3 -18 22q0 30 36 58.5t59 28.5z" />
<glyph unicode="&#xec;" d="M111 101q-8 -14 -8 -25t12 -11q7 0 24 6q187 98 366 231q9 -7 9 -17t-10 -19t-28.5 -26t-70.5 -61t-97 -80q-118 -95 -174 -112q-18 -5 -39 -5q-77 0 -77 82q0 32 35 91.5t72 105t49 50.5q18 11 39 11t40 -8q6 -3 6 -8t-9.5 -15t-29 -31t-58 -72.5t-51.5 -86.5zM324 413 q10 -14 10 -29q-4 -11 -16 -11q-13 3 -43.5 19.5t-70 55.5t-48.5 82l5 27q13 39 42 39q19 0 28 -20q7 -33 32.5 -79.5t60.5 -83.5z" />
<glyph unicode="&#xed;" d="M115 65q-12 0 -12 10t8 26q13 35 48.5 83.5t64.5 79.5l28 30q7 7 7 10q0 6 -6 10q-19 8 -35 8q-22 0 -39 -8t-54 -53.5t-72 -105t-35 -91.5q0 -82 77 -82l39 5q45 15 138 85t163 132l70 63q9 8 9 15q0 13 -9 20q-80 -59 -171.5 -117t-143.5 -86l-51 -28q-17 -6 -24 -6z M247 409q0 9 17 26q44 26 77 59.5t44 53.5l11 20q10 14 26 14t26.5 -18t10.5 -37l-2 -23q-21 -39 -69 -66q-76 -44 -126 -44q-15 0 -15 15z" />
<glyph unicode="&#xee;" d="M115 65q-12 0 -12 10t8 26q13 35 48.5 83.5t64.5 79.5l28 30q7 7 7 10q0 6 -6 10q-19 8 -35 8q-22 0 -39 -8t-54 -53.5t-72 -105t-35 -91.5q0 -82 77 -82l39 5q45 15 138 85t163 132l70 63q9 8 9 15q0 13 -9 20q-80 -59 -171.5 -117t-143.5 -86l-51 -28q-17 -6 -24 -6z M359 484q0 -38 29 -101q-1 -12 -31 -12q-18 0 -46.5 38.5t-28.5 47.5q-41 -33 -107.5 -58.5t-99.5 -25.5q-11 0 -17.5 5t-6.5 10q0 19 13 19q46 10 96.5 44.5t83.5 64t40.5 29.5t15.5 -3q19 -8 19 -11q6 2 18 2q29 -3 29 -18z" />
<glyph unicode="&#xef;" d="M111 101q-8 -14 -8 -25t12 -11q7 0 24 6q187 98 366 231q9 -7 9 -17t-10 -19t-28.5 -26t-70.5 -61t-97 -80q-118 -95 -174 -112q-18 -5 -39 -5q-77 0 -77 82q0 32 35 91.5t72 105t49 50.5q18 11 39 11t40 -8q6 -3 6 -8t-9.5 -15t-29 -31t-58 -72.5t-51.5 -86.5zM232 495 q10 0 13 -4q14 -17 14 -27.5t-6 -18t-14.5 -17t-34 -26t-49.5 -16.5q-18 3 -18 22q0 30 36 58.5t59 28.5zM399 495q10 0 13 -4q14 -17 14 -27.5t-6 -18t-14.5 -17t-34 -26t-49.5 -16.5q-18 3 -18 22q0 30 36 58.5t59 28.5z" />
<glyph unicode="&#xf0;" horiz-adv-x="334" d="M430 527l16 -5q45 -15 47 -23q0 -7 -32.5 -14t-86.5 -17q-8 -208 -94 -341q-38 -59 -102 -103q-33 -22 -70 -32.5t-48 -11.5h-10q-54 8 -68 38q-8 15 -8 38q0 66 76 157.5t191 134.5q10 0 15 -4.5t9 -5t10.5 4t20.5 5t14 -7.5q7 29 8.5 68.5t2.5 50.5q-43 -7 -77 -9 q-10 0 -19.5 5.5t-10.5 12.5q0 7 33 17q33 13 74 24q0 26 -22 79t-22 71t11.5 31.5t29.5 13.5q58 0 58 -182v-1q28 6 54 6zM57 44q40 0 117 70.5t96 139.5q0 1 2.5 8t2.5 17t-2 10q-68 0 -144.5 -93t-76.5 -144q0 -8 5 -8z" />
<glyph unicode="&#xf1;" horiz-adv-x="460" d="M219 331q8 0 26.5 -8t18.5 -18q0 -7 -5 -14l-75 -104q-13 -16 -13 -18t1 -2l5 3q116 81 191 142q14 10 23.5 10t12.5 -2l28 -8q10 -5 10 -13t-4 -13q-19 -21 -43.5 -47.5t-36.5 -40t-27 -30.5t-21.5 -26t-14.5 -20.5t-11 -19.5q-6 -23 -6 -40q0 -9 11.5 -9t42 14t73 43 t113 82.5t123.5 90.5q9 -7 9 -17t-9 -18q-32 -31 -81 -77.5t-149.5 -124.5t-140.5 -78q-77 0 -77 82q0 31 24 65l43 59q6 9 6 10.5t-6 -3.5q-174 -145 -222 -170q-8 -5 -20 -5q-33 0 -33 30q0 10 5 18q74 68 104 111q24 24 50.5 67t45 71t29.5 28zM215 417q8 7 22 17.5 t50 28.5t64 18q11 0 58 -21t89 -21q17 0 42 24l9 8q15 0 15 -10q0 -11 -14 -26.5t-28 -25.5q-34 -24 -85 -24q-18 0 -63.5 19t-74.5 19q-15 0 -45.5 -10.5t-38.5 -10.5t-8 2q0 6 8 13z" />
<glyph unicode="&#xf2;" horiz-adv-x="334" d="M57 44q32 0 79 42t49 58q-12 10 -25.5 36.5t-14.5 26.5q-31 -29 -55 -67q-38 -64 -38 -88q0 -8 5 -8zM273 289q-10 0 -41.5 -31t-31.5 -43q0 -3 6 -12t9 -9q17 0 38.5 41t21.5 47.5t-2 6.5zM275 160q28 0 87.5 34t104.5 68l45 35q9 -7 9 -17t-9 -18q-165 -153 -250 -153 q-6 0 -18 2q-113 -131 -194 -131q-54 8 -68 38q-8 15 -8 38q0 66 76 157.5t191 134.5q10 0 15 -4.5t9 -5t10.5 4t17.5 5t23 -12.5q16 -13 16 -32q0 -56 -57 -143zM346 413q10 -14 10 -29q-4 -11 -16 -11q-13 3 -43.5 19.5t-70 55.5t-48.5 82l5 27q13 39 42 39q19 0 28 -20 q7 -33 32.5 -79.5t60.5 -83.5z" />
<glyph unicode="&#xf3;" horiz-adv-x="334" d="M57 44q32 0 79 42t49 58q-12 10 -25.5 36.5t-14.5 26.5q-31 -29 -55 -67q-38 -64 -38 -88q0 -8 5 -8zM273 289q-10 0 -41.5 -31t-31.5 -43q0 -3 6 -12t9 -9q17 0 38.5 41t21.5 47.5t-2 6.5zM275 160q28 0 87.5 34t104.5 68l45 35q9 -7 9 -17t-9 -18q-165 -153 -250 -153 q-6 0 -18 2q-113 -131 -194 -131q-54 8 -68 38q-8 15 -8 38q0 66 76 157.5t191 134.5q10 0 15 -4.5t9 -5t10.5 4t17.5 5t23 -12.5q16 -13 16 -32q0 -56 -57 -143zM271 409q0 9 17 26q44 26 77 59.5t44 53.5l11 20q10 14 26 14t26.5 -18t10.5 -37l-2 -23q-21 -39 -69 -66 q-76 -44 -126 -44q-15 0 -15 15z" />
<glyph unicode="&#xf4;" horiz-adv-x="334" d="M57 44q32 0 79 42t49 58q-12 10 -25.5 36.5t-14.5 26.5q-31 -29 -55 -67q-38 -64 -38 -88q0 -8 5 -8zM273 289q-10 0 -41.5 -31t-31.5 -43q0 -3 6 -12t9 -9q17 0 38.5 41t21.5 47.5t-2 6.5zM275 160q28 0 87.5 34t104.5 68l45 35q9 -7 9 -17t-9 -18q-165 -153 -250 -153 q-6 0 -18 2q-113 -131 -194 -131q-54 8 -68 38q-8 15 -8 38q0 66 76 157.5t191 134.5q10 0 15 -4.5t9 -5t10.5 4t17.5 5t23 -12.5q16 -13 16 -32q0 -56 -57 -143zM419 484q0 -38 29 -101q-1 -12 -31 -12q-18 0 -46.5 38.5t-28.5 47.5q-41 -33 -107.5 -58.5t-99.5 -25.5 q-11 0 -17.5 5t-6.5 10q0 19 13 19q46 10 96.5 44.5t83.5 64t40.5 29.5t15.5 -3q19 -8 19 -11q6 2 18 2q29 -3 29 -18z" />
<glyph unicode="&#xf5;" horiz-adv-x="334" d="M57 44q32 0 79 42t49 58q-12 10 -25.5 36.5t-14.5 26.5q-31 -29 -55 -67q-38 -64 -38 -88q0 -8 5 -8zM273 289q-10 0 -41.5 -31t-31.5 -43q0 -3 6 -12t9 -9q17 0 38.5 41t21.5 47.5t-2 6.5zM275 160q28 0 87.5 34t104.5 68l45 35q9 -7 9 -17t-9 -18q-165 -153 -250 -153 q-6 0 -18 2q-113 -131 -194 -131q-54 8 -68 38q-8 15 -8 38q0 66 76 157.5t191 134.5q10 0 15 -4.5t9 -5t10.5 4t17.5 5t23 -12.5q16 -13 16 -32q0 -56 -57 -143zM164 417q8 7 22 17.5t50 28.5t56 18t67 -21t88 -21q17 0 43 24l8 8q15 0 15 -10q0 -11 -14 -26.5t-28 -25.5 q-34 -24 -85 -24q-18 0 -63.5 19t-74.5 19q-15 0 -45.5 -10.5t-38.5 -10.5t-8 2q0 6 8 13z" />
<glyph unicode="&#xf6;" horiz-adv-x="334" d="M57 44q32 0 79 42t49 58q-12 10 -25.5 36.5t-14.5 26.5q-31 -29 -55 -67q-38 -64 -38 -88q0 -8 5 -8zM273 289q-10 0 -41.5 -31t-31.5 -43q0 -3 6 -12t9 -9q17 0 38.5 41t21.5 47.5t-2 6.5zM275 160q28 0 87.5 34t104.5 68l45 35q9 -7 9 -17t-9 -18q-165 -153 -250 -153 q-6 0 -18 2q-113 -131 -194 -131q-54 8 -68 38q-8 15 -8 38q0 66 76 157.5t191 134.5q10 0 15 -4.5t9 -5t10.5 4t17.5 5t23 -12.5q16 -13 16 -32q0 -56 -57 -143zM277 495q10 0 13 -4q14 -17 14 -27.5t-6 -18t-14.5 -17t-34 -26t-49.5 -16.5q-18 3 -18 22q0 30 36 58.5 t59 28.5zM444 495q10 0 13 -4q14 -17 14 -27.5t-6 -18t-14.5 -17t-34 -26t-49.5 -16.5q-18 3 -18 22q0 30 36 58.5t59 28.5z" />
<glyph unicode="&#xf7;" horiz-adv-x="467" d="M426 209l-379 5q-8 -3 -14.5 -3t-8.5 2.5t-2 12.5l10 57q2 2 19 2l113 -2q175 0 217 3q7 3 14 3q28 0 44 -31q8 -10 8 -20q0 -24 -21 -29zM367 450q10 0 13 -4q14 -17 14 -27.5t-6 -18t-14.5 -17t-34 -26t-49.5 -16.5q-18 3 -18 22q0 30 36 58.5t59 28.5zM161 142 q10 0 13 -4q14 -17 14 -27.5t-6 -18t-14.5 -17t-34 -26t-49.5 -16.5q-18 3 -18 22q0 30 36 58.5t59 28.5z" />
<glyph unicode="&#xf8;" horiz-adv-x="334" d="M331 308l1 -5q0 -56 -57 -143q28 0 87.5 34t104.5 68l45 35q9 -7 9 -17t-9 -18q-165 -153 -250 -153q-6 0 -18 2q-113 -131 -194 -131q-17 2 -33 7q-22 -32 -32 -46q-7 -18 -19 -18q-6 0 -10 4l-12 -1l-3 9q2 8 53 66q-20 18 -20 55q0 66 76 157.5t191 134.5 q10 0 15 -4.5t9 -5t10.5 4t17 5t24.5 -13.5q92 82 116 82l3 -7q-2 -7 -5 -9zM172 157q-77 -76 -109 -113q32 5 76 44.5t46 55.5q-5 3 -13 13zM57 72q46 50 102 108q-13 27 -14 27q-58 -54 -88 -135zM254 235l-42 -40q1 -1 3 -1q16 0 39 41zM204 225l62 61q-13 -7 -33 -27 t-29 -34z" />
<glyph unicode="&#xf9;" horiz-adv-x="404" d="M264 89q149 80 328 213q9 -7 9 -17t-10 -19t-28.5 -26t-70.5 -61t-97 -80q-118 -95 -174 -112q-18 -5 -39 -5q-34 0 -34 53q0 11 9.5 33t11 25.5t2.5 5.5t2 3.5t1 3.5t-6 2q-5 0 -33 -26.5t-46.5 -42.5t-42 -30t-38.5 -14q-40 0 -40 37q0 22 15 54q35 74 105 148t100 75 q11 0 20 -8t9 -18t-20 -30t-50.5 -51.5t-43 -52.5t-12.5 -28t8 -7t29 13q57 39 130.5 96t94.5 83q5 18 30 18q48 0 48 -17q0 -7 -47 -52q-141 -135 -141 -167q0 -5 4.5 -5t16.5 6zM364 413q10 -14 10 -29q-4 -11 -16 -11q-13 3 -43.5 19.5t-70 55.5t-48.5 82l5 27 q13 39 42 39q19 0 28 -20q7 -33 32.5 -79.5t60.5 -83.5z" />
<glyph unicode="&#xfa;" horiz-adv-x="404" d="M264 89q-12 -6 -16.5 -6t-4.5 5q0 32 141 167q47 45 47 52q0 17 -48 17q-11 0 -18.5 -4.5t-11.5 -13.5q-21 -26 -94.5 -83t-130.5 -96q-21 -13 -29 -13t-8 6l7 19q18 31 48.5 62.5t50.5 51.5t20 30t-9 18t-20 8q-30 -1 -100 -75t-105 -148q-15 -32 -15 -54q0 -37 40 -37 q15 0 38.5 14t42 30t37.5 34t21 19q15 16 21 16t6 -2t-1 -3.5t-3 -6.5q-22 -48 -22 -61q0 -53 34 -53l39 5q45 15 138 85t163 132l70 63q9 8 9 15q0 11 -9 20q-80 -59 -162 -112.5t-124 -77.5zM268 409q0 11 17 26q44 26 77 59.5t44 53.5l11 20q10 14 26 14t26.5 -18 t10.5 -37l-2 -23q-21 -39 -69 -66q-76 -44 -126 -44q-15 0 -15 15z" />
<glyph unicode="&#xfb;" horiz-adv-x="404" d="M264 89q-12 -6 -16.5 -6t-4.5 5q0 32 141 167q47 45 47 52q0 17 -48 17q-11 0 -18.5 -4.5t-11.5 -13.5q-21 -26 -94.5 -83t-130.5 -96q-21 -13 -29 -13t-8 6l7 19q18 31 48.5 62.5t50.5 51.5t20 30t-9 18t-20 8q-30 -1 -100 -75t-105 -148q-15 -32 -15 -54q0 -37 40 -37 q15 0 38.5 14t42 30t37.5 34t21 19q15 16 21 16t6 -2t-1 -3.5t-3 -6.5q-22 -48 -22 -61q0 -53 34 -53l39 5q45 15 138 85t163 132l70 63q9 8 9 15q0 11 -9 20q-80 -59 -162 -112.5t-124 -77.5zM445 484q0 -38 29 -101q-1 -12 -31 -12q-18 0 -46.5 38.5t-28.5 47.5 q-41 -33 -107.5 -58.5t-99.5 -25.5q-11 0 -17.5 5t-6.5 10q0 19 13 19q46 10 96.5 44.5t83.5 64t40.5 29.5t15.5 -3q19 -8 19 -11q6 2 18 2q29 -3 29 -18z" />
<glyph unicode="&#xfc;" horiz-adv-x="404" d="M264 89q149 80 328 213q9 -7 9 -17t-10 -19t-28.5 -26t-70.5 -61t-97 -80q-118 -95 -174 -112q-18 -5 -39 -5q-34 0 -34 53q0 11 9.5 33t11 25.5t2.5 5.5t2 3.5t1 3.5t-6 2q-5 0 -33 -26.5t-46.5 -42.5t-42 -30t-38.5 -14q-40 0 -40 37q0 22 15 54q35 74 105 148t100 75 q11 0 20 -8t9 -18t-20 -30t-50.5 -51.5t-43 -52.5t-12.5 -28t8 -7t29 13q57 39 130.5 96t94.5 83q5 18 30 18q48 0 48 -17q0 -7 -47 -52q-141 -135 -141 -167q0 -5 4.5 -5t16.5 6zM321 495q10 0 13 -4q14 -17 14 -27.5t-6 -18t-14.5 -17t-34 -26t-49.5 -16.5q-18 3 -18 22 q0 30 36 58.5t59 28.5zM488 495q10 0 13 -4q14 -17 14 -27.5t-6 -18t-14.5 -17t-34 -26t-49.5 -16.5q-18 3 -18 22q0 30 36 58.5t59 28.5z" />
<glyph unicode="&#xfd;" horiz-adv-x="329" d="M379 323q47 -5 47 -21q0 -7 -8 -16q-141 -157 -324 -400q-53 -72 -108 -136t-103 -93.5t-100 -29.5q-26 0 -46 14t-20 38q0 56 54 116t121 97.5t116 43.5l21 -3q10 1 73.5 77t64 80.5t-1.5 4.5l-19 -15q-75 -70 -117 -70q-27 0 -27 38q0 51 83 161t122 110q3 0 7 -2 q28 -7 28 -20q0 -5 -2.5 -7.5t-20 -19.5t-34.5 -35.5t-36 -40.5q-43 -50 -43 -75q0 -6 6.5 -6t24.5 11q142 97 222 185q7 14 20 14zM-231 -329q35 11 94 68.5t101 108.5l42 52q6 8 6 10t-3 2q-32 0 -91.5 -49t-106 -107t-46.5 -82q0 -3 4 -3zM319 409q0 9 17 26 q44 26 77 59.5t44 53.5l11 20q10 14 26 14t26.5 -18t10.5 -37l-2 -23q-21 -39 -69 -66q-76 -44 -126 -44q-15 0 -15 15z" />
<glyph unicode="&#xfe;" horiz-adv-x="410" d="M108 30q33 0 100.5 38.5t121 83.5t53.5 63q0 3 -3 3q-22 0 -92.5 -44.5t-130.5 -90t-60 -49.5t11 -4zM596 702q11 0 24 -16.5t13 -24.5t-3 -11q-69 -60 -192.5 -188.5t-212.5 -227.5l-89 -98q-8 -8 -8 -11t2 -3t5 3l9 7q164 146 255 146q12 0 22 -7q34 -28 34 -63.5 t-50.5 -90.5t-124.5 -96.5t-123.5 -41.5t-65.5 26l-11 16q-1 1 -3 1q-22 0 -145.5 -140t-158.5 -203q-4 -18 -16 -18q-6 0 -11 4l-45 35q-4 2 -4 9q0 12 210 259t434.5 490.5t254.5 243.5z" />
<glyph unicode="&#xff;" horiz-adv-x="329" d="M379 323q47 -5 47 -21q0 -7 -8 -16q-141 -157 -324 -400q-53 -72 -108 -136t-103 -93.5t-100 -29.5q-26 0 -46 14t-20 38q0 56 54 116t121 97.5t116 43.5l21 -3q10 1 73.5 77t64 80.5t-1.5 4.5l-19 -15q-75 -70 -117 -70q-27 0 -27 38q0 51 83 161t122 110q3 0 7 -2 q28 -7 28 -20q0 -5 -2.5 -7.5t-20 -19.5t-34.5 -35.5t-36 -40.5q-43 -50 -43 -75q0 -6 6.5 -6t24.5 11q142 97 222 185q7 14 20 14zM-231 -329q35 11 94 68.5t101 108.5l42 52q6 8 6 10t-3 2q-32 0 -91.5 -49t-106 -107t-46.5 -82q0 -3 4 -3zM302 495q10 0 13 -4 q14 -17 14 -27.5t-6 -18t-14.5 -17t-34 -26t-49.5 -16.5q-18 3 -18 22q0 30 36 58.5t59 28.5zM469 495q10 0 13 -4q14 -17 14 -27.5t-6 -18t-14.5 -17t-34 -26t-49.5 -16.5q-18 3 -18 22q0 30 36 58.5t59 28.5z" />
<glyph unicode="&#x131;" d="M111 101q-8 -14 -8 -25t12 -11q7 0 24 6q187 98 366 231q9 -7 9 -17t-10 -19t-28.5 -26t-70.5 -61t-97 -80q-118 -95 -174 -112q-18 -5 -39 -5q-77 0 -77 82q0 32 35 91.5t72 105t49 50.5q18 11 39 11t40 -8q6 -3 6 -8t-9.5 -15t-29 -31t-58 -72.5t-51.5 -86.5z" />
<glyph unicode="&#x141;" horiz-adv-x="458" d="M218 214q-96 -16 -109 -16t-22.5 5.5t-10.5 12.5q0 7 33 17l155 37q165 210 223 265q85 82 122 99q82 38 143 38q21 0 47.5 -17t26.5 -53q0 -35 -67 -108q-33 -36 -95.5 -73.5t-139.5 -60.5q-29 -5 -42.5 -5t-13.5 3t7 7q84 46 188.5 139t104.5 122q0 4 -5.5 4t-12 -2 t-14.5 -4t-34 -16.5t-54.5 -36t-71 -66t-80 -95t-75.5 -104.5q30 6 47 6l16 -5q45 -15 47 -23q0 -7 -40 -16t-115 -24q-77 -101 -92 -117.5t-27 -29.5q25 -3 75 -7t67.5 -6.5t51.5 -10.5t53 -20q53 -33 101 -87q11 -12 11 -16t-3 -4q-5 0 -13 4q-15 4 -43.5 11t-122.5 18 t-172.5 11t-114.5 -1q-53 -50 -149 -93t-144.5 -43t-91.5 25.5t-43 68.5q0 31 47 68q108 85 354 85zM-226 -82q0 -10 24 -13q31 0 53 3.5t64.5 22.5t89.5 56q-64 0 -147.5 -23t-83.5 -46z" />
<glyph unicode="&#x142;" horiz-adv-x="329" d="M126 452q3 5 17 5t120 -19q123 111 270 169q15 5 29 5t26.5 -19.5t12.5 -28t-6 -9.5q-142 -48 -255 -132q14 -3 51 -13q23 -10 23 -29q0 -5 -38 -5l-81 10q-64 -57 -107 -124q-71 -109 -71 -165q0 -31 17 -31q33 0 130.5 59t177.5 118l81 59q9 -7 9 -17t-10 -19 t-28.5 -26t-70.5 -61t-97 -80q-118 -95 -174 -112q-18 -5 -37 -5t-30 3t-24 13q-26 22 -26 98q0 36 50 125.5t135 175.5l-15 3q-12 2 -18.5 2t-31.5 19t-29 31z" />
<glyph unicode="&#x152;" horiz-adv-x="433" d="M498 635q72 46 122 46q46 0 58 -35q4 -12 4 -25t-13 -47q4 0 42.5 9t86.5 19q130 27 270 27q141 0 202 -21q24 -9 40.5 -24.5t16.5 -37.5q0 -13 -18 -13q-250 -7 -409 -32q-16 -2 -16 -11q0 -3 0.5 -5.5t-7.5 -11.5l-113 -121q-7 -7 -7 -10.5t2.5 -3.5t12.5 2q65 4 120 4 t63 -6q44 -33 51.5 -43t7.5 -16q0 -13 -22 -16q-264 -26 -285 -25.5t-27 0.5q-16 0 -36 -25l-122 -162q-5 -8 -5 -11.5t4 -3.5t12 4q94 15 175.5 15t121.5 -5q55 0 118 -81q5 -7 5 -13t-15 -6q-249 0 -379 -10q-5 -1 -13 -1q-43 0 -59 20q-3 6 -10 6t-12.5 -7t-8.5 -7t-12 6 t-18.5 20.5t-9.5 31t6.5 30.5t17 36t47 75.5t76.5 91.5q5 5 5 9.5t-10.5 4.5t-21 7.5t-10.5 21t35 22.5l54 14h1q16 0 32 21q116 113 142 126q9 6 9 9.5t-6 3.5t-10 -1q-92 -15 -169 -15q-101 -170 -264 -336q-78 -79 -160 -130t-137 -51t-95 40t-40 97.5t32 129t88.5 144.5 t124.5 136.5t148.5 103.5t153.5 40q20 0 33 -4zM19 24q51 0 199 130t273.5 271.5t125.5 176.5q0 3 -4 3q-34 0 -95.5 -40t-117.5 -90t-96.5 -89t-46.5 -48t-10 -9q-2 0 -2 5l2 15q11 36 67 117l19 28q7 13 7 15.5t-2 2.5q-8 0 -27 -17q-75 -68 -133 -137.5t-88.5 -120 t-49.5 -96.5q-30 -70 -30 -93.5t9 -23.5z" />
<glyph unicode="&#x153;" horiz-adv-x="334" d="M270 -18q-69 0 -77 76q-83 -78 -143 -78q-54 8 -68 38q-8 15 -8 38q0 66 76 157.5t191 134.5q10 0 15 -4.5t9 -5t10.5 4t17.5 5t23 -12.5q16 -13 16 -32q0 -6 -2 -18q92 68 160 68q24 0 44.5 -19t20.5 -37q0 -33 -47 -74.5t-98.5 -67t-68.5 -25.5t-24 15q-4 3 -11 3 t-23 -26.5t-16 -43t12 -20.5q76 0 165 44.5t246 156.5q11 8 33.5 24t26.5 19q9 -7 9 -17t-9 -18q-50 -50 -129.5 -112t-182.5 -117.5t-168 -55.5zM57 44q32 0 79 42t49 58q-12 10 -25.5 36.5t-14.5 26.5q-31 -29 -55 -67q-38 -64 -38 -88q0 -8 5 -8zM483 302 q-26 0 -88 -53.5t-62 -65.5q0 -2 3 -2q22 0 87.5 49t65.5 67q0 5 -6 5zM273 289q-10 0 -41.5 -31t-31.5 -43q0 -3 6 -12t9 -9q17 0 38.5 41t21.5 47.5t-2 6.5z" />
<glyph unicode="&#x160;" horiz-adv-x="536" d="M311 243l102 4q52 0 52 -22q0 -34 -71 -71t-163.5 -62t-173.5 -41t-101 -16t-20 2.5t7 5.5t20.5 8t24.5 11q12 9 12 13q0 2 -5 2l-13 -2q-30 -14 -120 -25l-31 -3q-22 -1 -22 -14q0 -40 59 -68t112 -28q113 1 241.5 36t223.5 98t95 133q0 98 -187 100q-208 0 -208 33 q0 9 9.5 21.5t19.5 20.5l10 8q208 150 498 150q44 0 44 -13q0 -25 -58 -45t-115.5 -35t-57.5 -26q0 -14 69.5 -14t115.5 10t72 26q54 32 54 63.5t-22 58t-50.5 39.5t-65.5 21q-50 11 -89 11q-110 -4 -204 -30t-151.5 -60.5t-99 -73t-58.5 -66.5t-17 -47t10.5 -38.5t26 -31.5 t41 -21t45.5 -13t51 -6q46 -3 88 -3zM507 735q0 38 -29 101q1 12 31 12q18 0 46.5 -38t28.5 -48q41 33 107.5 58.5t99.5 25.5q11 0 17.5 -5t6.5 -10q0 -19 -13 -19q-46 -10 -96.5 -44.5t-83.5 -64t-40.5 -29.5t-15.5 4q-19 7 -19 10q-6 -2 -18 -2q-29 3 -29 18z" />
<glyph unicode="&#x161;" horiz-adv-x="382" d="M141 73q-26 0 -42.5 12.5t-20.5 24.5l-3 13q-12 0 -19 -7q-8 -8 -8 -17q0 -113 94 -113q38 0 107 41t129.5 90.5t110 91.5t51.5 42q9 8 9 15q0 11 -9 20l-24 -18q-116 -86 -191 -124q-6 -3 -8 -3t-2 2t11.5 27.5t22.5 74.5t11 109q0 10 -28 17.5t-37 7.5q-14 0 -30 -20 q-128 -115 -202 -166q-12 -7 -14.5 -10t-2.5 -12q0 -13 18 -13t32 8q84 64 131 101q14 11 24.5 11t10.5 -7q0 -26 -12 -69.5t-41.5 -86t-67.5 -42.5zM280 484q0 38 -29 101q1 12 31 12q18 0 46.5 -38.5t28.5 -47.5q41 33 107.5 58.5t99.5 25.5q11 0 17.5 -5t6.5 -10 q0 -19 -13 -19q-46 -10 -96.5 -44.5t-83.5 -64t-40.5 -29.5t-16.5 3q-18 8 -18 11q-6 -2 -18 -2q-29 3 -29 18z" />
<glyph unicode="&#x178;" horiz-adv-x="551" d="M882 637q7 -6 7 -14.5t-6 -14.5l-115 -124q-166 -195 -374 -488q-53 -89 -182 -218q-68 -69 -151.5 -117t-154.5 -48q-15 0 -34 18t-19 51q0 44 58.5 102.5t137.5 99.5t134 41h4q189 219 233 268l159 175q1 1 2.5 3t4.5 7q18 22 -10 -4l-145 -142q-264 -259 -385 -259 q-29 0 -55.5 23t-26.5 65q0 80 147 227l267 238q48 45 48 59q0 4 -6 4t-29 -4t-71.5 -19.5t-102 -39.5t-123 -70t-132.5 -104q-10 -14 -22 -14h-3q-4 1 -4 5q0 10 15 25q89 128 213 209t223 81q42 0 77 -22.5t35 -75.5q0 -37 -45 -94.5t-110 -116.5t-129 -115 q-155 -136 -155 -176q0 -2 9.5 -2t40 15t71.5 43t81.5 57.5t90 68.5t82.5 66q95 75 124 100l212 181l59 58q10 11 18.5 11t13.5 -3zM161 -101q8 8 8 9.5t-2 1.5l-17 -6q-97 -52 -176 -138t-79 -115q0 -3 3 -3l6 2q51 30 115.5 92t102.5 110zM577 812q10 0 13 -4 q14 -17 14 -27.5t-6 -18t-14.5 -17t-34 -26t-49.5 -16.5q-18 3 -18 22q0 30 36 58.5t59 28.5zM744 812q10 0 13 -4q14 -17 14 -27.5t-6 -18t-14.5 -17t-34 -26t-49.5 -16.5q-18 3 -18 22q0 30 36 58.5t59 28.5z" />
<glyph unicode="&#x17d;" horiz-adv-x="500" d="M583 544l62 10q4 0 4 -2l-9 -7q-156 -59 -334.5 -158t-308 -203.5t-129.5 -163.5q0 -11 6 -18t17 -11q12 -22 34 -22l16 3q106 34 337 34q70 0 148.5 -7.5t82.5 -18.5l8 -2q5 0 5 6q0 62 -72 106.5t-164 44.5q-50 0 -105.5 -9.5t-86.5 -18.5l-31 -9q-10 -2 -12 -2t-2 2 q0 6 23 25q95 84 199.5 159t186.5 122q174 100 254 133l37 15q16 5 16 15t-11 17l-67 42q-24 18 -121.5 18t-195 -13t-142.5 -26l-44 -13l-3 -1l-3 3q3 6 3 8.5t-10.5 2.5t-40 -12t-50.5 -24l-21 -12q-18 -12 -18 -24q0 -6 8 -20t18 -23q26 -22 92.5 -22t145.5 20 q126 33 278 56zM428 735q0 38 -29 101q1 12 31 12q18 0 46.5 -38t28.5 -48q41 33 107.5 58.5t99.5 25.5q11 0 17.5 -5t6.5 -10q0 -19 -13 -19q-46 -10 -96.5 -44.5t-83.5 -64t-40.5 -29.5t-16.5 4q-18 7 -18 10q-6 -2 -18 -2q-29 3 -29 18z" />
<glyph unicode="&#x17e;" horiz-adv-x="367" d="M297 260l-4 -1q-92 -18 -101.5 -18t-18.5 9q-28 40 -28 54.5t16 18.5q87 19 143.5 19t68.5 -13q37 -37 37 -45t-10 -14q-78 -41 -160.5 -95.5t-112.5 -87.5q0 -1 5.5 -1t44 11.5t70.5 11.5t43 -11q51 -59 51 -80q0 -8 -8 -8q-5 0 -17.5 9t-30.5 9t-30 -4 q-116 -34 -186 -34q-11 0 -31 20.5t-20 40.5q0 32 44 66.5t126 78.5q97 52 109 64zM258 440q0 38 -29 101q1 12 31 12q18 0 46.5 -38.5t28.5 -47.5q41 33 107.5 58.5t99.5 25.5q11 0 17.5 -5t6.5 -10q0 -19 -13 -19q-46 -10 -96.5 -44.5t-83.5 -64t-40.5 -29.5t-16.5 3 q-18 8 -18 11q-6 -2 -18 -2q-29 3 -29 18z" />
<glyph unicode="&#x2c6;" horiz-adv-x="500" d="M456 484q0 -38 29 -101q-1 -12 -31 -12q-18 0 -46.5 38.5t-28.5 47.5q-41 -33 -107.5 -58.5t-99.5 -25.5q-11 0 -17.5 5t-6.5 10q0 19 13 19q46 10 96.5 44.5t83.5 64t40.5 29.5t16.5 -3q18 -8 18 -11q6 2 18 2q29 -3 29 -18z" />
<glyph unicode="&#x2c7;" horiz-adv-x="500" d="M428 735q0 38 -29 101q1 12 31 12q18 0 46.5 -38t28.5 -48q41 33 107.5 58.5t99.5 25.5q11 0 17.5 -5t6.5 -10q0 -19 -13 -19q-46 -10 -96.5 -44.5t-83.5 -64t-40.5 -29.5t-16.5 4q-18 7 -18 10q-6 -2 -18 -2q-29 3 -29 18z" />
<glyph unicode="&#x2d8;" horiz-adv-x="390" d="M569 558q21 0 21 -15q0 -9 -10 -19q-52 -47 -108.5 -81t-96.5 -34q-78 0 -78 158q1 12 31 12q33 -99 93 -99q41 0 107 49q36 26 41 29z" />
<glyph unicode="&#x2d9;" d="M351 495q10 0 13 -4q14 -17 14 -27.5t-6 -18t-14.5 -17t-34 -26t-49.5 -16.5q-18 3 -18 22q0 30 36 58.5t59 28.5z" />
<glyph unicode="&#x2da;" d="M357 522q33 0 48 -28q6 -11 6 -26q0 -41 -24.5 -68.5t-84.5 -27.5q-20 0 -34 13.5t-14 32.5t3.5 33t12.5 31q22 40 87 40zM360.5 419q12.5 9 12.5 37.5t-26 28.5q-36 0 -44.5 -10.5t-8.5 -43.5q0 -17 15 -21q39 0 51.5 9z" />
<glyph unicode="&#x2db;" horiz-adv-x="364" d="M212 -95q-42 -35 -100 -35q-72 0 -72 43q0 20 18 42.5t48 38.5l19 -5q-21 -22 -21 -40q0 -30 51 -30q27 0 41.5 8.5t21.5 8.5t7 -10t-13 -21z" />
<glyph unicode="&#x2dc;" horiz-adv-x="500" d="M226 417q8 7 22 17.5t50 28.5t56 18t67 -21t88 -21q17 0 43 24l8 8q15 0 15 -10q0 -11 -14 -26.5t-28 -25.5q-34 -24 -85 -24q-18 0 -63.5 19t-74.5 19q-15 0 -45.5 -10.5t-38.5 -10.5t-8 2q0 6 8 13z" />
<glyph unicode="&#x2dd;" horiz-adv-x="395" d="M326.5 567q14.5 10 46.5 10t32 -25q0 -21 -64.5 -78.5t-79.5 -57.5q-8 0 -15 5.5t-7 12.5q0 19 36.5 71t51 62zM471.5 567q14.5 10 46.5 10t32 -25q0 -21 -64.5 -78.5t-79.5 -57.5q-8 0 -15 5.5t-7 12.5q0 19 36.5 71t51 62z" />
<glyph unicode="&#x2013;" horiz-adv-x="564" d="M-4 250q0 16 102 34q21 3 34 6q36 6 49 6t13 -2.5t-14 -10.5q0 2 56 5t104.5 3t134.5 -15.5t86 -25.5q0 -5 -21 -5h-16q-157 -3 -290.5 -16t-163.5 -13q-74 0 -74 34z" />
<glyph unicode="&#x2014;" horiz-adv-x="867" d="M161 298q15 2 24 2t9 -2.5t-14 -10.5q0 -1 3.5 -1t9.5 2q192 24 371 24t249 -35q38 -22 38 -23q0 -5 -21 -5h-16q-193 0 -325 -7t-145 -7q-170 -15 -285 -15q-20 0 -41.5 7.5t-21.5 26.5q0 16 102 34q21 3 34.5 5.5t28.5 4.5z" />
<glyph unicode="&#x2018;" horiz-adv-x="152" d="M188 524q-10 0 -13 4q-14 17 -14 27q0 19 38 63q53 61 69 61q3 0 3 -3t-4 -8q-15 -21 -20 -30l-6 -10q15 5 24 5q18 -3 18 -22q0 -30 -36 -58.5t-59 -28.5z" />
<glyph unicode="&#x2019;" horiz-adv-x="220" d="M395 678q10 0 13 -4q14 -17 14 -27q0 -19 -38 -63q-53 -61 -69 -61q-3 0 -3 3t4 8q15 21 20 30l6 10q-15 -5 -24 -5q-18 3 -18 22q0 30 36 58.5t59 28.5z" />
<glyph unicode="&#x201a;" horiz-adv-x="126" d="M95 85q10 0 13 -4q14 -17 14 -27q0 -19 -38 -63q-53 -61 -69 -61q-3 0 -3 3t4 9q15 20 20 29l6 10q-15 -5 -24 -5q-18 3 -18 22q0 30 36 58.5t59 28.5z" />
<glyph unicode="&#x201c;" horiz-adv-x="287" d="M323 524q-10 0 -13 4q-14 17 -14 27q0 19 38 63q53 61 69 61q3 0 3 -3t-4 -8q-15 -21 -20 -30l-6 -10q15 5 24 5q18 -3 18 -22q0 -30 -36 -58.5t-59 -28.5zM188 524q-10 0 -13 4q-14 17 -14 27q0 19 38 63q53 61 69 61q3 0 3 -3t-4 -8q-15 -21 -20 -30l-6 -10q15 5 24 5 q18 -3 18 -22q0 -30 -36 -58.5t-59 -28.5z" />
<glyph unicode="&#x201d;" horiz-adv-x="355" d="M395 678q10 0 13 -4q14 -17 14 -27q0 -19 -38 -63q-53 -61 -69 -61q-3 0 -3 3t4 8q15 21 20 30l6 10q-15 -5 -24 -5q-18 3 -18 22q0 30 36 58.5t59 28.5zM530 678q10 0 13 -4q14 -17 14 -27q0 -19 -38 -63q-53 -61 -69 -61q-3 0 -3 3t4 8q15 21 20 30l6 10q-15 -5 -24 -5 q-18 3 -18 22q0 30 36 58.5t59 28.5z" />
<glyph unicode="&#x201e;" horiz-adv-x="261" d="M95 85q10 0 13 -4q14 -17 14 -27q0 -19 -38 -63q-53 -61 -69 -61q-3 0 -3 3t4 9q15 20 20 29l6 10q-15 -5 -24 -5q-18 3 -18 22q0 30 36 58.5t59 28.5zM230 85q10 0 13 -4q14 -17 14 -27q0 -19 -38 -63q-53 -61 -69 -61q-3 0 -3 3t4 9q15 20 20 29l6 10q-15 -5 -24 -5 q-18 3 -18 22q0 30 36 58.5t59 28.5z" />
<glyph unicode="&#x2020;" horiz-adv-x="516" d="M573 694q2 1 3 1q10 0 43 -31q4 -2 4 -9q-1 -13 -145 -174l68 -11q2 -1 8 -1h1q0 1 -5 5t-5 7t6.5 3t23 -4t32.5 -9t34 -11q41 -14 41 -29t-10 -25q-13 -13 -41 -13q-63 0 -157 12l-32 4q-16 0 -29 1q-141 -151 -264.5 -271.5t-162.5 -137.5q-8 -6 -17 -6t-17.5 6.5 t-8.5 11t3 7.5q84 83 369 398q-104 6 -197 6h-12q-14 0 -14 6q0 3 12.5 14t13.5 12q46 39 174 41q31 0 91 -4q99 108 132 147q33 54 58 54z" />
<glyph unicode="&#x2021;" horiz-adv-x="512" d="M573 694q2 1 3 1q10 0 43 -31q4 -2 4 -9q-1 -13 -145 -174l68 -11q2 -1 8 -1h1q0 1 -5 5t-5 7t6.5 3t23 -4t32.5 -9t34 -11q41 -14 41 -29t-10 -25q-13 -13 -41 -13q-63 0 -157 12l-32 4q-16 0 -29 1q-87 -93 -137 -144l89 -14q2 -1 8 -1h1q0 1 -5 5t-5 7t6.5 3t23 -4 t32.5 -9t34 -11q41 -14 41 -29t-9 -25q-14 -13 -42 -13q-63 0 -158 12l-31 4q-3 0 -55 4q-200 -200 -236 -200q-10 0 -18.5 6.5t-8.5 11t3 7.5q33 32 171 181q-83 5 -180 5h-12q-14 0 -14 6q0 3 12.5 14t13.5 12q46 39 174 41q37 0 75 -3q51 54 129 142q-104 6 -197 6h-12 q-14 0 -14 6q0 3 12.5 14t13.5 12q46 39 174 41q31 0 91 -4q99 108 132 147q33 54 58 54z" />
<glyph unicode="&#x2022;" horiz-adv-x="303" d="M216 444q19 0 24 -7q26 -31 26 -50.5t-13 -33.5q-51 -68 -121 -97q-29 -11 -56 -11q-4 1 -9.5 2.5t-14.5 11.5t-9 26q0 55 65.5 107t107.5 52z" />
<glyph unicode="&#x2026;" horiz-adv-x="436" d="M4 -16q-4 9 -4 14v3q2 36 50 66q26 16 43 18h5q2 -1 4 -1t4 -1l2 -2l10 -14q0 -1 0.5 -1t0.5 -1l2 -4v-1q1 -2 1 -6v-4l-2 -8q-1 0 -1 -2l-4 -5q0 -1 -4 -5q-1 -3 -4 -4q-3 -4 -19 -20q-33 -30 -70 -30q-7 0 -7 3q-2 0 -7 5zM405 85q10 0 13 -4q14 -17 14 -27.5t-6 -18 t-14.5 -17t-34 -26t-49.5 -16.5q-18 3 -18 22q0 30 36 58.5t59 28.5zM250 85q10 0 13 -4q14 -17 14 -27.5t-6 -18t-14.5 -17t-34 -26t-49.5 -16.5q-18 3 -18 22q0 30 36 58.5t59 28.5z" />
<glyph unicode="&#x2030;" horiz-adv-x="916" d="M528 343.5q5 -4.5 9 -5t10.5 4t17.5 5t23 -12.5q16 -13 16 -39.5t-28 -84.5t-60 -100q-113 -131 -194 -131q-54 8 -68 38q-8 15 -8 38q0 66 76 157.5t191 134.5q10 0 15 -4.5zM329 44q30 0 72.5 39t55.5 61q22 20 56 68.5t34 74.5q0 2 -2 2q-13 0 -59 -26.5t-69 -55.5 q-31 -29 -55 -67q-38 -64 -38 -88q0 -8 5 -8zM573 694q2 1 3 1q10 0 43 -31q4 -2 4 -9q-1 -15 -139 -168t-296 -310t-202 -176q-8 -6 -17 -6t-17.5 6.5t-8.5 11t3 7.5q65 64 307 329.5t262 290.5q33 54 58 54zM271 682.5q5 -4.5 9 -5t10.5 4t17.5 5t23 -12.5 q16 -13 16 -39.5t-28 -84.5t-60 -100q-113 -131 -194 -131q-54 8 -69 37q-7 16 -7 39q0 66 76 157.5t191 134.5q10 0 15 -4.5zM72 383q30 0 72.5 39t55.5 61q22 20 56 68.5t34 74.5q0 2 -2 2q-13 0 -59 -26.5t-69 -55.5q-31 -29 -54 -68q-39 -63 -39 -87q0 -8 5 -8z M863 343.5q5 -4.5 9 -5t10.5 4t17.5 5t23 -12.5q16 -13 16 -39.5t-28 -84.5t-60 -100q-113 -131 -194 -131q-54 8 -69 38q-7 15 -7 38q0 66 76 157.5t191 134.5q10 0 15 -4.5zM664 44q30 0 72.5 39t55.5 61q22 20 56 68.5t34 74.5q0 2 -2 2q-13 0 -59 -26.5t-69 -55.5 q-31 -29 -54 -67q-39 -64 -39 -88q0 -8 5 -8z" />
<glyph unicode="&#x2039;" horiz-adv-x="240" d="M121 12l-17 16q-71 136 -71 181q1 22 46.5 56t88.5 57.5t48.5 23.5t5.5 -7t-4 -23.5t-52.5 -70t-56.5 -55.5q3 -10 13 -40q20 -58 20 -113q0 -10 -7.5 -17t-13.5 -8z" />
<glyph unicode="&#x203a;" horiz-adv-x="240" d="M133 346l17 -16q71 -136 71 -181q-1 -22 -46.5 -56t-88.5 -57.5t-48.5 -23.5t-5.5 7t4 23.5t52.5 70t56.5 55.5q-3 10 -13 40q-20 58 -20 113q0 10 7.5 17t13.5 8z" />
<glyph unicode="&#x2044;" horiz-adv-x="364" d="M573 694q2 1 3 1q10 0 43 -31q4 -2 4 -9q-1 -15 -139 -168t-296 -310t-202 -176q-8 -6 -17 -6t-17.5 6.5t-8.5 11t3 7.5q65 64 307 329.5t262 290.5q33 54 58 54z" />
<glyph unicode="&#x2074;" horiz-adv-x="404" d="M391 540q4 0 9.5 -5.5t5.5 -8t-4.5 -7.5t-37 -44t-52.5 -62q125 -16 125 -59q0 -3 -2 -3t-4 1q-2 5 -52.5 9t-77.5 4t-36 -1q-7 -8 -22 -23.5t-24 -26t-19 -23.5q-22 -27 -24 -45q-1 -4 -5 -4t-14 11t-12 23v8q0 14 54 78q-27 0 -44 -3t-28.5 -3t-17.5 11q-12 3 -12 15 q0 36 51 94.5t132.5 112t157.5 69.5q6 -4 6 -8.5t-8 -7.5q-50 -24 -155 -108.5t-112 -126.5q11 0 82 6l8 8q78 78 126 116q2 3 6 3z" />
<glyph unicode="&#x20ac;" horiz-adv-x="629" d="M494 305q-41 -9 -171 -17l-20 -1q-2 -4 -37 -54l151 5q30 -1 37 -8q0 -17 -25 -25q-51 -10 -190 -18q-42 -76 -42 -117q0 -22 21 -22q18 0 72 16t156.5 64t197.5 115q7 6 9.5 6t2.5 -4t-17.5 -34t-53 -73t-80.5 -83.5t-108.5 -69.5t-117 -29t-84 19t-44.5 47 q-29 56 -31 101l-1 19q0 17 3 35l-104 -4q-4 -1 -11 -1t-11 6q0 9 40 34l14 9q15 5 83 7q8 27 19 48l-69 -3q-4 -1 -11 -1t-11 6q0 9 41 34l13 9q10 3 65 6q89 143 264.5 246t333.5 103q59 0 109.5 -24.5t50.5 -74t-56.5 -107t-135 -98t-137.5 -40.5q-27 0 -56 15t-29 42 q0 15 24 26q85 34 128 66q9 10 13.5 10t4.5 -8q0 -14 -34 -33q-24 -18 -24 -20t1 -2q20 0 122 77t102 99q0 14 -27 14q-134 0 -262.5 -81.5t-231.5 -203.5l142 5q30 -1 37 -8q0 -17 -25 -25z" />
<glyph unicode="&#x2122;" horiz-adv-x="592" d="M498 286q0 -2 1 -4q0 -2 -5 -2q-23 0 -26 25q0 24 19 50t86 100q-57 -48 -83.5 -76t-41 -43t-22.5 -24l-7 -8q-11 0 -11 22q12 41 52 101l12 15q2 3 2 4h-1l-95 -103q-8 -13 -30.5 -30t-35 -19t-12.5 -1l12 13q31 33 35 35.5t43 39.5q101 98 122 98q9 0 9 -2t-20 -30.5 t-42 -71.5q19 14 49 41q66 56 77 56l4 -1q1 0 3 2.5t11 2.5t9 -5t-58 -74.5t-58 -86.5zM272 465l6 -4q2 0 19 3q51 11 103.5 11t52.5 -24q0 -1 -11 -1q-37 -2 -55 -4q-4 -1 -65.5 -74.5t-64 -73.5t-10 5t-7.5 13q0 26 101 116l8 8q0 1 -2 1q-63 -9 -86 -9q-4 0 -13 6.5 t-9 11.5t33 15z" />
<glyph unicode="&#x2212;" horiz-adv-x="430" d="M460 209l-379 5q-8 -3 -14.5 -3t-8.5 2.5t-2 12.5l10 57q2 2 19 2l113 -2q175 0 217 3q7 3 14 3q28 0 44 -31q8 -10 8 -20q0 -24 -21 -29z" />
<glyph unicode="&#x2264;" horiz-adv-x="501" d="M-56 -8q-14 0 -14 15l-3 57v1q0 4 4 7q6 6 177.5 6t252.5 -1q6 3 13 3q27 0 53 -31q16 -16 16 -29q0 -19 -15 -22q-234 6 -326.5 6t-143.5 -9q-7 -3 -14 -3zM337 108q-22 0 -80 51t-105 103l-48 51q-17 21 -17 38q0 21 30 22q36 23 148.5 94t173.5 110q34 -7 34 -30.5 t-51 -54.5l-244 -150l163 -146q23 -43 23 -62q0 -26 -27 -26z" />
<glyph unicode="&#x2265;" horiz-adv-x="443" d="M-69 -8q-14 0 -14 15l-3 57v1q0 4 4 7q6 6 177.5 6t252.5 -1q6 3 13 3q27 0 53 -31q16 -16 16 -29q0 -19 -15 -22q-234 6 -326.5 6t-143.5 -9q-7 -3 -14 -3zM204 580q22 0 80 -51t106 -103l47 -51q17 -21 17 -38q0 -21 -30 -22q-36 -23 -148.5 -94t-173.5 -110 q-34 7 -34 30.5t51 54.5l244 150l-163 146q-23 43 -23 62q0 26 27 26z" />
<glyph unicode="&#x25fc;" horiz-adv-x="340" d="M0 340h340v-340h-340v340z" />
<glyph unicode="&#xf8ff;" horiz-adv-x="632" d="M434 738l-90 -85q-9 1 -28 1t-28 -1l-90 85h59l58 -61l59 61h60zM632 304q0 -130 -93 -223t-223.5 -93t-223 92.5t-92.5 223.5t92.5 223.5t223 92.5t223.5 -93t93 -223zM586 304q0 112 -79 191.5t-191 79.5t-191.5 -79.5t-79.5 -191.5t79.5 -191.5t191.5 -79.5t191 79.5 t79 191.5zM458 204q0 -53 -44.5 -80.5t-102 -27.5t-137.5 39l9 47q66 -41 128 -41q40 0 65 16.5t25 41t-22.5 44t-54.5 35t-64 32.5t-54.5 42.5t-22.5 56.5q0 54 39.5 78.5t91.5 24.5q37 0 60 -11q46 -22 61 -32l-11 -43q-48 42 -107 42q-36 0 -58 -15.5t-22 -39t23 -41.5 t55.5 -31.5t64.5 -29t55 -43t23 -64.5z" />
<glyph unicode="&#xfb01;" horiz-adv-x="254" d="M386 101q-8 -14 -8 -25t12 -11q8 0 24 6q187 98 366 231q9 -7 9 -17t-10 -19t-28.5 -26t-70.5 -61t-97 -80q-118 -95 -174 -112q-18 -5 -39 -5q-77 0 -77 82q0 43 58 128q-198 -176 -307 -201q0 -2 5 -10q14 -22 14 -68t-47.5 -119.5t-110 -127t-102.5 -53.5 q-50 0 -63 90q0 124 181 328l545 617q6 20 30 20q37 0 49 -9t12 -21.5t-21 -36.5l-488 -533q1 -1 6.5 -1t11.5 3q203 108 382 240q12 12 36.5 12t43.5 -8q6 -3 6 -8t-9.5 -15t-29 -31t-58 -72.5t-51.5 -86.5zM-191 -299q26 0 78 51t94 115t42 97.5t-21 33.5q-9 0 -21 -10 q-48 -46 -92 -114t-65 -113t-21 -52.5t6 -7.5zM629 495q10 0 13 -4q14 -17 14 -27.5t-6 -18t-14.5 -17t-34 -26t-49.5 -16.5q-18 3 -18 22q0 30 36 58.5t59 28.5z" />
<glyph unicode="&#xfb02;" horiz-adv-x="564" d="M369 66q33 0 130.5 59t178.5 118l80 59q9 -7 9 -17t-10 -19t-28.5 -26t-70.5 -61t-97 -80q-118 -95 -174 -112q-18 -5 -37 -5t-30 3t-24 13q-26 22 -26 98q0 13 7 33q-149 -119 -233 -138q0 -2 5 -10q14 -22 14 -68t-47.5 -119.5t-110 -127t-102.5 -53.5q-50 0 -63 90 q0 124 181 328l545 617q6 20 30 20q37 0 49 -9t12 -21.5t-21 -36.5l-488 -533q1 -1 6.5 -1t11.5 3q118 63 257 156q65 110 177.5 214.5t267.5 166.5q15 5 27 5t22 -10.5t15 -21.5l4 -10q0 -23 -70 -101q-74 -81 -169.5 -154.5t-177.5 -125.5q-67 -44 -67 -92q0 -31 17 -31z M-191 -299q26 0 78 51t94 115t42 97.5t-21 33.5q-9 0 -21 -10q-48 -46 -92 -114t-65 -113t-21 -52.5t6 -7.5zM459 273q25 0 151.5 123t126.5 137l-1 2l-17 -8q-52 -34 -138.5 -116t-119.5 -128q-4 -5 -4 -7.5t2 -2.5z" />
</font>
</defs>
</svg>
